G04 EAGLE Gerber RS-274X export*
G75*
%MOMM*%
%FSLAX34Y34*%
%LPD*%
%INBottom Copper*%
%IPPOS*%
%AMOC8*
5,1,8,0,0,1.08239X$1,22.5*%
G01*
G04 Define Apertures*
%ADD10C,1.879600*%
%ADD11P,1.42962X8X292.5*%
%ADD12P,1.42962X8X22.5*%
%ADD13C,2.184400*%
%ADD14P,1.81452X8X202.5*%
%ADD15P,1.81452X8X112.5*%
%ADD16P,1.81452X8X292.5*%
%ADD17C,1.651000*%
%ADD18R,1.651000X1.651000*%
%ADD19R,1.308000X1.308000*%
%ADD20C,1.308000*%
%ADD21C,6.000000*%
%ADD22C,0.254000*%
%ADD23C,1.016000*%
%ADD24C,0.756400*%
%ADD25C,1.000000*%
%ADD26C,0.508000*%
G36*
X299735Y-40580D02*
X299438Y-40640D01*
X10922Y-40640D01*
X10647Y-40589D01*
X10392Y-40425D01*
X10220Y-40175D01*
X10160Y-39878D01*
X10160Y638078D01*
X10211Y638353D01*
X10375Y638608D01*
X10625Y638780D01*
X10922Y638840D01*
X359638Y638840D01*
X359913Y638789D01*
X360168Y638625D01*
X360340Y638375D01*
X360400Y638078D01*
X360400Y585716D01*
X360344Y585430D01*
X360177Y585177D01*
X360000Y585000D01*
X360000Y497000D01*
X369000Y497000D01*
X369000Y560084D01*
X369056Y560370D01*
X369223Y560623D01*
X369400Y560800D01*
X369400Y638078D01*
X369451Y638353D01*
X369615Y638608D01*
X369865Y638780D01*
X370162Y638840D01*
X623878Y638840D01*
X624153Y638789D01*
X624408Y638625D01*
X624580Y638375D01*
X624640Y638078D01*
X624640Y-39878D01*
X624589Y-40153D01*
X624425Y-40408D01*
X624175Y-40580D01*
X623878Y-40640D01*
X443753Y-40640D01*
X443490Y-40593D01*
X443232Y-40434D01*
X443057Y-40186D01*
X442991Y-39890D01*
X443047Y-39592D01*
X443215Y-39339D01*
X444700Y-37854D01*
X447160Y-31914D01*
X447160Y-25486D01*
X444700Y-19546D01*
X441893Y-16739D01*
X441735Y-16508D01*
X441669Y-16212D01*
X441725Y-15914D01*
X441893Y-15661D01*
X444700Y-12854D01*
X447160Y-6914D01*
X447160Y-486D01*
X444700Y5454D01*
X440154Y10000D01*
X434214Y12460D01*
X427786Y12460D01*
X421846Y10000D01*
X417300Y5454D01*
X414840Y-486D01*
X414840Y-6914D01*
X417300Y-12854D01*
X420108Y-15661D01*
X420266Y-15892D01*
X420331Y-16188D01*
X420275Y-16486D01*
X420108Y-16739D01*
X417300Y-19546D01*
X414840Y-25486D01*
X414840Y-31914D01*
X417300Y-37854D01*
X418786Y-39339D01*
X418939Y-39559D01*
X419008Y-39854D01*
X418957Y-40153D01*
X418794Y-40408D01*
X418544Y-40580D01*
X418247Y-40640D01*
X343753Y-40640D01*
X343490Y-40593D01*
X343232Y-40434D01*
X343057Y-40186D01*
X342991Y-39890D01*
X343047Y-39592D01*
X343215Y-39339D01*
X344700Y-37854D01*
X347160Y-31914D01*
X347160Y-25486D01*
X344700Y-19546D01*
X341893Y-16739D01*
X341735Y-16508D01*
X341669Y-16212D01*
X341725Y-15914D01*
X341893Y-15661D01*
X344700Y-12854D01*
X347160Y-6914D01*
X347160Y-486D01*
X344700Y5454D01*
X340154Y10000D01*
X334214Y12460D01*
X327786Y12460D01*
X321846Y10000D01*
X317300Y5454D01*
X314840Y-486D01*
X314840Y-6914D01*
X317300Y-12854D01*
X320108Y-15661D01*
X320266Y-15892D01*
X320331Y-16188D01*
X320275Y-16486D01*
X320108Y-16739D01*
X317300Y-19546D01*
X314840Y-25486D01*
X314840Y-31914D01*
X317300Y-37854D01*
X318786Y-39339D01*
X318939Y-39559D01*
X319008Y-39854D01*
X318957Y-40153D01*
X318794Y-40408D01*
X318544Y-40580D01*
X318247Y-40640D01*
X310962Y-40640D01*
X310687Y-40589D01*
X310432Y-40425D01*
X310260Y-40175D01*
X310200Y-39878D01*
X310200Y22011D01*
X310060Y22218D01*
X310000Y22516D01*
X310000Y219238D01*
X310051Y219513D01*
X310215Y219768D01*
X310465Y219940D01*
X310762Y220000D01*
X370000Y220000D01*
X370000Y388011D01*
X369860Y388218D01*
X369800Y388516D01*
X369800Y467700D01*
X359800Y467700D01*
X359800Y387689D01*
X359940Y387482D01*
X360000Y387184D01*
X360000Y230762D01*
X359949Y230487D01*
X359785Y230232D01*
X359535Y230060D01*
X359238Y230000D01*
X300000Y230000D01*
X300000Y7489D01*
X300140Y7282D01*
X300200Y6984D01*
X300200Y-39878D01*
X300149Y-40153D01*
X299985Y-40408D01*
X299735Y-40580D01*
G37*
%LPC*%
G36*
X107754Y622404D02*
X118930Y622404D01*
X118930Y633580D01*
X117317Y633580D01*
X112930Y631763D01*
X109571Y628404D01*
X107754Y624017D01*
X107754Y622404D01*
G37*
G36*
X120454Y622404D02*
X131630Y622404D01*
X131630Y624017D01*
X129813Y628404D01*
X126454Y631763D01*
X122067Y633580D01*
X120454Y633580D01*
X120454Y622404D01*
G37*
G36*
X168319Y610720D02*
X172665Y610720D01*
X176679Y612383D01*
X179751Y615455D01*
X181414Y619469D01*
X181414Y623815D01*
X179751Y627829D01*
X176679Y630901D01*
X172665Y632564D01*
X168319Y632564D01*
X164305Y630901D01*
X161233Y627829D01*
X159570Y623815D01*
X159570Y619469D01*
X161233Y615455D01*
X164305Y612383D01*
X168319Y610720D01*
G37*
G36*
X179127Y500678D02*
X183473Y500678D01*
X187487Y502341D01*
X190559Y505413D01*
X192222Y509427D01*
X192222Y513773D01*
X190559Y517787D01*
X187487Y520859D01*
X183473Y522522D01*
X179127Y522522D01*
X175113Y520859D01*
X172041Y517787D01*
X170830Y514864D01*
X170674Y514626D01*
X170424Y514454D01*
X170126Y514394D01*
X168382Y514394D01*
X168096Y514450D01*
X167843Y514617D01*
X156255Y526205D01*
X156102Y526425D01*
X156033Y526720D01*
X156083Y527019D01*
X156247Y527274D01*
X156497Y527446D01*
X156794Y527506D01*
X158938Y527506D01*
X164294Y532862D01*
X164294Y535888D01*
X154388Y535888D01*
X154388Y545794D01*
X151362Y545794D01*
X149847Y544278D01*
X149627Y544125D01*
X149332Y544056D01*
X149033Y544106D01*
X148778Y544270D01*
X148606Y544520D01*
X148546Y544817D01*
X148546Y610742D01*
X148599Y611022D01*
X148765Y611276D01*
X149016Y611446D01*
X151279Y612383D01*
X154351Y615455D01*
X156014Y619469D01*
X156014Y623815D01*
X154351Y627829D01*
X151279Y630901D01*
X147265Y632564D01*
X142919Y632564D01*
X138905Y630901D01*
X135833Y627829D01*
X134170Y623815D01*
X134170Y619469D01*
X135833Y615455D01*
X138905Y612383D01*
X142488Y610899D01*
X142726Y610742D01*
X142898Y610492D01*
X142958Y610195D01*
X142958Y531600D01*
X165752Y508806D01*
X170126Y508806D01*
X170407Y508753D01*
X170661Y508587D01*
X170830Y508336D01*
X172041Y505413D01*
X175113Y502341D01*
X179127Y500678D01*
G37*
G36*
X47050Y565876D02*
X55350Y565876D01*
X63368Y568024D01*
X70556Y572175D01*
X76425Y578044D01*
X80576Y585232D01*
X82724Y593250D01*
X82724Y601550D01*
X80576Y609568D01*
X76425Y616756D01*
X70556Y622625D01*
X63368Y626776D01*
X55350Y628924D01*
X47050Y628924D01*
X39032Y626776D01*
X31844Y622625D01*
X25975Y616756D01*
X21824Y609568D01*
X19676Y601550D01*
X19676Y593250D01*
X21824Y585232D01*
X25975Y578044D01*
X31844Y572175D01*
X39032Y568024D01*
X47050Y565876D01*
G37*
G36*
X579250Y565116D02*
X587550Y565116D01*
X595568Y567264D01*
X602756Y571415D01*
X608625Y577284D01*
X612776Y584472D01*
X614924Y592490D01*
X614924Y600790D01*
X612776Y608808D01*
X608625Y615996D01*
X602756Y621865D01*
X595568Y626016D01*
X587550Y628164D01*
X579250Y628164D01*
X571232Y626016D01*
X564044Y621865D01*
X558175Y615996D01*
X554024Y608808D01*
X551876Y600790D01*
X551876Y592490D01*
X554024Y584472D01*
X558175Y577284D01*
X564044Y571415D01*
X571232Y567264D01*
X579250Y565116D01*
G37*
G36*
X120454Y609704D02*
X122067Y609704D01*
X126454Y611521D01*
X129813Y614880D01*
X131630Y619267D01*
X131630Y620880D01*
X120454Y620880D01*
X120454Y609704D01*
G37*
G36*
X117317Y609704D02*
X118930Y609704D01*
X118930Y620880D01*
X107754Y620880D01*
X107754Y619267D01*
X109571Y614880D01*
X112930Y611521D01*
X117317Y609704D01*
G37*
G36*
X251862Y590762D02*
X263038Y590762D01*
X263038Y601938D01*
X261425Y601938D01*
X257038Y600121D01*
X253679Y596762D01*
X251862Y592375D01*
X251862Y590762D01*
G37*
G36*
X201062Y590762D02*
X212238Y590762D01*
X212238Y601938D01*
X210625Y601938D01*
X206238Y600121D01*
X202879Y596762D01*
X201062Y592375D01*
X201062Y590762D01*
G37*
G36*
X213762Y590762D02*
X224938Y590762D01*
X224938Y592375D01*
X223121Y596762D01*
X219762Y600121D01*
X215375Y601938D01*
X213762Y601938D01*
X213762Y590762D01*
G37*
G36*
X264562Y590762D02*
X275738Y590762D01*
X275738Y592375D01*
X273921Y596762D01*
X270562Y600121D01*
X266175Y601938D01*
X264562Y601938D01*
X264562Y590762D01*
G37*
G36*
X287027Y579078D02*
X291373Y579078D01*
X295387Y580741D01*
X298459Y583813D01*
X300122Y587827D01*
X300122Y592173D01*
X298459Y596187D01*
X295387Y599259D01*
X291373Y600922D01*
X287027Y600922D01*
X283013Y599259D01*
X279941Y596187D01*
X278278Y592173D01*
X278278Y587827D01*
X279941Y583813D01*
X283013Y580741D01*
X287027Y579078D01*
G37*
G36*
X236227Y579078D02*
X240573Y579078D01*
X244587Y580741D01*
X247659Y583813D01*
X249322Y587827D01*
X249322Y592173D01*
X247659Y596187D01*
X244587Y599259D01*
X240573Y600922D01*
X236227Y600922D01*
X232213Y599259D01*
X229141Y596187D01*
X227478Y592173D01*
X227478Y587827D01*
X229141Y583813D01*
X232213Y580741D01*
X236227Y579078D01*
G37*
G36*
X264562Y578062D02*
X266175Y578062D01*
X270562Y579879D01*
X273921Y583238D01*
X275738Y587625D01*
X275738Y589238D01*
X264562Y589238D01*
X264562Y578062D01*
G37*
G36*
X210625Y578062D02*
X212238Y578062D01*
X212238Y589238D01*
X201062Y589238D01*
X201062Y587625D01*
X202879Y583238D01*
X206238Y579879D01*
X210625Y578062D01*
G37*
G36*
X213762Y578062D02*
X215375Y578062D01*
X219762Y579879D01*
X223121Y583238D01*
X224938Y587625D01*
X224938Y589238D01*
X213762Y589238D01*
X213762Y578062D01*
G37*
G36*
X261425Y578062D02*
X263038Y578062D01*
X263038Y589238D01*
X251862Y589238D01*
X251862Y587625D01*
X253679Y583238D01*
X257038Y579879D01*
X261425Y578062D01*
G37*
G36*
X400177Y558478D02*
X404523Y558478D01*
X408537Y560141D01*
X411609Y563213D01*
X413272Y567227D01*
X413272Y571573D01*
X411609Y575587D01*
X408537Y578659D01*
X404523Y580322D01*
X400177Y580322D01*
X396163Y578659D01*
X393091Y575587D01*
X391428Y571573D01*
X391428Y567227D01*
X393091Y563213D01*
X396163Y560141D01*
X400177Y558478D01*
G37*
G36*
X100827Y428878D02*
X105173Y428878D01*
X109187Y430541D01*
X112259Y433613D01*
X113922Y437627D01*
X113922Y441067D01*
X113978Y441353D01*
X114145Y441606D01*
X135612Y463073D01*
X135854Y463236D01*
X136151Y463296D01*
X179114Y463296D01*
X181541Y464301D01*
X212299Y495059D01*
X213304Y497486D01*
X213304Y502442D01*
X213360Y502728D01*
X213527Y502981D01*
X215959Y505413D01*
X217622Y509427D01*
X217622Y513773D01*
X215959Y517787D01*
X212887Y520859D01*
X208873Y522522D01*
X204527Y522522D01*
X200513Y520859D01*
X197441Y517787D01*
X195778Y513773D01*
X195778Y509427D01*
X197441Y505413D01*
X199873Y502981D01*
X200036Y502740D01*
X200096Y502442D01*
X200096Y501851D01*
X200040Y501565D01*
X199873Y501312D01*
X175288Y476727D01*
X175046Y476564D01*
X174749Y476504D01*
X131786Y476504D01*
X129359Y475499D01*
X104806Y450945D01*
X104564Y450782D01*
X104267Y450722D01*
X101733Y450722D01*
X101447Y450778D01*
X101194Y450945D01*
X88491Y463648D01*
X88328Y463890D01*
X88268Y464187D01*
X88268Y542230D01*
X87263Y544657D01*
X75269Y556651D01*
X72842Y557656D01*
X45738Y557656D01*
X43311Y556651D01*
X33901Y547241D01*
X32896Y544814D01*
X32896Y544208D01*
X32840Y543922D01*
X32673Y543669D01*
X30241Y541237D01*
X28578Y537223D01*
X28578Y532877D01*
X30241Y528863D01*
X33313Y525791D01*
X37327Y524128D01*
X41673Y524128D01*
X45687Y525791D01*
X48759Y528863D01*
X50422Y532877D01*
X50422Y537223D01*
X48759Y541237D01*
X48207Y541790D01*
X48049Y542020D01*
X47984Y542316D01*
X48039Y542614D01*
X48207Y542867D01*
X49564Y544225D01*
X49806Y544388D01*
X50103Y544448D01*
X57012Y544448D01*
X57276Y544401D01*
X57534Y544242D01*
X57709Y543994D01*
X57774Y543698D01*
X57719Y543400D01*
X57551Y543147D01*
X55641Y541237D01*
X53978Y537223D01*
X53978Y532877D01*
X55641Y528863D01*
X58713Y525791D01*
X62727Y524128D01*
X67073Y524128D01*
X71087Y525791D01*
X73759Y528463D01*
X73979Y528616D01*
X74274Y528686D01*
X74573Y528635D01*
X74828Y528472D01*
X75000Y528222D01*
X75060Y527924D01*
X75060Y516776D01*
X75013Y516512D01*
X74854Y516254D01*
X74606Y516079D01*
X74310Y516014D01*
X74012Y516069D01*
X73759Y516237D01*
X71087Y518909D01*
X67073Y520572D01*
X62727Y520572D01*
X58713Y518909D01*
X55641Y515837D01*
X53978Y511823D01*
X53978Y507477D01*
X55641Y503463D01*
X58713Y500391D01*
X62727Y498728D01*
X67073Y498728D01*
X71087Y500391D01*
X73759Y503063D01*
X73979Y503216D01*
X74274Y503286D01*
X74573Y503235D01*
X74828Y503072D01*
X75000Y502822D01*
X75060Y502524D01*
X75060Y491376D01*
X75013Y491112D01*
X74854Y490854D01*
X74606Y490679D01*
X74310Y490614D01*
X74012Y490669D01*
X73759Y490837D01*
X71087Y493509D01*
X67073Y495172D01*
X62727Y495172D01*
X58713Y493509D01*
X55641Y490437D01*
X53978Y486423D01*
X53978Y482077D01*
X55641Y478063D01*
X58713Y474991D01*
X62727Y473328D01*
X67073Y473328D01*
X71087Y474991D01*
X73759Y477663D01*
X73979Y477816D01*
X74274Y477886D01*
X74573Y477835D01*
X74828Y477672D01*
X75000Y477422D01*
X75060Y477124D01*
X75060Y465976D01*
X75013Y465712D01*
X74854Y465454D01*
X74606Y465279D01*
X74310Y465214D01*
X74012Y465269D01*
X73759Y465437D01*
X71087Y468109D01*
X67073Y469772D01*
X62727Y469772D01*
X58713Y468109D01*
X55641Y465037D01*
X53978Y461023D01*
X53978Y456677D01*
X55641Y452663D01*
X58713Y449591D01*
X62727Y447928D01*
X67073Y447928D01*
X71087Y449591D01*
X74159Y452663D01*
X75667Y456303D01*
X75815Y456533D01*
X76063Y456709D01*
X76359Y456774D01*
X76657Y456718D01*
X76910Y456551D01*
X91855Y441606D01*
X92018Y441364D01*
X92078Y441067D01*
X92078Y437627D01*
X93741Y433613D01*
X96813Y430541D01*
X100827Y428878D01*
G37*
G36*
X400177Y533078D02*
X404523Y533078D01*
X408537Y534741D01*
X411609Y537813D01*
X413272Y541827D01*
X413272Y546173D01*
X411609Y550187D01*
X408537Y553259D01*
X404523Y554922D01*
X400177Y554922D01*
X396163Y553259D01*
X393091Y550187D01*
X391428Y546173D01*
X391428Y541827D01*
X393091Y537813D01*
X396163Y534741D01*
X400177Y533078D01*
G37*
G36*
X438633Y537872D02*
X445367Y537872D01*
X450128Y542633D01*
X450128Y549367D01*
X445367Y554128D01*
X438633Y554128D01*
X433872Y549367D01*
X433872Y542633D01*
X438633Y537872D01*
G37*
G36*
X310614Y533021D02*
X328386Y533021D01*
X329279Y533914D01*
X329279Y551686D01*
X328386Y552579D01*
X310614Y552579D01*
X309721Y551686D01*
X309721Y533914D01*
X310614Y533021D01*
G37*
G36*
X155912Y537412D02*
X164294Y537412D01*
X164294Y540438D01*
X158938Y545794D01*
X155912Y545794D01*
X155912Y537412D01*
G37*
G36*
X100983Y528522D02*
X107717Y528522D01*
X112478Y533283D01*
X112478Y540017D01*
X107717Y544778D01*
X100983Y544778D01*
X96222Y540017D01*
X96222Y533283D01*
X100983Y528522D01*
G37*
G36*
X403112Y519362D02*
X414288Y519362D01*
X414288Y520975D01*
X412471Y525362D01*
X409112Y528721D01*
X404725Y530538D01*
X403112Y530538D01*
X403112Y519362D01*
G37*
G36*
X390412Y519362D02*
X401588Y519362D01*
X401588Y530538D01*
X399975Y530538D01*
X395588Y528721D01*
X392229Y525362D01*
X390412Y520975D01*
X390412Y519362D01*
G37*
G36*
X320262Y518562D02*
X330295Y518562D01*
X330295Y519947D01*
X328652Y523915D01*
X325615Y526952D01*
X321647Y528595D01*
X320262Y528595D01*
X320262Y518562D01*
G37*
G36*
X308705Y518562D02*
X318738Y518562D01*
X318738Y528595D01*
X317353Y528595D01*
X313385Y526952D01*
X310348Y523915D01*
X308705Y519947D01*
X308705Y518562D01*
G37*
G36*
X220162Y512362D02*
X231338Y512362D01*
X231338Y523538D01*
X229725Y523538D01*
X225338Y521721D01*
X221979Y518362D01*
X220162Y513975D01*
X220162Y512362D01*
G37*
G36*
X232862Y512362D02*
X244038Y512362D01*
X244038Y513975D01*
X242221Y518362D01*
X238862Y521721D01*
X234475Y523538D01*
X232862Y523538D01*
X232862Y512362D01*
G37*
G36*
X182947Y412682D02*
X191153Y412682D01*
X196956Y418485D01*
X196956Y426691D01*
X196382Y427265D01*
X196224Y427496D01*
X196159Y427792D01*
X196215Y428090D01*
X196382Y428343D01*
X205712Y437673D01*
X205954Y437836D01*
X206251Y437896D01*
X258814Y437896D01*
X261241Y438901D01*
X263099Y440759D01*
X264104Y443186D01*
X264104Y502442D01*
X264160Y502728D01*
X264327Y502981D01*
X266759Y505413D01*
X268422Y509427D01*
X268422Y513773D01*
X266759Y517787D01*
X263687Y520859D01*
X259673Y522522D01*
X255327Y522522D01*
X251313Y520859D01*
X248241Y517787D01*
X246578Y513773D01*
X246578Y509427D01*
X248241Y505413D01*
X250673Y502981D01*
X250836Y502740D01*
X250896Y502442D01*
X250896Y451866D01*
X250845Y451591D01*
X250681Y451336D01*
X250431Y451164D01*
X250134Y451104D01*
X201886Y451104D01*
X199459Y450099D01*
X181451Y432091D01*
X180737Y430366D01*
X180572Y430119D01*
X177144Y426691D01*
X177144Y418485D01*
X182947Y412682D01*
G37*
G36*
X37327Y498728D02*
X41673Y498728D01*
X45687Y500391D01*
X48759Y503463D01*
X50422Y507477D01*
X50422Y511823D01*
X48759Y515837D01*
X45687Y518909D01*
X41673Y520572D01*
X37327Y520572D01*
X33313Y518909D01*
X30241Y515837D01*
X28578Y511823D01*
X28578Y507477D01*
X30241Y503463D01*
X33313Y500391D01*
X37327Y498728D01*
G37*
G36*
X399975Y506662D02*
X401588Y506662D01*
X401588Y517838D01*
X390412Y517838D01*
X390412Y516225D01*
X392229Y511838D01*
X395588Y508479D01*
X399975Y506662D01*
G37*
G36*
X403112Y506662D02*
X404725Y506662D01*
X409112Y508479D01*
X412471Y511838D01*
X414288Y516225D01*
X414288Y517838D01*
X403112Y517838D01*
X403112Y506662D01*
G37*
G36*
X317353Y507005D02*
X318738Y507005D01*
X318738Y517038D01*
X308705Y517038D01*
X308705Y515653D01*
X310348Y511685D01*
X313385Y508648D01*
X317353Y507005D01*
G37*
G36*
X320262Y507005D02*
X321647Y507005D01*
X325615Y508648D01*
X328652Y511685D01*
X330295Y515653D01*
X330295Y517038D01*
X320262Y517038D01*
X320262Y507005D01*
G37*
G36*
X232862Y499662D02*
X234475Y499662D01*
X238862Y501479D01*
X242221Y504838D01*
X244038Y509225D01*
X244038Y510838D01*
X232862Y510838D01*
X232862Y499662D01*
G37*
G36*
X229725Y499662D02*
X231338Y499662D01*
X231338Y510838D01*
X220162Y510838D01*
X220162Y509225D01*
X221979Y504838D01*
X225338Y501479D01*
X229725Y499662D01*
G37*
G36*
X432856Y495962D02*
X441238Y495962D01*
X441238Y504344D01*
X438212Y504344D01*
X432856Y498988D01*
X432856Y495962D01*
G37*
G36*
X442762Y495962D02*
X451144Y495962D01*
X451144Y498988D01*
X445788Y504344D01*
X442762Y504344D01*
X442762Y495962D01*
G37*
G36*
X400177Y482278D02*
X404523Y482278D01*
X408537Y483941D01*
X411609Y487013D01*
X413272Y491027D01*
X413272Y495373D01*
X411609Y499387D01*
X408537Y502459D01*
X404523Y504122D01*
X400177Y504122D01*
X396163Y502459D01*
X393091Y499387D01*
X391428Y495373D01*
X391428Y491027D01*
X393091Y487013D01*
X396163Y483941D01*
X400177Y482278D01*
G37*
G36*
X131405Y490362D02*
X141438Y490362D01*
X141438Y500395D01*
X140053Y500395D01*
X136085Y498752D01*
X133048Y495715D01*
X131405Y491747D01*
X131405Y490362D01*
G37*
G36*
X142962Y490362D02*
X152995Y490362D01*
X152995Y491747D01*
X151352Y495715D01*
X148315Y498752D01*
X144347Y500395D01*
X142962Y500395D01*
X142962Y490362D01*
G37*
G36*
X108314Y479821D02*
X126086Y479821D01*
X126979Y480714D01*
X126979Y498486D01*
X126086Y499379D01*
X108314Y499379D01*
X107421Y498486D01*
X107421Y480714D01*
X108314Y479821D01*
G37*
G36*
X27562Y485012D02*
X38738Y485012D01*
X38738Y496188D01*
X37125Y496188D01*
X32738Y494371D01*
X29379Y491012D01*
X27562Y486625D01*
X27562Y485012D01*
G37*
G36*
X40262Y485012D02*
X51438Y485012D01*
X51438Y486625D01*
X49621Y491012D01*
X46262Y494371D01*
X41875Y496188D01*
X40262Y496188D01*
X40262Y485012D01*
G37*
G36*
X442762Y486056D02*
X445788Y486056D01*
X451144Y491412D01*
X451144Y494438D01*
X442762Y494438D01*
X442762Y486056D01*
G37*
G36*
X438212Y486056D02*
X441238Y486056D01*
X441238Y494438D01*
X432856Y494438D01*
X432856Y491412D01*
X438212Y486056D01*
G37*
G36*
X140053Y478805D02*
X141438Y478805D01*
X141438Y488838D01*
X131405Y488838D01*
X131405Y487453D01*
X133048Y483485D01*
X136085Y480448D01*
X140053Y478805D01*
G37*
G36*
X142962Y478805D02*
X144347Y478805D01*
X148315Y480448D01*
X151352Y483485D01*
X152995Y487453D01*
X152995Y488838D01*
X142962Y488838D01*
X142962Y478805D01*
G37*
G36*
X37125Y472312D02*
X38738Y472312D01*
X38738Y483488D01*
X27562Y483488D01*
X27562Y481875D01*
X29379Y477488D01*
X32738Y474129D01*
X37125Y472312D01*
G37*
G36*
X40262Y472312D02*
X41875Y472312D01*
X46262Y474129D01*
X49621Y477488D01*
X51438Y481875D01*
X51438Y483488D01*
X40262Y483488D01*
X40262Y472312D01*
G37*
G36*
X400177Y456878D02*
X404523Y456878D01*
X408537Y458541D01*
X411609Y461613D01*
X413272Y465627D01*
X413272Y469973D01*
X411609Y473987D01*
X408537Y477059D01*
X404523Y478722D01*
X400177Y478722D01*
X396163Y477059D01*
X393091Y473987D01*
X391428Y469973D01*
X391428Y465627D01*
X393091Y461613D01*
X396163Y458541D01*
X400177Y456878D01*
G37*
G36*
X37327Y447928D02*
X41673Y447928D01*
X45687Y449591D01*
X48759Y452663D01*
X50422Y456677D01*
X50422Y461023D01*
X48759Y465037D01*
X45687Y468109D01*
X41673Y469772D01*
X37327Y469772D01*
X33313Y468109D01*
X30241Y465037D01*
X28578Y461023D01*
X28578Y456677D01*
X30241Y452663D01*
X33313Y449591D01*
X37327Y447928D01*
G37*
G36*
X400177Y431478D02*
X404523Y431478D01*
X408537Y433141D01*
X411609Y436213D01*
X413272Y440227D01*
X413272Y444573D01*
X411609Y448587D01*
X408537Y451659D01*
X404523Y453322D01*
X400177Y453322D01*
X396163Y451659D01*
X393091Y448587D01*
X391428Y444573D01*
X391428Y440227D01*
X393091Y436213D01*
X396163Y433141D01*
X400177Y431478D01*
G37*
G36*
X52962Y434212D02*
X64138Y434212D01*
X64138Y445388D01*
X62525Y445388D01*
X58138Y443571D01*
X54779Y440212D01*
X52962Y435825D01*
X52962Y434212D01*
G37*
G36*
X65662Y434212D02*
X76838Y434212D01*
X76838Y435825D01*
X75021Y440212D01*
X71662Y443571D01*
X67275Y445388D01*
X65662Y445388D01*
X65662Y434212D01*
G37*
G36*
X141362Y295512D02*
X165238Y295512D01*
X165238Y296418D01*
X165289Y296693D01*
X165453Y296948D01*
X165703Y297120D01*
X166000Y297180D01*
X215637Y297180D01*
X245239Y326783D01*
X245481Y326946D01*
X245778Y327006D01*
X344375Y327006D01*
X344661Y326950D01*
X344913Y326783D01*
X347202Y324494D01*
X351598Y324494D01*
X354706Y327602D01*
X354706Y331998D01*
X351598Y335106D01*
X347202Y335106D01*
X344913Y332817D01*
X344672Y332654D01*
X344375Y332594D01*
X243148Y332594D01*
X213545Y302991D01*
X213304Y302828D01*
X213006Y302768D01*
X166791Y302768D01*
X166505Y302824D01*
X166252Y302991D01*
X159459Y309785D01*
X159301Y310015D01*
X159235Y310312D01*
X159291Y310610D01*
X159459Y310863D01*
X162559Y313963D01*
X164222Y317977D01*
X164222Y322323D01*
X162559Y326337D01*
X159487Y329409D01*
X155473Y331072D01*
X153336Y331072D01*
X153061Y331123D01*
X152806Y331287D01*
X152634Y331537D01*
X152574Y331834D01*
X152574Y439448D01*
X151581Y441846D01*
X149746Y443681D01*
X147348Y444674D01*
X144752Y444674D01*
X142354Y443681D01*
X140519Y441846D01*
X139526Y439448D01*
X139526Y326102D01*
X140519Y323704D01*
X142155Y322069D01*
X142318Y321827D01*
X142378Y321530D01*
X142378Y317977D01*
X144041Y313963D01*
X146767Y311237D01*
X146920Y311017D01*
X146990Y310722D01*
X146939Y310423D01*
X146776Y310168D01*
X146526Y309996D01*
X146228Y309936D01*
X137339Y309936D01*
X137053Y309992D01*
X136800Y310159D01*
X131365Y315594D01*
X108025Y315594D01*
X107739Y315650D01*
X107487Y315817D01*
X105198Y318106D01*
X100802Y318106D01*
X97694Y314998D01*
X97694Y310602D01*
X100802Y307494D01*
X105198Y307494D01*
X107487Y309783D01*
X107728Y309946D01*
X108025Y310006D01*
X128735Y310006D01*
X129021Y309950D01*
X129274Y309783D01*
X134709Y304348D01*
X144176Y304348D01*
X144439Y304301D01*
X144697Y304142D01*
X144872Y303894D01*
X144937Y303598D01*
X144882Y303300D01*
X144714Y303047D01*
X143179Y301512D01*
X141362Y297125D01*
X141362Y295512D01*
G37*
G36*
X37327Y422528D02*
X41673Y422528D01*
X45687Y424191D01*
X48759Y427263D01*
X50422Y431277D01*
X50422Y435623D01*
X48759Y439637D01*
X45687Y442709D01*
X41673Y444372D01*
X37327Y444372D01*
X33313Y442709D01*
X30241Y439637D01*
X28578Y435623D01*
X28578Y431277D01*
X30241Y427263D01*
X33313Y424191D01*
X37327Y422528D01*
G37*
G36*
X62525Y421512D02*
X64138Y421512D01*
X64138Y432688D01*
X52962Y432688D01*
X52962Y431075D01*
X54779Y426688D01*
X58138Y423329D01*
X62525Y421512D01*
G37*
G36*
X65662Y421512D02*
X67275Y421512D01*
X71662Y423329D01*
X75021Y426688D01*
X76838Y431075D01*
X76838Y432688D01*
X65662Y432688D01*
X65662Y421512D01*
G37*
G36*
X210147Y412244D02*
X218353Y412244D01*
X224156Y418047D01*
X224156Y426253D01*
X218353Y432056D01*
X210147Y432056D01*
X204344Y426253D01*
X204344Y418047D01*
X210147Y412244D01*
G37*
G36*
X377786Y30140D02*
X384214Y30140D01*
X390154Y32600D01*
X394700Y37146D01*
X395099Y38110D01*
X395247Y38340D01*
X395495Y38515D01*
X395791Y38580D01*
X396089Y38524D01*
X396342Y38357D01*
X398950Y35749D01*
X403524Y33854D01*
X408476Y33854D01*
X413050Y35749D01*
X416551Y39250D01*
X417796Y42255D01*
X417940Y42480D01*
X418186Y42658D01*
X418482Y42725D01*
X418780Y42672D01*
X419035Y42507D01*
X419204Y42255D01*
X420449Y39250D01*
X423950Y35749D01*
X428524Y33854D01*
X433476Y33854D01*
X438050Y35749D01*
X441551Y39250D01*
X443446Y43824D01*
X443446Y48776D01*
X441551Y53350D01*
X438050Y56851D01*
X433476Y58746D01*
X428524Y58746D01*
X423950Y56851D01*
X420449Y53350D01*
X419204Y50345D01*
X419060Y50120D01*
X418814Y49942D01*
X418518Y49875D01*
X418220Y49928D01*
X417966Y50093D01*
X417796Y50345D01*
X416551Y53350D01*
X413050Y56851D01*
X408476Y58746D01*
X403524Y58746D01*
X398950Y56851D01*
X396342Y54243D01*
X396117Y54088D01*
X395821Y54020D01*
X395523Y54073D01*
X395268Y54239D01*
X395099Y54490D01*
X394700Y55454D01*
X390154Y60000D01*
X384214Y62460D01*
X377786Y62460D01*
X371846Y60000D01*
X367300Y55454D01*
X366901Y54490D01*
X366753Y54260D01*
X366505Y54085D01*
X366209Y54020D01*
X365911Y54076D01*
X365658Y54243D01*
X363050Y56851D01*
X358476Y58746D01*
X353524Y58746D01*
X348950Y56851D01*
X345449Y53350D01*
X344204Y50345D01*
X344060Y50120D01*
X343814Y49942D01*
X343518Y49875D01*
X343220Y49928D01*
X342966Y50093D01*
X342796Y50345D01*
X341878Y52561D01*
X341820Y52841D01*
X341876Y53139D01*
X342043Y53392D01*
X346794Y58143D01*
X346794Y142157D01*
X337017Y151934D01*
X336854Y152176D01*
X336794Y152473D01*
X336794Y174527D01*
X336850Y174813D01*
X337017Y175066D01*
X339152Y177201D01*
X339366Y177352D01*
X339661Y177424D01*
X339960Y177375D01*
X340217Y177214D01*
X340390Y176965D01*
X340453Y176668D01*
X340395Y176371D01*
X339205Y173497D01*
X339205Y172112D01*
X360795Y172112D01*
X360795Y173497D01*
X359152Y177465D01*
X357711Y178905D01*
X357558Y179125D01*
X357488Y179420D01*
X357539Y179719D01*
X357703Y179974D01*
X357953Y180146D01*
X358250Y180206D01*
X362157Y180206D01*
X380746Y198795D01*
X380746Y325679D01*
X380802Y325965D01*
X380969Y326218D01*
X392952Y338201D01*
X392952Y358312D01*
X392999Y358576D01*
X393158Y358834D01*
X393406Y359009D01*
X393702Y359074D01*
X394000Y359019D01*
X394253Y358851D01*
X396163Y356941D01*
X399086Y355730D01*
X399324Y355574D01*
X399496Y355324D01*
X399556Y355026D01*
X399556Y318993D01*
X415242Y303307D01*
X415395Y303087D01*
X415465Y302792D01*
X415414Y302493D01*
X415250Y302238D01*
X415000Y302066D01*
X414703Y302006D01*
X408647Y302006D01*
X402844Y296203D01*
X402844Y287997D01*
X408647Y282194D01*
X416853Y282194D01*
X420655Y285996D01*
X420875Y286149D01*
X421170Y286219D01*
X421469Y286168D01*
X421724Y286005D01*
X421896Y285754D01*
X421956Y285457D01*
X421956Y273343D01*
X421909Y273080D01*
X421750Y272821D01*
X421502Y272646D01*
X421206Y272581D01*
X420908Y272637D01*
X420655Y272804D01*
X416853Y276606D01*
X408647Y276606D01*
X402844Y270803D01*
X402844Y262597D01*
X408647Y256794D01*
X413612Y256794D01*
X413876Y256747D01*
X414134Y256588D01*
X414309Y256340D01*
X414374Y256044D01*
X414319Y255746D01*
X414151Y255493D01*
X388658Y230000D01*
X388658Y223091D01*
X388602Y222805D01*
X388435Y222552D01*
X388378Y222495D01*
X388378Y201654D01*
X388322Y201368D01*
X388155Y201115D01*
X385866Y198826D01*
X385866Y194431D01*
X388974Y191322D01*
X393370Y191322D01*
X396478Y194431D01*
X396478Y198826D01*
X394189Y201115D01*
X394026Y201357D01*
X393966Y201654D01*
X393966Y219304D01*
X394021Y219590D01*
X394189Y219843D01*
X394246Y219900D01*
X394246Y227370D01*
X394302Y227656D01*
X394469Y227909D01*
X427544Y260984D01*
X427544Y298907D01*
X405367Y321084D01*
X405204Y321326D01*
X405144Y321623D01*
X405144Y355026D01*
X405197Y355307D01*
X405363Y355561D01*
X405614Y355730D01*
X408537Y356941D01*
X410447Y358851D01*
X410667Y359004D01*
X410962Y359074D01*
X411261Y359023D01*
X411516Y358860D01*
X411688Y358610D01*
X411748Y358312D01*
X411748Y348334D01*
X412753Y345907D01*
X431773Y326888D01*
X431936Y326646D01*
X431996Y326349D01*
X431996Y251686D01*
X433001Y249259D01*
X434859Y247401D01*
X437286Y246396D01*
X439914Y246396D01*
X442341Y247401D01*
X444199Y249259D01*
X445204Y251686D01*
X445204Y330714D01*
X444199Y333141D01*
X425179Y352160D01*
X425016Y352402D01*
X424956Y352699D01*
X424956Y374142D01*
X423951Y376569D01*
X412994Y387526D01*
X412833Y387762D01*
X412770Y388059D01*
X412828Y388357D01*
X413272Y389427D01*
X413272Y393773D01*
X411609Y397787D01*
X408537Y400859D01*
X404523Y402522D01*
X401821Y402522D01*
X401558Y402569D01*
X401299Y402728D01*
X401124Y402976D01*
X401059Y403272D01*
X401115Y403570D01*
X401282Y403823D01*
X403314Y405855D01*
X403556Y406018D01*
X403853Y406078D01*
X404523Y406078D01*
X408537Y407741D01*
X411609Y410813D01*
X413272Y414827D01*
X413272Y419173D01*
X411609Y423187D01*
X408537Y426259D01*
X404523Y427922D01*
X400177Y427922D01*
X396163Y426259D01*
X393091Y423187D01*
X391428Y419173D01*
X391428Y414827D01*
X393091Y410813D01*
X396191Y407713D01*
X396349Y407482D01*
X396415Y407186D01*
X396359Y406888D01*
X396191Y406635D01*
X387364Y397807D01*
X387364Y340831D01*
X387308Y340545D01*
X387141Y340292D01*
X375158Y328309D01*
X375158Y201425D01*
X375102Y201139D01*
X374935Y200886D01*
X361080Y187031D01*
X360860Y186878D01*
X360565Y186808D01*
X360266Y186859D01*
X360011Y187023D01*
X359839Y187273D01*
X359779Y187570D01*
X359779Y205236D01*
X358886Y206129D01*
X341114Y206129D01*
X340221Y205236D01*
X340221Y187464D01*
X340590Y187095D01*
X340743Y186875D01*
X340813Y186580D01*
X340762Y186281D01*
X340598Y186026D01*
X340348Y185854D01*
X340051Y185794D01*
X339843Y185794D01*
X331206Y177157D01*
X331206Y149843D01*
X340983Y140066D01*
X341146Y139824D01*
X341206Y139527D01*
X341206Y60773D01*
X341150Y60487D01*
X340983Y60234D01*
X338092Y57343D01*
X337856Y57183D01*
X337559Y57120D01*
X337261Y57178D01*
X333476Y58746D01*
X328524Y58746D01*
X323950Y56851D01*
X320449Y53350D01*
X318554Y48776D01*
X318554Y43824D01*
X320449Y39250D01*
X323950Y35749D01*
X328524Y33854D01*
X333476Y33854D01*
X338050Y35749D01*
X341551Y39250D01*
X342796Y42255D01*
X342940Y42480D01*
X343186Y42658D01*
X343482Y42725D01*
X343780Y42672D01*
X344035Y42507D01*
X344204Y42255D01*
X345449Y39250D01*
X348950Y35749D01*
X353524Y33854D01*
X358476Y33854D01*
X363050Y35749D01*
X365658Y38357D01*
X365883Y38513D01*
X366179Y38580D01*
X366477Y38527D01*
X366732Y38361D01*
X366901Y38110D01*
X367300Y37146D01*
X371846Y32600D01*
X377786Y30140D01*
G37*
G36*
X100827Y403478D02*
X105173Y403478D01*
X109187Y405141D01*
X112259Y408213D01*
X113922Y412227D01*
X113922Y416573D01*
X112259Y420587D01*
X109187Y423659D01*
X105173Y425322D01*
X100827Y425322D01*
X96813Y423659D01*
X93741Y420587D01*
X92078Y416573D01*
X92078Y412227D01*
X93741Y408213D01*
X96813Y405141D01*
X100827Y403478D01*
G37*
G36*
X62727Y397128D02*
X67073Y397128D01*
X71087Y398791D01*
X74159Y401863D01*
X75822Y405877D01*
X75822Y410223D01*
X74159Y414237D01*
X71087Y417309D01*
X67073Y418972D01*
X62727Y418972D01*
X58713Y417309D01*
X55641Y414237D01*
X53978Y410223D01*
X53978Y405877D01*
X55641Y401863D01*
X58713Y398791D01*
X62727Y397128D01*
G37*
G36*
X37327Y397128D02*
X41673Y397128D01*
X45687Y398791D01*
X48759Y401863D01*
X50422Y405877D01*
X50422Y410223D01*
X48759Y414237D01*
X45687Y417309D01*
X41673Y418972D01*
X37327Y418972D01*
X33313Y417309D01*
X30241Y414237D01*
X28578Y410223D01*
X28578Y405877D01*
X30241Y401863D01*
X33313Y398791D01*
X37327Y397128D01*
G37*
G36*
X62727Y371728D02*
X67073Y371728D01*
X71087Y373391D01*
X74159Y376463D01*
X75822Y380477D01*
X75822Y384822D01*
X75685Y385152D01*
X75628Y385420D01*
X75679Y385719D01*
X75842Y385974D01*
X76092Y386146D01*
X76389Y386206D01*
X91826Y386206D01*
X92107Y386153D01*
X92361Y385987D01*
X92530Y385736D01*
X93741Y382813D01*
X96813Y379741D01*
X100827Y378078D01*
X105173Y378078D01*
X109187Y379741D01*
X112259Y382813D01*
X113922Y386827D01*
X113922Y391173D01*
X112259Y395187D01*
X109187Y398259D01*
X105173Y399922D01*
X100827Y399922D01*
X96813Y398259D01*
X93741Y395187D01*
X92530Y392264D01*
X92374Y392026D01*
X92124Y391854D01*
X91826Y391794D01*
X71517Y391794D01*
X71225Y391852D01*
X67073Y393572D01*
X62727Y393572D01*
X58713Y391909D01*
X55641Y388837D01*
X53978Y384823D01*
X53978Y380477D01*
X55641Y376463D01*
X58713Y373391D01*
X62727Y371728D01*
G37*
G36*
X40262Y383412D02*
X51438Y383412D01*
X51438Y385025D01*
X49621Y389412D01*
X46262Y392771D01*
X41875Y394588D01*
X40262Y394588D01*
X40262Y383412D01*
G37*
G36*
X27562Y383412D02*
X38738Y383412D01*
X38738Y394588D01*
X37125Y394588D01*
X32738Y392771D01*
X29379Y389412D01*
X27562Y385025D01*
X27562Y383412D01*
G37*
G36*
X37125Y370712D02*
X38738Y370712D01*
X38738Y381888D01*
X27562Y381888D01*
X27562Y380275D01*
X29379Y375888D01*
X32738Y372529D01*
X37125Y370712D01*
G37*
G36*
X40262Y370712D02*
X41875Y370712D01*
X46262Y372529D01*
X49621Y375888D01*
X51438Y380275D01*
X51438Y381888D01*
X40262Y381888D01*
X40262Y370712D01*
G37*
G36*
X100827Y352678D02*
X105173Y352678D01*
X109187Y354341D01*
X112259Y357413D01*
X113922Y361427D01*
X113922Y365773D01*
X112259Y369787D01*
X109187Y372859D01*
X105173Y374522D01*
X100827Y374522D01*
X96813Y372859D01*
X93741Y369787D01*
X92078Y365773D01*
X92078Y361427D01*
X93741Y357413D01*
X96813Y354341D01*
X100827Y352678D01*
G37*
G36*
X37327Y346328D02*
X41673Y346328D01*
X45687Y347991D01*
X48759Y351063D01*
X50422Y355077D01*
X50422Y359423D01*
X48759Y363437D01*
X45687Y366509D01*
X41673Y368172D01*
X37327Y368172D01*
X33313Y366509D01*
X30241Y363437D01*
X28578Y359423D01*
X28578Y355077D01*
X30241Y351063D01*
X33313Y347991D01*
X37327Y346328D01*
G37*
G36*
X62727Y346328D02*
X67073Y346328D01*
X71087Y347991D01*
X74159Y351063D01*
X75822Y355077D01*
X75822Y359423D01*
X74159Y363437D01*
X71087Y366509D01*
X67073Y368172D01*
X62727Y368172D01*
X58713Y366509D01*
X55641Y363437D01*
X53978Y359423D01*
X53978Y355077D01*
X55641Y351063D01*
X58713Y347991D01*
X62727Y346328D01*
G37*
G36*
X103762Y338962D02*
X114938Y338962D01*
X114938Y340575D01*
X113121Y344962D01*
X109762Y348321D01*
X105375Y350138D01*
X103762Y350138D01*
X103762Y338962D01*
G37*
G36*
X91062Y338962D02*
X102238Y338962D01*
X102238Y350138D01*
X100625Y350138D01*
X96238Y348321D01*
X92879Y344962D01*
X91062Y340575D01*
X91062Y338962D01*
G37*
G36*
X37327Y320928D02*
X41673Y320928D01*
X45687Y322591D01*
X48759Y325663D01*
X50422Y329677D01*
X50422Y334023D01*
X48759Y338037D01*
X45687Y341109D01*
X41673Y342772D01*
X37327Y342772D01*
X33313Y341109D01*
X30241Y338037D01*
X28578Y334023D01*
X28578Y329677D01*
X30241Y325663D01*
X33313Y322591D01*
X37327Y320928D01*
G37*
G36*
X62727Y320928D02*
X67073Y320928D01*
X71087Y322591D01*
X74159Y325663D01*
X75822Y329677D01*
X75822Y334023D01*
X74159Y338037D01*
X71087Y341109D01*
X67073Y342772D01*
X62727Y342772D01*
X58713Y341109D01*
X55641Y338037D01*
X53978Y334023D01*
X53978Y329677D01*
X55641Y325663D01*
X58713Y322591D01*
X62727Y320928D01*
G37*
G36*
X103762Y326262D02*
X105375Y326262D01*
X109762Y328079D01*
X113121Y331438D01*
X114938Y335825D01*
X114938Y337438D01*
X103762Y337438D01*
X103762Y326262D01*
G37*
G36*
X100625Y326262D02*
X102238Y326262D01*
X102238Y337438D01*
X91062Y337438D01*
X91062Y335825D01*
X92879Y331438D01*
X96238Y328079D01*
X100625Y326262D01*
G37*
G36*
X182947Y311082D02*
X191153Y311082D01*
X196956Y316885D01*
X196956Y325091D01*
X191153Y330894D01*
X182947Y330894D01*
X177144Y325091D01*
X177144Y316885D01*
X182947Y311082D01*
G37*
G36*
X210147Y310644D02*
X218353Y310644D01*
X224156Y316447D01*
X224156Y324653D01*
X218353Y330456D01*
X210147Y330456D01*
X204344Y324653D01*
X204344Y316447D01*
X210147Y310644D01*
G37*
G36*
X27562Y307212D02*
X38738Y307212D01*
X38738Y318388D01*
X37125Y318388D01*
X32738Y316571D01*
X29379Y313212D01*
X27562Y308825D01*
X27562Y307212D01*
G37*
G36*
X40262Y307212D02*
X51438Y307212D01*
X51438Y308825D01*
X49621Y313212D01*
X46262Y316571D01*
X41875Y318388D01*
X40262Y318388D01*
X40262Y307212D01*
G37*
G36*
X62727Y295528D02*
X67073Y295528D01*
X71087Y297191D01*
X74159Y300263D01*
X75822Y304277D01*
X75822Y308623D01*
X74159Y312637D01*
X71087Y315709D01*
X67073Y317372D01*
X62727Y317372D01*
X58713Y315709D01*
X55641Y312637D01*
X53978Y308623D01*
X53978Y304277D01*
X55641Y300263D01*
X58713Y297191D01*
X62727Y295528D01*
G37*
G36*
X37125Y294512D02*
X38738Y294512D01*
X38738Y305688D01*
X27562Y305688D01*
X27562Y304075D01*
X29379Y299688D01*
X32738Y296329D01*
X37125Y294512D01*
G37*
G36*
X40262Y294512D02*
X41875Y294512D01*
X46262Y296329D01*
X49621Y299688D01*
X51438Y304075D01*
X51438Y305688D01*
X40262Y305688D01*
X40262Y294512D01*
G37*
G36*
X510247Y282194D02*
X518453Y282194D01*
X524256Y287997D01*
X524256Y296203D01*
X518453Y302006D01*
X510247Y302006D01*
X504444Y296203D01*
X504444Y287997D01*
X510247Y282194D01*
G37*
G36*
X100827Y274578D02*
X105173Y274578D01*
X109187Y276241D01*
X112259Y279313D01*
X113922Y283327D01*
X113922Y287672D01*
X112259Y291687D01*
X109187Y294759D01*
X105173Y296422D01*
X100827Y296422D01*
X96813Y294759D01*
X93741Y291687D01*
X92078Y287672D01*
X92078Y283327D01*
X93741Y279313D01*
X96813Y276241D01*
X100827Y274578D01*
G37*
G36*
X180747Y275206D02*
X188953Y275206D01*
X194756Y281009D01*
X194756Y289215D01*
X188953Y295018D01*
X180747Y295018D01*
X174944Y289215D01*
X174944Y281009D01*
X180747Y275206D01*
G37*
G36*
X209347Y275044D02*
X217553Y275044D01*
X223356Y280847D01*
X223356Y289053D01*
X217553Y294856D01*
X209347Y294856D01*
X203544Y289053D01*
X203544Y280847D01*
X209347Y275044D01*
G37*
G36*
X150925Y282812D02*
X152538Y282812D01*
X152538Y293988D01*
X141362Y293988D01*
X141362Y292375D01*
X143179Y287988D01*
X146538Y284629D01*
X150925Y282812D01*
G37*
G36*
X154062Y282812D02*
X155675Y282812D01*
X160062Y284629D01*
X163421Y287988D01*
X165238Y292375D01*
X165238Y293988D01*
X154062Y293988D01*
X154062Y282812D01*
G37*
G36*
X37327Y270128D02*
X41673Y270128D01*
X45687Y271791D01*
X48759Y274863D01*
X50422Y278877D01*
X50422Y283223D01*
X48759Y287237D01*
X45687Y290309D01*
X41673Y291972D01*
X37327Y291972D01*
X33313Y290309D01*
X30241Y287237D01*
X28578Y283223D01*
X28578Y278877D01*
X30241Y274863D01*
X33313Y271791D01*
X37327Y270128D01*
G37*
G36*
X62727Y270128D02*
X67073Y270128D01*
X71087Y271791D01*
X74159Y274863D01*
X75822Y278877D01*
X75822Y283223D01*
X74159Y287237D01*
X71087Y290309D01*
X67073Y291972D01*
X62727Y291972D01*
X58713Y290309D01*
X55641Y287237D01*
X53978Y283223D01*
X53978Y278877D01*
X55641Y274863D01*
X58713Y271791D01*
X62727Y270128D01*
G37*
G36*
X151127Y258428D02*
X155473Y258428D01*
X159487Y260091D01*
X162559Y263163D01*
X164222Y267177D01*
X164222Y271523D01*
X162559Y275537D01*
X159487Y278609D01*
X155473Y280272D01*
X151127Y280272D01*
X147113Y278609D01*
X144041Y275537D01*
X142378Y271523D01*
X142378Y267177D01*
X144041Y263163D01*
X147113Y260091D01*
X151127Y258428D01*
G37*
G36*
X465896Y29536D02*
X469104Y29536D01*
X472068Y30764D01*
X474336Y33032D01*
X475564Y35996D01*
X475564Y39204D01*
X475024Y40508D01*
X474966Y40787D01*
X475022Y41085D01*
X475189Y41338D01*
X497144Y63293D01*
X497144Y196177D01*
X497200Y196463D01*
X497367Y196716D01*
X517144Y216493D01*
X517144Y256032D01*
X517195Y256307D01*
X517359Y256562D01*
X517609Y256734D01*
X517906Y256794D01*
X518453Y256794D01*
X524256Y262597D01*
X524256Y270803D01*
X518453Y276606D01*
X510247Y276606D01*
X504444Y270803D01*
X504444Y262597D01*
X510247Y256794D01*
X510794Y256794D01*
X511069Y256743D01*
X511324Y256579D01*
X511496Y256329D01*
X511556Y256032D01*
X511556Y219123D01*
X511500Y218837D01*
X511333Y218584D01*
X504489Y211740D01*
X504258Y211582D01*
X503962Y211517D01*
X503664Y211573D01*
X503411Y211740D01*
X485607Y229544D01*
X426340Y229544D01*
X426065Y229595D01*
X425810Y229759D01*
X425638Y230009D01*
X425626Y230069D01*
X420817Y234878D01*
X414083Y234878D01*
X409322Y230117D01*
X409322Y223383D01*
X414083Y218622D01*
X420817Y218622D01*
X425621Y223427D01*
X425629Y223469D01*
X425793Y223724D01*
X426043Y223896D01*
X426340Y223956D01*
X482977Y223956D01*
X483263Y223900D01*
X483516Y223733D01*
X499460Y207789D01*
X499618Y207558D01*
X499683Y207262D01*
X499627Y206964D01*
X499460Y206711D01*
X491556Y198807D01*
X491556Y65923D01*
X491500Y65637D01*
X491333Y65384D01*
X471238Y45289D01*
X471002Y45129D01*
X470705Y45066D01*
X470408Y45124D01*
X469104Y45664D01*
X465896Y45664D01*
X462932Y44436D01*
X460664Y42168D01*
X459436Y39204D01*
X459436Y35996D01*
X460664Y33032D01*
X462932Y30764D01*
X465896Y29536D01*
G37*
G36*
X100827Y249178D02*
X105173Y249178D01*
X109187Y250841D01*
X112259Y253913D01*
X113922Y257927D01*
X113922Y262272D01*
X112259Y266287D01*
X109187Y269359D01*
X105173Y271022D01*
X100827Y271022D01*
X96813Y269359D01*
X93741Y266287D01*
X92078Y262272D01*
X92078Y257927D01*
X93741Y253913D01*
X96813Y250841D01*
X100827Y249178D01*
G37*
G36*
X37327Y244728D02*
X41673Y244728D01*
X45687Y246391D01*
X48759Y249463D01*
X50422Y253477D01*
X50422Y257823D01*
X48759Y261837D01*
X45687Y264909D01*
X41673Y266572D01*
X37327Y266572D01*
X33313Y264909D01*
X30241Y261837D01*
X28578Y257823D01*
X28578Y253477D01*
X30241Y249463D01*
X33313Y246391D01*
X37327Y244728D01*
G37*
G36*
X62727Y244728D02*
X67073Y244728D01*
X71087Y246391D01*
X74159Y249463D01*
X75822Y253477D01*
X75822Y257823D01*
X74159Y261837D01*
X71087Y264909D01*
X67073Y266572D01*
X62727Y266572D01*
X58713Y264909D01*
X55641Y261837D01*
X53978Y257823D01*
X53978Y253477D01*
X55641Y249463D01*
X58713Y246391D01*
X62727Y244728D01*
G37*
G36*
X264055Y244021D02*
X267945Y244021D01*
X271539Y245510D01*
X274290Y248261D01*
X275779Y251855D01*
X275779Y255745D01*
X274290Y259339D01*
X271539Y262090D01*
X267945Y263579D01*
X264055Y263579D01*
X260461Y262090D01*
X257710Y259339D01*
X256221Y255745D01*
X256221Y251855D01*
X257710Y248261D01*
X260461Y245510D01*
X264055Y244021D01*
G37*
G36*
X151127Y233028D02*
X155473Y233028D01*
X159487Y234691D01*
X162559Y237763D01*
X164222Y241777D01*
X164222Y246123D01*
X162559Y250137D01*
X159487Y253209D01*
X155473Y254872D01*
X151127Y254872D01*
X147113Y253209D01*
X144041Y250137D01*
X142378Y246123D01*
X142378Y241777D01*
X144041Y237763D01*
X147113Y234691D01*
X151127Y233028D01*
G37*
G36*
X100827Y223778D02*
X105173Y223778D01*
X109187Y225441D01*
X112259Y228513D01*
X113922Y232527D01*
X113922Y236872D01*
X112259Y240887D01*
X109187Y243959D01*
X105173Y245622D01*
X100827Y245622D01*
X96813Y243959D01*
X93741Y240887D01*
X92078Y236872D01*
X92078Y232527D01*
X93741Y228513D01*
X96813Y225441D01*
X100827Y223778D01*
G37*
G36*
X52962Y231012D02*
X64138Y231012D01*
X64138Y242188D01*
X62525Y242188D01*
X58138Y240371D01*
X54779Y237012D01*
X52962Y232625D01*
X52962Y231012D01*
G37*
G36*
X65662Y231012D02*
X76838Y231012D01*
X76838Y232625D01*
X75021Y237012D01*
X71662Y240371D01*
X67275Y242188D01*
X65662Y242188D01*
X65662Y231012D01*
G37*
G36*
X37327Y219328D02*
X41673Y219328D01*
X45687Y220991D01*
X48759Y224063D01*
X50422Y228077D01*
X50422Y232423D01*
X48759Y236437D01*
X45687Y239509D01*
X41673Y241172D01*
X37327Y241172D01*
X33313Y239509D01*
X30241Y236437D01*
X28578Y232423D01*
X28578Y228077D01*
X30241Y224063D01*
X33313Y220991D01*
X37327Y219328D01*
G37*
G36*
X65662Y218312D02*
X67275Y218312D01*
X71662Y220129D01*
X75021Y223488D01*
X76838Y227875D01*
X76838Y229488D01*
X65662Y229488D01*
X65662Y218312D01*
G37*
G36*
X62525Y218312D02*
X64138Y218312D01*
X64138Y229488D01*
X52962Y229488D01*
X52962Y227875D01*
X54779Y223488D01*
X58138Y220129D01*
X62525Y218312D01*
G37*
G36*
X151127Y207628D02*
X155473Y207628D01*
X159487Y209291D01*
X162559Y212363D01*
X164222Y216377D01*
X164222Y220723D01*
X162559Y224737D01*
X159487Y227809D01*
X155473Y229472D01*
X151127Y229472D01*
X147113Y227809D01*
X144041Y224737D01*
X142378Y220723D01*
X142378Y216377D01*
X144041Y212363D01*
X147113Y209291D01*
X151127Y207628D01*
G37*
G36*
X100827Y198378D02*
X105173Y198378D01*
X109187Y200041D01*
X112259Y203113D01*
X113922Y207127D01*
X113922Y211472D01*
X112259Y215487D01*
X109187Y218559D01*
X105173Y220222D01*
X100827Y220222D01*
X96813Y218559D01*
X93741Y215487D01*
X92078Y211472D01*
X92078Y207127D01*
X93741Y203113D01*
X96813Y200041D01*
X100827Y198378D01*
G37*
G36*
X62727Y193928D02*
X67073Y193928D01*
X71087Y195591D01*
X74159Y198663D01*
X75822Y202677D01*
X75822Y207023D01*
X74159Y211037D01*
X71087Y214109D01*
X67073Y215772D01*
X62727Y215772D01*
X58713Y214109D01*
X55641Y211037D01*
X53978Y207023D01*
X53978Y202677D01*
X55641Y198663D01*
X58713Y195591D01*
X62727Y193928D01*
G37*
G36*
X37327Y193928D02*
X41673Y193928D01*
X45687Y195591D01*
X48759Y198663D01*
X50422Y202677D01*
X50422Y207023D01*
X48759Y211037D01*
X45687Y214109D01*
X41673Y215772D01*
X37327Y215772D01*
X33313Y214109D01*
X30241Y211037D01*
X28578Y207023D01*
X28578Y202677D01*
X30241Y198663D01*
X33313Y195591D01*
X37327Y193928D01*
G37*
G36*
X460329Y189536D02*
X474671Y189536D01*
X475564Y190429D01*
X475564Y204771D01*
X474671Y205664D01*
X460329Y205664D01*
X459436Y204771D01*
X459436Y190429D01*
X460329Y189536D01*
G37*
G36*
X151127Y182228D02*
X155473Y182228D01*
X159487Y183891D01*
X162559Y186963D01*
X164222Y190977D01*
X164222Y195323D01*
X162559Y199337D01*
X159487Y202409D01*
X155473Y204072D01*
X151127Y204072D01*
X147113Y202409D01*
X144041Y199337D01*
X142378Y195323D01*
X142378Y190977D01*
X144041Y186963D01*
X147113Y183891D01*
X151127Y182228D01*
G37*
G36*
X100827Y172978D02*
X105173Y172978D01*
X109187Y174641D01*
X112259Y177713D01*
X113922Y181727D01*
X113922Y186072D01*
X112259Y190087D01*
X109187Y193159D01*
X105173Y194822D01*
X100827Y194822D01*
X96813Y193159D01*
X93741Y190087D01*
X92078Y186072D01*
X92078Y181727D01*
X93741Y177713D01*
X96813Y174641D01*
X100827Y172978D01*
G37*
G36*
X173928Y184274D02*
X184088Y184274D01*
X184088Y194434D01*
X180326Y194434D01*
X173928Y188036D01*
X173928Y184274D01*
G37*
G36*
X185612Y184274D02*
X195772Y184274D01*
X195772Y188036D01*
X189374Y194434D01*
X185612Y194434D01*
X185612Y184274D01*
G37*
G36*
X202528Y184112D02*
X212688Y184112D01*
X212688Y194272D01*
X208926Y194272D01*
X202528Y187874D01*
X202528Y184112D01*
G37*
G36*
X214212Y184112D02*
X224372Y184112D01*
X224372Y187874D01*
X217974Y194272D01*
X214212Y194272D01*
X214212Y184112D01*
G37*
G36*
X27562Y180212D02*
X38738Y180212D01*
X38738Y191388D01*
X37125Y191388D01*
X32738Y189571D01*
X29379Y186212D01*
X27562Y181825D01*
X27562Y180212D01*
G37*
G36*
X40262Y180212D02*
X51438Y180212D01*
X51438Y181825D01*
X49621Y186212D01*
X46262Y189571D01*
X41875Y191388D01*
X40262Y191388D01*
X40262Y180212D01*
G37*
G36*
X62727Y168528D02*
X67073Y168528D01*
X71087Y170191D01*
X74159Y173263D01*
X75822Y177277D01*
X75822Y181623D01*
X74159Y185637D01*
X71087Y188709D01*
X67073Y190372D01*
X62727Y190372D01*
X58713Y188709D01*
X55641Y185637D01*
X53978Y181623D01*
X53978Y177277D01*
X55641Y173263D01*
X58713Y170191D01*
X62727Y168528D01*
G37*
G36*
X465896Y169536D02*
X469104Y169536D01*
X472068Y170764D01*
X474336Y173032D01*
X475564Y175996D01*
X475564Y179204D01*
X474336Y182168D01*
X472068Y184436D01*
X469104Y185664D01*
X465896Y185664D01*
X462932Y184436D01*
X460664Y182168D01*
X459436Y179204D01*
X459436Y175996D01*
X460664Y173032D01*
X462932Y170764D01*
X465896Y169536D01*
G37*
G36*
X418212Y176712D02*
X426594Y176712D01*
X426594Y179738D01*
X421238Y185094D01*
X418212Y185094D01*
X418212Y176712D01*
G37*
G36*
X408306Y176712D02*
X416688Y176712D01*
X416688Y185094D01*
X413662Y185094D01*
X408306Y179738D01*
X408306Y176712D01*
G37*
G36*
X180326Y172590D02*
X184088Y172590D01*
X184088Y182750D01*
X173928Y182750D01*
X173928Y178988D01*
X180326Y172590D01*
G37*
G36*
X185612Y172590D02*
X189374Y172590D01*
X195772Y178988D01*
X195772Y182750D01*
X185612Y182750D01*
X185612Y172590D01*
G37*
G36*
X208926Y172428D02*
X212688Y172428D01*
X212688Y182588D01*
X202528Y182588D01*
X202528Y178826D01*
X208926Y172428D01*
G37*
G36*
X214212Y172428D02*
X217974Y172428D01*
X224372Y178826D01*
X224372Y182588D01*
X214212Y182588D01*
X214212Y172428D01*
G37*
G36*
X37125Y167512D02*
X38738Y167512D01*
X38738Y178688D01*
X27562Y178688D01*
X27562Y177075D01*
X29379Y172688D01*
X32738Y169329D01*
X37125Y167512D01*
G37*
G36*
X40262Y167512D02*
X41875Y167512D01*
X46262Y169329D01*
X49621Y172688D01*
X51438Y177075D01*
X51438Y178688D01*
X40262Y178688D01*
X40262Y167512D01*
G37*
G36*
X151127Y156828D02*
X155473Y156828D01*
X159487Y158491D01*
X162559Y161563D01*
X164222Y165577D01*
X164222Y169923D01*
X162559Y173937D01*
X159487Y177009D01*
X155473Y178672D01*
X151127Y178672D01*
X147113Y177009D01*
X144041Y173937D01*
X142378Y169923D01*
X142378Y165577D01*
X144041Y161563D01*
X147113Y158491D01*
X151127Y156828D01*
G37*
G36*
X418212Y166806D02*
X421238Y166806D01*
X426594Y172162D01*
X426594Y175188D01*
X418212Y175188D01*
X418212Y166806D01*
G37*
G36*
X413662Y166806D02*
X416688Y166806D01*
X416688Y175188D01*
X408306Y175188D01*
X408306Y172162D01*
X413662Y166806D01*
G37*
G36*
X350762Y160555D02*
X352147Y160555D01*
X356115Y162198D01*
X359152Y165235D01*
X360795Y169203D01*
X360795Y170588D01*
X350762Y170588D01*
X350762Y160555D01*
G37*
G36*
X347853Y160555D02*
X349238Y160555D01*
X349238Y170588D01*
X339205Y170588D01*
X339205Y169203D01*
X340848Y165235D01*
X343885Y162198D01*
X347853Y160555D01*
G37*
G36*
X100827Y147578D02*
X105173Y147578D01*
X109187Y149241D01*
X112259Y152313D01*
X113922Y156327D01*
X113922Y160672D01*
X112259Y164687D01*
X109187Y167759D01*
X105173Y169422D01*
X100827Y169422D01*
X96813Y167759D01*
X93741Y164687D01*
X92078Y160672D01*
X92078Y156327D01*
X93741Y152313D01*
X96813Y149241D01*
X100827Y147578D01*
G37*
G36*
X415369Y103373D02*
X419715Y103373D01*
X423729Y105035D01*
X426801Y108108D01*
X428464Y112122D01*
X428464Y116467D01*
X426801Y120481D01*
X423729Y123554D01*
X419715Y125217D01*
X419045Y125217D01*
X418759Y125272D01*
X418506Y125440D01*
X416474Y127472D01*
X416321Y127691D01*
X416251Y127986D01*
X416302Y128285D01*
X416465Y128541D01*
X416716Y128712D01*
X417013Y128773D01*
X419715Y128773D01*
X423729Y130435D01*
X426606Y133313D01*
X426848Y133476D01*
X427145Y133536D01*
X459946Y133536D01*
X460226Y133483D01*
X460480Y133317D01*
X460650Y133066D01*
X460664Y133032D01*
X462932Y130764D01*
X465896Y129536D01*
X469104Y129536D01*
X472068Y130764D01*
X474336Y133032D01*
X475564Y135996D01*
X475564Y139204D01*
X474336Y142168D01*
X472068Y144436D01*
X469104Y145664D01*
X465896Y145664D01*
X462932Y144436D01*
X460664Y142168D01*
X460650Y142134D01*
X460493Y141896D01*
X460243Y141724D01*
X459946Y141664D01*
X429057Y141664D01*
X428777Y141717D01*
X428523Y141883D01*
X428353Y142134D01*
X426801Y145881D01*
X423729Y148954D01*
X419715Y150617D01*
X417013Y150617D01*
X416750Y150664D01*
X416491Y150823D01*
X416316Y151070D01*
X416251Y151366D01*
X416307Y151665D01*
X416474Y151917D01*
X417869Y153313D01*
X418111Y153476D01*
X418408Y153536D01*
X459946Y153536D01*
X460226Y153483D01*
X460480Y153317D01*
X460650Y153066D01*
X460664Y153032D01*
X462932Y150764D01*
X465896Y149536D01*
X469104Y149536D01*
X472068Y150764D01*
X474336Y153032D01*
X475564Y155996D01*
X475564Y159204D01*
X474336Y162168D01*
X472068Y164436D01*
X469104Y165664D01*
X465896Y165664D01*
X462932Y164436D01*
X460664Y162168D01*
X460650Y162134D01*
X460493Y161896D01*
X460243Y161724D01*
X459946Y161664D01*
X414726Y161664D01*
X400016Y146954D01*
X400016Y132435D01*
X409587Y122864D01*
X409745Y122633D01*
X409810Y122337D01*
X409755Y122039D01*
X409587Y121786D01*
X408283Y120481D01*
X406620Y116467D01*
X406620Y112122D01*
X408283Y108108D01*
X411355Y105035D01*
X415369Y103373D01*
G37*
G36*
X62727Y143128D02*
X67073Y143128D01*
X71087Y144791D01*
X74159Y147863D01*
X75822Y151877D01*
X75822Y156223D01*
X74159Y160237D01*
X71087Y163309D01*
X67073Y164972D01*
X62727Y164972D01*
X58713Y163309D01*
X55641Y160237D01*
X53978Y156223D01*
X53978Y151877D01*
X55641Y147863D01*
X58713Y144791D01*
X62727Y143128D01*
G37*
G36*
X37327Y143128D02*
X41673Y143128D01*
X45687Y144791D01*
X48759Y147863D01*
X50422Y151877D01*
X50422Y156223D01*
X48759Y160237D01*
X45687Y163309D01*
X41673Y164972D01*
X37327Y164972D01*
X33313Y163309D01*
X30241Y160237D01*
X28578Y156223D01*
X28578Y151877D01*
X30241Y147863D01*
X33313Y144791D01*
X37327Y143128D01*
G37*
G36*
X111486Y64746D02*
X184864Y64746D01*
X187291Y65751D01*
X265337Y143798D01*
X265579Y143961D01*
X265876Y144021D01*
X267945Y144021D01*
X271539Y145510D01*
X274290Y148261D01*
X275779Y151855D01*
X275779Y155745D01*
X274290Y159339D01*
X271539Y162090D01*
X267945Y163579D01*
X264055Y163579D01*
X260461Y162090D01*
X257710Y159339D01*
X256221Y155745D01*
X256221Y153676D01*
X256165Y153390D01*
X255998Y153137D01*
X181038Y78177D01*
X180796Y78014D01*
X180499Y77954D01*
X115851Y77954D01*
X115565Y78010D01*
X115312Y78177D01*
X110751Y82738D01*
X110588Y82980D01*
X110528Y83277D01*
X110528Y85117D01*
X105767Y89878D01*
X99033Y89878D01*
X94272Y85117D01*
X94272Y78383D01*
X99033Y73622D01*
X100873Y73622D01*
X101159Y73566D01*
X101412Y73399D01*
X109059Y65751D01*
X111486Y64746D01*
G37*
G36*
X151127Y131428D02*
X155473Y131428D01*
X159487Y133091D01*
X162559Y136163D01*
X164222Y140177D01*
X164222Y144523D01*
X162559Y148537D01*
X159487Y151609D01*
X155473Y153272D01*
X151127Y153272D01*
X147113Y151609D01*
X144041Y148537D01*
X142378Y144523D01*
X142378Y140177D01*
X144041Y136163D01*
X147113Y133091D01*
X151127Y131428D01*
G37*
G36*
X91062Y133862D02*
X102238Y133862D01*
X102238Y145038D01*
X100625Y145038D01*
X96238Y143220D01*
X92879Y139862D01*
X91062Y135475D01*
X91062Y133862D01*
G37*
G36*
X103762Y133862D02*
X114938Y133862D01*
X114938Y135475D01*
X113121Y139862D01*
X109762Y143220D01*
X105375Y145038D01*
X103762Y145038D01*
X103762Y133862D01*
G37*
G36*
X27562Y129412D02*
X38738Y129412D01*
X38738Y140588D01*
X37125Y140588D01*
X32738Y138771D01*
X29379Y135412D01*
X27562Y131025D01*
X27562Y129412D01*
G37*
G36*
X40262Y129412D02*
X51438Y129412D01*
X51438Y131025D01*
X49621Y135412D01*
X46262Y138771D01*
X41875Y140588D01*
X40262Y140588D01*
X40262Y129412D01*
G37*
G36*
X62727Y117728D02*
X67073Y117728D01*
X71087Y119391D01*
X74159Y122463D01*
X75822Y126477D01*
X75822Y130823D01*
X74159Y134837D01*
X71087Y137909D01*
X67073Y139572D01*
X62727Y139572D01*
X58713Y137909D01*
X55641Y134837D01*
X53978Y130823D01*
X53978Y126477D01*
X55641Y122463D01*
X58713Y119391D01*
X62727Y117728D01*
G37*
G36*
X100625Y121162D02*
X102238Y121162D01*
X102238Y132338D01*
X91062Y132338D01*
X91062Y130725D01*
X92879Y126338D01*
X96238Y122979D01*
X100625Y121162D01*
G37*
G36*
X103762Y121162D02*
X105375Y121162D01*
X109762Y122979D01*
X113121Y126338D01*
X114938Y130725D01*
X114938Y132338D01*
X103762Y132338D01*
X103762Y121162D01*
G37*
G36*
X37125Y116712D02*
X38738Y116712D01*
X38738Y127888D01*
X27562Y127888D01*
X27562Y126275D01*
X29379Y121888D01*
X32738Y118529D01*
X37125Y116712D01*
G37*
G36*
X40262Y116712D02*
X41875Y116712D01*
X46262Y118529D01*
X49621Y121888D01*
X51438Y126275D01*
X51438Y127888D01*
X40262Y127888D01*
X40262Y116712D01*
G37*
G36*
X151127Y106028D02*
X155473Y106028D01*
X159487Y107691D01*
X162559Y110763D01*
X164222Y114777D01*
X164222Y119123D01*
X162559Y123137D01*
X159487Y126209D01*
X155473Y127872D01*
X151127Y127872D01*
X147113Y126209D01*
X144041Y123137D01*
X142378Y119123D01*
X142378Y114777D01*
X144041Y110763D01*
X147113Y107691D01*
X151127Y106028D01*
G37*
G36*
X458420Y118362D02*
X466738Y118362D01*
X466738Y126680D01*
X465694Y126680D01*
X462357Y125298D01*
X459802Y122743D01*
X458420Y119406D01*
X458420Y118362D01*
G37*
G36*
X468262Y118362D02*
X476580Y118362D01*
X476580Y119406D01*
X475198Y122743D01*
X472643Y125298D01*
X469306Y126680D01*
X468262Y126680D01*
X468262Y118362D01*
G37*
G36*
X100827Y96778D02*
X105173Y96778D01*
X109187Y98441D01*
X112259Y101513D01*
X113922Y105527D01*
X113922Y109872D01*
X112259Y113887D01*
X109187Y116959D01*
X105173Y118622D01*
X100827Y118622D01*
X96813Y116959D01*
X93741Y113887D01*
X92078Y109872D01*
X92078Y105527D01*
X93741Y101513D01*
X96813Y98441D01*
X100827Y96778D01*
G37*
G36*
X468262Y108520D02*
X469306Y108520D01*
X472643Y109902D01*
X475198Y112457D01*
X476580Y115794D01*
X476580Y116838D01*
X468262Y116838D01*
X468262Y108520D01*
G37*
G36*
X465694Y108520D02*
X466738Y108520D01*
X466738Y116838D01*
X458420Y116838D01*
X458420Y115794D01*
X459802Y112457D01*
X462357Y109902D01*
X465694Y108520D01*
G37*
G36*
X62727Y92328D02*
X67073Y92328D01*
X71087Y93991D01*
X74159Y97063D01*
X75822Y101077D01*
X75822Y105423D01*
X74159Y109437D01*
X71087Y112509D01*
X67073Y114172D01*
X62727Y114172D01*
X58713Y112509D01*
X55641Y109437D01*
X53978Y105423D01*
X53978Y101077D01*
X55641Y97063D01*
X58713Y93991D01*
X62727Y92328D01*
G37*
G36*
X37327Y92328D02*
X41673Y92328D01*
X45687Y93991D01*
X48759Y97063D01*
X50422Y101077D01*
X50422Y105423D01*
X48759Y109437D01*
X45687Y112509D01*
X41673Y114172D01*
X37327Y114172D01*
X33313Y112509D01*
X30241Y109437D01*
X28578Y105423D01*
X28578Y101077D01*
X30241Y97063D01*
X33313Y93991D01*
X37327Y92328D01*
G37*
G36*
X364306Y105712D02*
X372688Y105712D01*
X372688Y114094D01*
X369662Y114094D01*
X364306Y108738D01*
X364306Y105712D01*
G37*
G36*
X374212Y105712D02*
X382594Y105712D01*
X382594Y108738D01*
X377238Y114094D01*
X374212Y114094D01*
X374212Y105712D01*
G37*
G36*
X319283Y96822D02*
X326017Y96822D01*
X330778Y101583D01*
X330778Y108317D01*
X326017Y113078D01*
X319283Y113078D01*
X314522Y108317D01*
X314522Y101583D01*
X319283Y96822D01*
G37*
G36*
X465896Y89536D02*
X469104Y89536D01*
X472068Y90764D01*
X474336Y93032D01*
X475564Y95996D01*
X475564Y99204D01*
X474336Y102168D01*
X472068Y104436D01*
X469104Y105664D01*
X465896Y105664D01*
X462932Y104436D01*
X460664Y102168D01*
X459436Y99204D01*
X459436Y95996D01*
X460664Y93032D01*
X462932Y90764D01*
X465896Y89536D01*
G37*
G36*
X369662Y95806D02*
X372688Y95806D01*
X372688Y104188D01*
X364306Y104188D01*
X364306Y101162D01*
X369662Y95806D01*
G37*
G36*
X374212Y95806D02*
X377238Y95806D01*
X382594Y101162D01*
X382594Y104188D01*
X374212Y104188D01*
X374212Y95806D01*
G37*
G36*
X151127Y80628D02*
X155473Y80628D01*
X159487Y82291D01*
X162559Y85363D01*
X164222Y89377D01*
X164222Y93723D01*
X162559Y97737D01*
X159487Y100809D01*
X155473Y102472D01*
X151127Y102472D01*
X147113Y100809D01*
X144041Y97737D01*
X142378Y93723D01*
X142378Y89377D01*
X144041Y85363D01*
X147113Y82291D01*
X151127Y80628D01*
G37*
G36*
X37327Y66928D02*
X41673Y66928D01*
X45687Y68591D01*
X48759Y71663D01*
X50422Y75677D01*
X50422Y80023D01*
X48759Y84037D01*
X45687Y87109D01*
X41673Y88772D01*
X37327Y88772D01*
X33313Y87109D01*
X30241Y84037D01*
X28578Y80023D01*
X28578Y75677D01*
X30241Y71663D01*
X33313Y68591D01*
X37327Y66928D01*
G37*
G36*
X62727Y66928D02*
X67073Y66928D01*
X71087Y68591D01*
X74159Y71663D01*
X75822Y75677D01*
X75822Y80023D01*
X74159Y84037D01*
X71087Y87109D01*
X67073Y88772D01*
X62727Y88772D01*
X58713Y87109D01*
X55641Y84037D01*
X53978Y80023D01*
X53978Y75677D01*
X55641Y71663D01*
X58713Y68591D01*
X62727Y66928D01*
G37*
G36*
X511577Y65328D02*
X515923Y65328D01*
X519937Y66991D01*
X523009Y70063D01*
X524672Y74077D01*
X524672Y78423D01*
X523009Y82437D01*
X519937Y85509D01*
X515923Y87172D01*
X511577Y87172D01*
X507563Y85509D01*
X504491Y82437D01*
X502828Y78423D01*
X502828Y74077D01*
X504491Y70063D01*
X507563Y66991D01*
X511577Y65328D01*
G37*
G36*
X465896Y69536D02*
X469104Y69536D01*
X472068Y70764D01*
X474336Y73032D01*
X475564Y75996D01*
X475564Y79204D01*
X474336Y82168D01*
X472068Y84436D01*
X469104Y85664D01*
X465896Y85664D01*
X462932Y84436D01*
X460664Y82168D01*
X459436Y79204D01*
X459436Y75996D01*
X460664Y73032D01*
X462932Y70764D01*
X465896Y69536D01*
G37*
G36*
X458420Y58362D02*
X466738Y58362D01*
X466738Y66680D01*
X465694Y66680D01*
X462357Y65298D01*
X459802Y62743D01*
X458420Y59406D01*
X458420Y58362D01*
G37*
G36*
X468262Y58362D02*
X476580Y58362D01*
X476580Y59406D01*
X475198Y62743D01*
X472643Y65298D01*
X469306Y66680D01*
X468262Y66680D01*
X468262Y58362D01*
G37*
G36*
X52962Y53212D02*
X64138Y53212D01*
X64138Y64388D01*
X62525Y64388D01*
X58138Y62571D01*
X54779Y59212D01*
X52962Y54825D01*
X52962Y53212D01*
G37*
G36*
X65662Y53212D02*
X76838Y53212D01*
X76838Y54825D01*
X75021Y59212D01*
X71662Y62571D01*
X67275Y64388D01*
X65662Y64388D01*
X65662Y53212D01*
G37*
G36*
X37327Y41528D02*
X41673Y41528D01*
X45687Y43191D01*
X48759Y46263D01*
X50422Y50277D01*
X50422Y54623D01*
X48759Y58637D01*
X45687Y61709D01*
X41673Y63372D01*
X37327Y63372D01*
X33313Y61709D01*
X30241Y58637D01*
X28578Y54623D01*
X28578Y50277D01*
X30241Y46263D01*
X33313Y43191D01*
X37327Y41528D01*
G37*
G36*
X514512Y51612D02*
X525688Y51612D01*
X525688Y53225D01*
X523871Y57612D01*
X520512Y60971D01*
X516125Y62788D01*
X514512Y62788D01*
X514512Y51612D01*
G37*
G36*
X501812Y51612D02*
X512988Y51612D01*
X512988Y62788D01*
X511375Y62788D01*
X506988Y60971D01*
X503629Y57612D01*
X501812Y53225D01*
X501812Y51612D01*
G37*
G36*
X465694Y48520D02*
X466738Y48520D01*
X466738Y56838D01*
X458420Y56838D01*
X458420Y55794D01*
X459802Y52457D01*
X462357Y49902D01*
X465694Y48520D01*
G37*
G36*
X468262Y48520D02*
X469306Y48520D01*
X472643Y49902D01*
X475198Y52457D01*
X476580Y55794D01*
X476580Y56838D01*
X468262Y56838D01*
X468262Y48520D01*
G37*
G36*
X65662Y40512D02*
X67275Y40512D01*
X71662Y42329D01*
X75021Y45688D01*
X76838Y50075D01*
X76838Y51688D01*
X65662Y51688D01*
X65662Y40512D01*
G37*
G36*
X62525Y40512D02*
X64138Y40512D01*
X64138Y51688D01*
X52962Y51688D01*
X52962Y50075D01*
X54779Y45688D01*
X58138Y42329D01*
X62525Y40512D01*
G37*
G36*
X514512Y38912D02*
X516125Y38912D01*
X520512Y40729D01*
X523871Y44088D01*
X525688Y48475D01*
X525688Y50088D01*
X514512Y50088D01*
X514512Y38912D01*
G37*
G36*
X511375Y38912D02*
X512988Y38912D01*
X512988Y50088D01*
X501812Y50088D01*
X501812Y48475D01*
X503629Y44088D01*
X506988Y40729D01*
X511375Y38912D01*
G37*
G36*
X93256Y31712D02*
X101638Y31712D01*
X101638Y40094D01*
X98612Y40094D01*
X93256Y34738D01*
X93256Y31712D01*
G37*
G36*
X103162Y31712D02*
X111544Y31712D01*
X111544Y34738D01*
X106188Y40094D01*
X103162Y40094D01*
X103162Y31712D01*
G37*
G36*
X103162Y21806D02*
X106188Y21806D01*
X111544Y27162D01*
X111544Y30188D01*
X103162Y30188D01*
X103162Y21806D01*
G37*
G36*
X98612Y21806D02*
X101638Y21806D01*
X101638Y30188D01*
X93256Y30188D01*
X93256Y27162D01*
X98612Y21806D01*
G37*
G36*
X580250Y-35764D02*
X588550Y-35764D01*
X596568Y-33616D01*
X603756Y-29465D01*
X609625Y-23596D01*
X613776Y-16408D01*
X615924Y-8390D01*
X615924Y-90D01*
X613776Y7928D01*
X609625Y15116D01*
X603756Y20985D01*
X596568Y25136D01*
X588550Y27284D01*
X580250Y27284D01*
X572232Y25136D01*
X565044Y20985D01*
X559175Y15116D01*
X555024Y7928D01*
X552876Y-90D01*
X552876Y-8390D01*
X555024Y-16408D01*
X559175Y-23596D01*
X565044Y-29465D01*
X572232Y-33616D01*
X580250Y-35764D01*
G37*
G36*
X468262Y18362D02*
X476580Y18362D01*
X476580Y19406D01*
X475198Y22743D01*
X472643Y25298D01*
X469306Y26680D01*
X468262Y26680D01*
X468262Y18362D01*
G37*
G36*
X458420Y18362D02*
X466738Y18362D01*
X466738Y26680D01*
X465694Y26680D01*
X462357Y25298D01*
X459802Y22743D01*
X458420Y19406D01*
X458420Y18362D01*
G37*
G36*
X46250Y-36524D02*
X54550Y-36524D01*
X62568Y-34376D01*
X69756Y-30225D01*
X75625Y-24356D01*
X79776Y-17168D01*
X81924Y-9150D01*
X81924Y-850D01*
X79776Y7168D01*
X75625Y14356D01*
X69756Y20225D01*
X62568Y24376D01*
X54550Y26524D01*
X46250Y26524D01*
X38232Y24376D01*
X31044Y20225D01*
X25175Y14356D01*
X21024Y7168D01*
X18876Y-850D01*
X18876Y-9150D01*
X21024Y-17168D01*
X25175Y-24356D01*
X31044Y-30225D01*
X38232Y-34376D01*
X46250Y-36524D01*
G37*
G36*
X465694Y8520D02*
X466738Y8520D01*
X466738Y16838D01*
X458420Y16838D01*
X458420Y15794D01*
X459802Y12457D01*
X462357Y9902D01*
X465694Y8520D01*
G37*
G36*
X468262Y8520D02*
X469306Y8520D01*
X472643Y9902D01*
X475198Y12457D01*
X476580Y15794D01*
X476580Y16838D01*
X468262Y16838D01*
X468262Y8520D01*
G37*
G36*
X378524Y-16146D02*
X383476Y-16146D01*
X388050Y-14251D01*
X391551Y-10750D01*
X393446Y-6176D01*
X393446Y-1224D01*
X391551Y3350D01*
X388050Y6851D01*
X383476Y8746D01*
X378524Y8746D01*
X373950Y6851D01*
X370449Y3350D01*
X368554Y-1224D01*
X368554Y-6176D01*
X370449Y-10750D01*
X373950Y-14251D01*
X378524Y-16146D01*
G37*
%LPD*%
D10*
X153300Y91550D03*
X153300Y116950D03*
X153300Y142350D03*
X153300Y167750D03*
X153300Y193150D03*
X153300Y218550D03*
X153300Y243950D03*
X153300Y269350D03*
X153300Y294750D03*
X153300Y320150D03*
D11*
X417450Y226750D03*
X417450Y175950D03*
D12*
X322650Y104950D03*
X373450Y104950D03*
D10*
X103000Y439800D03*
X103000Y414400D03*
X103000Y389000D03*
X103000Y363600D03*
X103000Y338200D03*
X103000Y285500D03*
X103000Y260100D03*
X103000Y234700D03*
X103000Y209300D03*
X103000Y183900D03*
X103000Y158500D03*
X103000Y133100D03*
X103000Y107700D03*
D13*
X381000Y-3700D03*
X356000Y46300D03*
X331000Y46300D03*
X406000Y46300D03*
X431000Y46300D03*
D14*
X514350Y292100D03*
X412750Y292100D03*
D15*
X214250Y320550D03*
X214250Y422150D03*
D14*
X514350Y266700D03*
X412750Y266700D03*
D16*
X184850Y285112D03*
X184850Y183512D03*
D15*
X187050Y320988D03*
X187050Y422588D03*
D16*
X213450Y284950D03*
X213450Y183350D03*
D10*
X417542Y114295D03*
X417542Y139695D03*
X170492Y621642D03*
X145092Y621642D03*
X119692Y621642D03*
X181300Y511600D03*
X206700Y511600D03*
X232100Y511600D03*
X257500Y511600D03*
X402350Y366200D03*
X402350Y391600D03*
X402350Y417000D03*
X402350Y442400D03*
X402350Y467800D03*
X402350Y493200D03*
X402350Y518600D03*
X402350Y544000D03*
X402350Y569400D03*
X39500Y535050D03*
X39500Y509650D03*
X39500Y484250D03*
X39500Y458850D03*
X39500Y433450D03*
X39500Y408050D03*
X39500Y382650D03*
X39500Y357250D03*
X39500Y331850D03*
X39500Y306450D03*
X39500Y281050D03*
X39500Y255650D03*
X39500Y230250D03*
X64900Y230250D03*
X64900Y255650D03*
X64900Y281050D03*
X64900Y306450D03*
X64900Y331850D03*
X64900Y357250D03*
X64900Y382650D03*
X64900Y408050D03*
X64900Y433450D03*
X64900Y458850D03*
X64900Y484250D03*
X64900Y509650D03*
X64900Y535050D03*
X39500Y204850D03*
X64900Y204850D03*
X39500Y179450D03*
X64900Y179450D03*
X39500Y154050D03*
X64900Y154050D03*
X39500Y128650D03*
X64900Y128650D03*
X39500Y103250D03*
X64900Y103250D03*
X39500Y77850D03*
X64900Y77850D03*
X39500Y52450D03*
X64900Y52450D03*
D11*
X442000Y546000D03*
X442000Y495200D03*
X102400Y81750D03*
X102400Y30950D03*
D12*
X104350Y536650D03*
X155150Y536650D03*
D17*
X350000Y171350D03*
D18*
X350000Y196350D03*
D17*
X142200Y489600D03*
D18*
X117200Y489600D03*
D17*
X319500Y517800D03*
D18*
X319500Y542800D03*
D10*
X513750Y50850D03*
X513750Y76250D03*
D19*
X467500Y197600D03*
D20*
X467500Y177600D03*
X467500Y157600D03*
X467500Y137600D03*
X467500Y117600D03*
X467500Y97600D03*
X467500Y77600D03*
X467500Y57600D03*
X467500Y37600D03*
X467500Y17600D03*
D10*
X213000Y590000D03*
X238400Y590000D03*
X263800Y590000D03*
X289200Y590000D03*
D17*
X266000Y153800D03*
X266000Y253800D03*
D21*
X583400Y596640D03*
X584400Y-4240D03*
X50400Y-5000D03*
X51200Y597400D03*
D22*
X71250Y389000D02*
X64900Y382650D01*
X71250Y389000D02*
X103000Y389000D01*
D23*
X103000Y439800D02*
X133100Y469900D01*
X177800Y469900D01*
X206700Y498800D01*
X206700Y511600D01*
X103000Y439800D02*
X81664Y461136D01*
X81664Y540916D01*
X71528Y551052D01*
X47052Y551052D01*
X39500Y543500D01*
X39500Y535050D01*
X266000Y153800D02*
X183550Y71350D01*
X112800Y71350D01*
X102400Y81750D01*
D24*
X146050Y438150D03*
D25*
X146050Y327400D01*
X153300Y320150D01*
D24*
X103000Y312800D03*
X349400Y329800D03*
D22*
X130208Y312800D02*
X103000Y312800D01*
X130208Y312800D02*
X135866Y307142D01*
X158150Y307142D02*
X165318Y299974D01*
X158150Y307142D02*
X135866Y307142D01*
X244305Y329800D02*
X349400Y329800D01*
X244305Y329800D02*
X214479Y299974D01*
X165318Y299974D01*
X361000Y183000D02*
X377952Y199952D01*
X334000Y151000D02*
X344000Y141000D01*
X344000Y59300D01*
X331000Y46300D01*
X402350Y408842D02*
X402350Y417000D01*
X402350Y408842D02*
X390158Y396650D01*
X390158Y339358D01*
X361000Y183000D02*
X341000Y183000D01*
X334000Y176000D01*
X334000Y151000D01*
X377952Y199952D02*
X377952Y327152D01*
X390158Y339358D01*
D23*
X438600Y329400D02*
X438600Y253000D01*
D24*
X438600Y253000D03*
D23*
X402350Y388830D02*
X402350Y391600D01*
X418352Y349648D02*
X438600Y329400D01*
X418352Y372828D02*
X402350Y388830D01*
X418352Y372828D02*
X418352Y349648D01*
D22*
X402350Y320150D02*
X424750Y297750D01*
X402350Y320150D02*
X402350Y366200D01*
D24*
X391172Y196628D03*
D22*
X391452Y221057D02*
X391452Y228843D01*
X424750Y262141D02*
X424750Y297750D01*
X424750Y262141D02*
X391452Y228843D01*
X391172Y221338D02*
X391452Y221057D01*
X391172Y221338D02*
X391172Y196628D01*
D26*
X416409Y157600D02*
X467500Y157600D01*
X404080Y145271D02*
X404080Y134118D01*
X417542Y120656D02*
X417542Y114295D01*
X417542Y120656D02*
X404080Y134118D01*
X404080Y145271D02*
X416409Y157600D01*
X419637Y137600D02*
X467500Y137600D01*
X419637Y137600D02*
X417542Y139695D01*
D22*
X494350Y197650D02*
X494350Y64450D01*
X467500Y37600D01*
X494350Y197650D02*
X503950Y207250D01*
X514350Y217650D01*
X514350Y266700D01*
X484450Y226750D02*
X417450Y226750D01*
X484450Y226750D02*
X503950Y207250D01*
D23*
X257500Y444500D02*
X203200Y444500D01*
X187050Y428350D01*
X187050Y422588D01*
X257500Y444500D02*
X257500Y511600D01*
D22*
X145752Y620982D02*
X145092Y621642D01*
X145752Y620982D02*
X145752Y532757D01*
X166909Y511600D02*
X181300Y511600D01*
X166909Y511600D02*
X145752Y532757D01*
M02*
