G04 EAGLE Gerber RS-274X export*
G75*
%MOMM*%
%FSLAX34Y34*%
%LPD*%
%INTop Copper*%
%IPPOS*%
%AMOC8*
5,1,8,0,0,1.08239X$1,22.5*%
G01*
G04 Define Apertures*
%ADD10C,1.879600*%
%ADD11P,1.42962X8X292.5*%
%ADD12P,1.42962X8X22.5*%
%ADD13C,2.184400*%
%ADD14P,1.81452X8X202.5*%
%ADD15P,1.81452X8X112.5*%
%ADD16P,1.81452X8X292.5*%
%ADD17C,1.651000*%
%ADD18R,1.651000X1.651000*%
%ADD19R,1.308000X1.308000*%
%ADD20C,1.308000*%
%ADD21C,6.000000*%
%ADD22C,1.000000*%
%ADD23C,0.254000*%
%ADD24C,1.016000*%
%ADD25C,0.756400*%
D10*
X153300Y91550D03*
X153300Y116950D03*
X153300Y142350D03*
X153300Y167750D03*
X153300Y193150D03*
X153300Y218550D03*
X153300Y243950D03*
X153300Y269350D03*
X153300Y294750D03*
X153300Y320150D03*
D11*
X417450Y226750D03*
X417450Y175950D03*
D12*
X322650Y104950D03*
X373450Y104950D03*
D10*
X103000Y439800D03*
X103000Y414400D03*
X103000Y389000D03*
X103000Y363600D03*
X103000Y338200D03*
X103000Y285500D03*
X103000Y260100D03*
X103000Y234700D03*
X103000Y209300D03*
X103000Y183900D03*
X103000Y158500D03*
X103000Y133100D03*
X103000Y107700D03*
D13*
X381000Y-3700D03*
X356000Y46300D03*
X331000Y46300D03*
X406000Y46300D03*
X431000Y46300D03*
D14*
X514350Y292100D03*
X412750Y292100D03*
D15*
X214250Y320550D03*
X214250Y422150D03*
D14*
X514350Y266700D03*
X412750Y266700D03*
D16*
X184850Y285112D03*
X184850Y183512D03*
D15*
X187050Y320988D03*
X187050Y422588D03*
D16*
X213450Y284950D03*
X213450Y183350D03*
D10*
X417542Y114295D03*
X417542Y139695D03*
X170492Y621642D03*
X145092Y621642D03*
X119692Y621642D03*
X181300Y511600D03*
X206700Y511600D03*
X232100Y511600D03*
X257500Y511600D03*
X402350Y366200D03*
X402350Y391600D03*
X402350Y417000D03*
X402350Y442400D03*
X402350Y467800D03*
X402350Y493200D03*
X402350Y518600D03*
X402350Y544000D03*
X402350Y569400D03*
X39500Y535050D03*
X39500Y509650D03*
X39500Y484250D03*
X39500Y458850D03*
X39500Y433450D03*
X39500Y408050D03*
X39500Y382650D03*
X39500Y357250D03*
X39500Y331850D03*
X39500Y306450D03*
X39500Y281050D03*
X39500Y255650D03*
X39500Y230250D03*
X64900Y230250D03*
X64900Y255650D03*
X64900Y281050D03*
X64900Y306450D03*
X64900Y331850D03*
X64900Y357250D03*
X64900Y382650D03*
X64900Y408050D03*
X64900Y433450D03*
X64900Y458850D03*
X64900Y484250D03*
X64900Y509650D03*
X64900Y535050D03*
X39500Y204850D03*
X64900Y204850D03*
X39500Y179450D03*
X64900Y179450D03*
X39500Y154050D03*
X64900Y154050D03*
X39500Y128650D03*
X64900Y128650D03*
X39500Y103250D03*
X64900Y103250D03*
X39500Y77850D03*
X64900Y77850D03*
X39500Y52450D03*
X64900Y52450D03*
D11*
X442000Y546000D03*
X442000Y495200D03*
X102400Y81750D03*
X102400Y30950D03*
D12*
X104350Y536650D03*
X155150Y536650D03*
D17*
X350000Y171350D03*
D18*
X350000Y196350D03*
D17*
X142200Y489600D03*
D18*
X117200Y489600D03*
D17*
X319500Y517800D03*
D18*
X319500Y542800D03*
D10*
X513750Y50850D03*
X513750Y76250D03*
D19*
X467500Y197600D03*
D20*
X467500Y177600D03*
X467500Y157600D03*
X467500Y137600D03*
X467500Y117600D03*
X467500Y97600D03*
X467500Y77600D03*
X467500Y57600D03*
X467500Y37600D03*
X467500Y17600D03*
D10*
X213000Y590000D03*
X238400Y590000D03*
X263800Y590000D03*
X289200Y590000D03*
D17*
X266000Y153800D03*
X266000Y253800D03*
D21*
X583400Y596640D03*
X584400Y-4240D03*
X50400Y-5000D03*
X51200Y597400D03*
D22*
X142200Y523700D02*
X142200Y489600D01*
X142200Y523700D02*
X155150Y536650D01*
D23*
X64900Y408050D02*
X103000Y363600D01*
D22*
X39500Y509650D02*
X39500Y535050D01*
D24*
X103000Y107700D02*
X102400Y107100D01*
X102400Y81750D01*
X235700Y482600D02*
X206700Y511600D01*
X235700Y482600D02*
X304800Y482600D01*
X315550Y482600D01*
X402350Y569400D01*
X266000Y361250D02*
X266000Y253800D01*
X266000Y361250D02*
X304800Y400050D01*
X304800Y482600D01*
X467450Y319950D02*
X473075Y325575D01*
X467450Y319950D02*
X457500Y310000D01*
X402500Y310000D01*
X352500Y260000D01*
X352500Y198850D01*
X350000Y196350D01*
X467450Y319950D02*
X484462Y302938D01*
X484462Y114562D01*
X467500Y97600D01*
X350000Y196350D02*
X322650Y169000D01*
X473075Y325575D02*
X473075Y514925D01*
X322650Y169000D02*
X322650Y104950D01*
X402350Y569400D02*
X418600Y569400D01*
X442000Y546000D01*
X473075Y514925D01*
D22*
X104350Y536650D02*
X66500Y536650D01*
X64900Y535050D01*
X104350Y536650D02*
X117200Y528708D01*
X117200Y489600D01*
X146050Y460750D01*
X146050Y438150D01*
D25*
X146050Y438150D03*
D23*
X331900Y480900D02*
X344000Y493000D01*
X402150Y493000D01*
X402350Y493200D01*
X52708Y72800D02*
X59850Y65658D01*
X52708Y72800D02*
X52708Y91058D01*
X64900Y103250D01*
X59850Y65658D02*
X203200Y65658D01*
X331900Y286900D02*
X331900Y480900D01*
X331900Y286900D02*
X241000Y196000D01*
X241000Y103458D02*
X203200Y65658D01*
X241000Y103458D02*
X241000Y196000D01*
X339971Y405421D02*
X340000Y405450D01*
X340000Y473000D01*
X350000Y483000D01*
X387150Y483000D01*
X402350Y467800D01*
X39500Y52450D02*
X56492Y35458D01*
X84817Y35458D02*
X94907Y45548D01*
X84817Y35458D02*
X56492Y35458D01*
X339971Y281031D02*
X339971Y405421D01*
X339971Y281031D02*
X250064Y191125D01*
X250064Y86717D01*
X208895Y45548D02*
X94907Y45548D01*
X208895Y45548D02*
X250064Y86717D01*
X103000Y312800D02*
X91792Y312800D01*
D25*
X103000Y312800D03*
X349400Y329800D03*
D23*
X349400Y466400D01*
X356000Y473000D01*
X371750Y473000D01*
X402350Y442400D01*
X33342Y319658D02*
X26000Y327000D01*
X33342Y319658D02*
X84934Y319658D01*
X91792Y312800D01*
X26000Y327000D02*
X26000Y392000D01*
X39500Y405500D01*
X39500Y408050D01*
D25*
X438600Y253000D03*
D24*
X448526Y243074D02*
X448526Y50800D01*
X448526Y43040D01*
X448526Y243074D02*
X438600Y253000D01*
X394026Y-3700D02*
X381000Y-3700D01*
X448526Y39040D02*
X448526Y43040D01*
X448526Y39040D02*
X438260Y28774D01*
X426500Y28774D01*
X394026Y-3700D01*
D23*
X431000Y46300D02*
X412903Y64397D01*
X412903Y94692D01*
X394950Y112644D01*
X394950Y155145D01*
D25*
X391172Y196628D03*
D23*
X391172Y158923D01*
X394950Y155145D01*
X120650Y172027D02*
X103000Y158500D01*
X120650Y172027D02*
X120650Y295750D01*
X115700Y300700D01*
X70650Y300700D01*
X64900Y306450D01*
X114300Y191241D02*
X103000Y183900D01*
X64900Y255650D02*
X81542Y272292D01*
X108050Y272292D01*
X115192Y265150D01*
X115192Y192133D01*
X114300Y191241D01*
X103000Y209300D02*
X88900Y197309D01*
X88900Y101900D01*
X64900Y77900D02*
X64900Y77850D01*
X64900Y77900D02*
X88900Y101900D01*
X82550Y145550D02*
X82550Y216290D01*
X103000Y234700D01*
X82550Y145550D02*
X65650Y128650D01*
X64900Y128650D01*
X64900Y154050D02*
X64900Y162208D01*
X77092Y174400D01*
X77092Y238092D01*
X99100Y260100D01*
X103000Y260100D01*
X52000Y166550D02*
X39500Y154050D01*
X52000Y166550D02*
X52000Y263000D01*
X57858Y268858D01*
X69950Y268858D01*
X80092Y279000D01*
X86592Y285500D01*
X103000Y285500D01*
X82550Y466600D02*
X64900Y484250D01*
X127000Y295650D02*
X153300Y269350D01*
X127000Y295650D02*
X127000Y330200D01*
X82550Y435450D02*
X82550Y466600D01*
X82550Y435450D02*
X91000Y427000D01*
X108000Y427000D01*
X117000Y418000D01*
X117000Y340200D01*
X127000Y330200D01*
X124000Y450550D02*
X64900Y509650D01*
X124000Y450550D02*
X124000Y350000D01*
X135400Y338600D01*
X152092Y338600D01*
X165492Y325200D01*
X165492Y256142D01*
X153300Y243950D01*
X184850Y318788D02*
X187050Y320988D01*
X184850Y318788D02*
X184850Y285112D01*
X153300Y175908D02*
X153300Y167750D01*
X184850Y207458D02*
X184850Y285112D01*
X184850Y207458D02*
X153300Y175908D01*
X213450Y319750D02*
X214250Y320550D01*
X213450Y319750D02*
X213450Y284950D01*
X199826Y271326D01*
X199826Y180083D01*
X162093Y142350D01*
X153300Y142350D01*
X467500Y77600D02*
X512400Y77600D01*
X513750Y76250D01*
X514350Y266700D02*
X514350Y292100D01*
X412750Y292100D02*
X373888Y253238D01*
X373888Y152400D01*
X356000Y134512D01*
X356000Y46300D01*
X406000Y46300D02*
X406000Y87750D01*
X386912Y106838D01*
X386912Y142526D01*
X382952Y236902D02*
X412750Y266700D01*
X382952Y236902D02*
X382952Y146486D01*
X386912Y142526D01*
X75792Y414400D02*
X69950Y420242D01*
X59850Y420242D01*
X59608Y420000D01*
X58000Y420000D01*
X52000Y414000D01*
X52000Y370150D01*
X64900Y357250D01*
X75792Y414400D02*
X103000Y414400D01*
D24*
X289200Y543300D02*
X289200Y590000D01*
X289200Y543300D02*
X257500Y511600D01*
X319500Y542800D02*
X319500Y559700D01*
X289200Y590000D01*
D23*
X238400Y590000D02*
X238400Y571942D01*
X194508Y528050D01*
X194508Y441892D02*
X214250Y422150D01*
X194508Y441892D02*
X194508Y528050D01*
M02*
