M48
;GenerationSoftware,Autodesk,EAGLE,9.7.0*%
;CreationDate,2026-05-21T12:27:17Z*%
FMAT,2
ICI,OFF
METRIC,TZ,000.000
T9C0.350
T8C0.700
T7C0.800
T6C0.813
T5C0.900
T4C1.016
T3C1.200
T2C1.300
T1C2.200
%
G90
M71
T1
X5040Y-500
X58440Y-424
X58340Y59664
X5120Y59740
X58340Y59664
X58440Y-424
X5040Y-500
X5120Y59740
T2
X38100Y-370
X43100Y4630
X40600Y4630
X33100Y4630
X35600Y4630
T3
X33100Y-370
X33100Y-2870
X43100Y-2870
X43100Y-370
X38100Y4630
T4
X40235Y56940
X3950Y17945
X15330Y24395
X15330Y26935
X15330Y29475
X15330Y32015
X28920Y59000
X26380Y59000
X23840Y59000
X21300Y59000
X10300Y43980
X10300Y41440
X10300Y38900
X10300Y36360
X10300Y33820
X10300Y28550
X10300Y26010
X10300Y23470
X10300Y20930
X10300Y18390
X10300Y15850
X10300Y13310
X10300Y10770
X15330Y19315
X15330Y16775
X15330Y14235
X15330Y11695
X15330Y9155
X51375Y7625
X51375Y5085
X6490Y5245
X3950Y5245
X6490Y7785
X3950Y7785
X6490Y10325
X3950Y10325
X6490Y12865
X3950Y12865
X6490Y15405
X3950Y15405
X41754Y11429
X41754Y13969
X17049Y62164
X14509Y62164
X11969Y62164
X18130Y51160
X20670Y51160
X23210Y51160
X25750Y51160
X40235Y36620
X40235Y39160
X40235Y41700
X40235Y44240
X40235Y46780
X40235Y49320
X40235Y51860
X40235Y54400
X6490Y17945
X3950Y53505
X3950Y50965
X3950Y48425
X3950Y45885
X3950Y43345
X3950Y40805
X3950Y38265
X3950Y35725
X15330Y21855
X3950Y30645
X3950Y28105
X3950Y25565
X3950Y23025
X6490Y23025
X6490Y25565
X6490Y28105
X6490Y30645
X6490Y33185
X6490Y35725
X6490Y38265
X6490Y40805
X6490Y43345
X6490Y45885
X6490Y48425
X6490Y50965
X6490Y53505
X3950Y20485
X6490Y20485
X3950Y33185
T5
X26600Y15380
X26600Y25380
T6
X37345Y10495
X41745Y22675
X18705Y42259
X18705Y32099
X18485Y18351
X18485Y28511
X41275Y26670
X51435Y26670
X21425Y42215
X21425Y32055
X44200Y54600
X44200Y49520
X10240Y8175
X10240Y3095
X10435Y53665
X15515Y53665
X41275Y29210
X51435Y29210
X21345Y18335
X32265Y10495
X41745Y17595
X21345Y28495
T7
X46750Y15760
X46750Y13760
X46750Y11760
X46750Y9760
X46750Y7760
X46750Y5760
X46750Y3760
X46750Y1760
X46750Y19760
X46750Y17760
T8
X35000Y17135
X35000Y19635
X14220Y48960
X11720Y48960
X31950Y51780
X31950Y54280
T9
X39117Y19663
X43860Y25300
X34940Y32980
X10300Y31280
X14605Y43815
M30