G04 EAGLE Gerber RS-274X export*
G75*
%MOMM*%
%FSLAX34Y34*%
%LPD*%
%INSoldermask Top*%
%IPPOS*%
%AMOC8*
5,1,8,0,0,1.08239X$1,22.5*%
G01*
G04 Define Apertures*
%ADD10C,2.082800*%
%ADD11P,1.64956X8X292.5*%
%ADD12P,1.64956X8X22.5*%
%ADD13C,2.387600*%
%ADD14C,1.403200*%
%ADD15P,2.03446X8X202.5*%
%ADD16P,2.03446X8X112.5*%
%ADD17P,2.03446X8X292.5*%
%ADD18C,1.854200*%
%ADD19R,1.854200X1.854200*%
%ADD20R,1.511200X1.511200*%
%ADD21C,1.511200*%
%ADD22C,2.403200*%
%ADD23C,6.203200*%
%ADD24C,0.959600*%
D10*
X153300Y91550D03*
X153300Y116950D03*
X153300Y142350D03*
X153300Y167750D03*
X153300Y193150D03*
X153300Y218550D03*
X153300Y243950D03*
X153300Y269350D03*
X153300Y294750D03*
X153300Y320150D03*
D11*
X417450Y226750D03*
X417450Y175950D03*
D12*
X322650Y104950D03*
X373450Y104950D03*
D10*
X103000Y439800D03*
X103000Y414400D03*
X103000Y389000D03*
X103000Y363600D03*
X103000Y338200D03*
X103000Y285500D03*
X103000Y260100D03*
X103000Y234700D03*
X103000Y209300D03*
X103000Y183900D03*
X103000Y158500D03*
X103000Y133100D03*
X103000Y107700D03*
D13*
X381000Y-3700D03*
X356000Y46300D03*
X331000Y46300D03*
X406000Y46300D03*
X431000Y46300D03*
D14*
X331000Y-3700D03*
X331000Y-28700D03*
X431000Y-28700D03*
X431000Y-3700D03*
X381000Y46300D03*
D15*
X514350Y292100D03*
X412750Y292100D03*
D16*
X214250Y320550D03*
X214250Y422150D03*
D15*
X514350Y266700D03*
X412750Y266700D03*
D17*
X184850Y285112D03*
X184850Y183512D03*
D16*
X187050Y320988D03*
X187050Y422588D03*
D17*
X213450Y284950D03*
X213450Y183350D03*
D10*
X417542Y114295D03*
X417542Y139695D03*
X170492Y621642D03*
X145092Y621642D03*
X119692Y621642D03*
X181300Y511600D03*
X206700Y511600D03*
X232100Y511600D03*
X257500Y511600D03*
X402350Y366200D03*
X402350Y391600D03*
X402350Y417000D03*
X402350Y442400D03*
X402350Y467800D03*
X402350Y493200D03*
X402350Y518600D03*
X402350Y544000D03*
X402350Y569400D03*
X39500Y535050D03*
X39500Y509650D03*
X39500Y484250D03*
X39500Y458850D03*
X39500Y433450D03*
X39500Y408050D03*
X39500Y382650D03*
X39500Y357250D03*
X39500Y331850D03*
X39500Y306450D03*
X39500Y281050D03*
X39500Y255650D03*
X39500Y230250D03*
X64900Y230250D03*
X64900Y255650D03*
X64900Y281050D03*
X64900Y306450D03*
X64900Y331850D03*
X64900Y357250D03*
X64900Y382650D03*
X64900Y408050D03*
X64900Y433450D03*
X64900Y458850D03*
X64900Y484250D03*
X64900Y509650D03*
X64900Y535050D03*
X39500Y204850D03*
X64900Y204850D03*
X39500Y179450D03*
X64900Y179450D03*
X39500Y154050D03*
X64900Y154050D03*
X39500Y128650D03*
X64900Y128650D03*
X39500Y103250D03*
X64900Y103250D03*
X39500Y77850D03*
X64900Y77850D03*
X39500Y52450D03*
X64900Y52450D03*
D11*
X442000Y546000D03*
X442000Y495200D03*
X102400Y81750D03*
X102400Y30950D03*
D12*
X104350Y536650D03*
X155150Y536650D03*
D18*
X350000Y171350D03*
D19*
X350000Y196350D03*
D18*
X142200Y489600D03*
D19*
X117200Y489600D03*
D18*
X319500Y517800D03*
D19*
X319500Y542800D03*
D10*
X513750Y50850D03*
X513750Y76250D03*
D20*
X467500Y197600D03*
D21*
X467500Y177600D03*
X467500Y157600D03*
X467500Y137600D03*
X467500Y117600D03*
X467500Y97600D03*
X467500Y77600D03*
X467500Y57600D03*
X467500Y37600D03*
X467500Y17600D03*
D10*
X213000Y590000D03*
X238400Y590000D03*
X263800Y590000D03*
X289200Y590000D03*
D18*
X266000Y153800D03*
X266000Y253800D03*
D22*
X583400Y596640D03*
D23*
X583400Y596640D03*
D22*
X584400Y-4240D03*
D23*
X584400Y-4240D03*
D22*
X50400Y-5000D03*
D23*
X50400Y-5000D03*
D22*
X51200Y597400D03*
D23*
X51200Y597400D03*
D24*
X146050Y438150D03*
X103000Y312800D03*
X349400Y329800D03*
X438600Y253000D03*
X391172Y196628D03*
M02*
