0
SECTION
2
ENTITIES
0
LINE
8
HAT_OUTLINE
10
0.000
20
0.000
30
0
11
63.480
21
0.000
31
0
0
LINE
8
HAT_OUTLINE
10
63.480
20
0.000
30
0
11
63.480
21
69.980
31
0
0
LINE
8
HAT_OUTLINE
10
63.480
20
69.980
30
0
11
0.000
21
69.980
31
0
0
LINE
8
HAT_OUTLINE
10
0.000
20
69.980
30
0
11
0.000
21
0.000
31
0
0
CIRCLE
8
HOLES
10
5.100
20
5.080
30
0
40
1.375
0
LINE
8
HOLE_CENTERS
10
4.100
20
5.080
30
0
11
6.100
21
5.080
31
0
0
LINE
8
HOLE_CENTERS
10
5.100
20
4.080
30
0
11
5.100
21
6.080
31
0
0
CIRCLE
8
HOLES
10
58.440
20
5.080
30
0
40
1.375
0
LINE
8
HOLE_CENTERS
10
57.440
20
5.080
30
0
11
59.440
21
5.080
31
0
0
LINE
8
HOLE_CENTERS
10
58.440
20
4.080
30
0
11
58.440
21
6.080
31
0
0
CIRCLE
8
HOLES
10
5.120
20
64.680
30
0
40
1.375
0
LINE
8
HOLE_CENTERS
10
4.120
20
64.680
30
0
11
6.120
21
64.680
31
0
0
LINE
8
HOLE_CENTERS
10
5.120
20
63.680
30
0
11
5.120
21
65.680
31
0
0
CIRCLE
8
HOLES
10
58.420
20
64.680
30
0
40
1.375
0
LINE
8
HOLE_CENTERS
10
57.420
20
64.680
30
0
11
59.420
21
64.680
31
0
0
LINE
8
HOLE_CENTERS
10
58.420
20
63.680
30
0
11
58.420
21
65.680
31
0
0
CIRCLE
8
HOLES
10
59.440
20
34.240
30
0
40
1.375
0
LINE
8
HOLE_CENTERS
10
58.440
20
34.240
30
0
11
60.440
21
34.240
31
0
0
LINE
8
HOLE_CENTERS
10
59.440
20
33.240
30
0
11
59.440
21
35.240
31
0
0
LINE
8
PI_OUTLINE
10
-37.450
20
1.750
30
0
11
-7.450
21
1.750
31
0
0
LINE
8
PI_OUTLINE
10
-7.450
20
1.750
30
0
11
-7.450
21
66.750
31
0
0
LINE
8
PI_OUTLINE
10
-7.450
20
66.750
30
0
11
-37.450
21
66.750
31
0
0
LINE
8
PI_OUTLINE
10
-37.450
20
66.750
30
0
11
-37.450
21
1.750
31
0
0
CIRCLE
8
HOLES
10
-33.950
20
5.250
30
0
40
1.375
0
LINE
8
HOLE_CENTERS
10
-34.950
20
5.250
30
0
11
-32.950
21
5.250
31
0
0
LINE
8
HOLE_CENTERS
10
-33.950
20
4.250
30
0
11
-33.950
21
6.250
31
0
0
CIRCLE
8
HOLES
10
-33.950
20
63.250
30
0
40
1.375
0
LINE
8
HOLE_CENTERS
10
-34.950
20
63.250
30
0
11
-32.950
21
63.250
31
0
0
LINE
8
HOLE_CENTERS
10
-33.950
20
62.250
30
0
11
-33.950
21
64.250
31
0
0
CIRCLE
8
HOLES
10
-10.950
20
5.250
30
0
40
1.375
0
LINE
8
HOLE_CENTERS
10
-11.950
20
5.250
30
0
11
-9.950
21
5.250
31
0
0
LINE
8
HOLE_CENTERS
10
-10.950
20
4.250
30
0
11
-10.950
21
6.250
31
0
0
CIRCLE
8
HOLES
10
-10.950
20
63.250
30
0
40
1.375
0
LINE
8
HOLE_CENTERS
10
-11.950
20
63.250
30
0
11
-9.950
21
63.250
31
0
0
LINE
8
HOLE_CENTERS
10
-10.950
20
62.250
30
0
11
-10.950
21
64.250
31
0
0
LINE
8
BASE_OUTLINE
10
-42.450
20
-5.000
30
0
11
68.480
21
-5.000
31
0
0
LINE
8
BASE_OUTLINE
10
68.480
20
-5.000
30
0
11
68.480
21
74.980
31
0
0
LINE
8
BASE_OUTLINE
10
68.480
20
74.980
30
0
11
-42.450
21
74.980
31
0
0
LINE
8
BASE_OUTLINE
10
-42.450
20
74.980
30
0
11
-42.450
21
-5.000
31
0
0
ENDSEC
0
EOF
