G04 EAGLE Gerber RS-274X export*
G75*
%MOMM*%
%FSLAX34Y34*%
%LPD*%
%INTop Copper*%
%IPPOS*%
%AMOC8*
5,1,8,0,0,1.08239X$1,22.5*%
G01*
G04 Define Apertures*
%ADD10C,0.130000*%
%ADD11C,2.184400*%
%ADD12C,1.879600*%
%ADD13C,1.000000*%
%ADD14C,0.254000*%
%ADD15C,0.152400*%
%ADD16C,0.200000*%
G36*
X124278Y-96100D02*
X123604Y-96080D01*
X122968Y-96018D01*
X122369Y-95916D01*
X121808Y-95772D01*
X121285Y-95588D01*
X120799Y-95362D01*
X120351Y-95095D01*
X119942Y-94788D01*
X119575Y-94442D01*
X119257Y-94062D01*
X118988Y-93648D01*
X118768Y-93199D01*
X118597Y-92716D01*
X118475Y-92198D01*
X118432Y-91926D01*
X118402Y-91645D01*
X118383Y-91356D01*
X118377Y-91058D01*
X118393Y-90643D01*
X118438Y-90245D01*
X118514Y-89864D01*
X118620Y-89500D01*
X118756Y-89153D01*
X118923Y-88822D01*
X119119Y-88509D01*
X119347Y-88212D01*
X119597Y-87938D01*
X119865Y-87692D01*
X120149Y-87475D01*
X120451Y-87286D01*
X120769Y-87125D01*
X121104Y-86993D01*
X121456Y-86889D01*
X121825Y-86813D01*
X121825Y-86764D01*
X121481Y-86669D01*
X121156Y-86550D01*
X120850Y-86407D01*
X120563Y-86240D01*
X120294Y-86048D01*
X120043Y-85833D01*
X119811Y-85593D01*
X119598Y-85329D01*
X119407Y-85047D01*
X119241Y-84753D01*
X119101Y-84447D01*
X118986Y-84130D01*
X118897Y-83800D01*
X118833Y-83459D01*
X118795Y-83106D01*
X118782Y-82740D01*
X118805Y-82258D01*
X118875Y-81800D01*
X118990Y-81364D01*
X119152Y-80952D01*
X119360Y-80564D01*
X119614Y-80199D01*
X119914Y-79857D01*
X120261Y-79538D01*
X120646Y-79251D01*
X121063Y-79002D01*
X121512Y-78791D01*
X121992Y-78618D01*
X122504Y-78484D01*
X123047Y-78388D01*
X123622Y-78331D01*
X124229Y-78312D01*
X124850Y-78330D01*
X125438Y-78387D01*
X125992Y-78481D01*
X126513Y-78612D01*
X127000Y-78781D01*
X127453Y-78988D01*
X127873Y-79232D01*
X128259Y-79514D01*
X128606Y-79828D01*
X128906Y-80168D01*
X129160Y-80535D01*
X129368Y-80928D01*
X129530Y-81347D01*
X129645Y-81793D01*
X129715Y-82266D01*
X129738Y-82765D01*
X129725Y-83130D01*
X129686Y-83483D01*
X129622Y-83825D01*
X129532Y-84154D01*
X129417Y-84472D01*
X129275Y-84778D01*
X129108Y-85072D01*
X128916Y-85354D01*
X128701Y-85617D01*
X128467Y-85854D01*
X128442Y-85875D01*
X128215Y-86066D01*
X127943Y-86252D01*
X127653Y-86413D01*
X127345Y-86547D01*
X127017Y-86656D01*
X126671Y-86740D01*
X126671Y-86789D01*
X127073Y-86870D01*
X127453Y-86978D01*
X127809Y-87113D01*
X128143Y-87275D01*
X128453Y-87464D01*
X128741Y-87680D01*
X129005Y-87923D01*
X129200Y-88141D01*
X129247Y-88194D01*
X129463Y-88486D01*
X129649Y-88797D01*
X129808Y-89125D01*
X129937Y-89471D01*
X130038Y-89835D01*
X130109Y-90217D01*
X130153Y-90616D01*
X130167Y-91034D01*
X130161Y-91329D01*
X130143Y-91615D01*
X130072Y-92164D01*
X129953Y-92679D01*
X129787Y-93162D01*
X129573Y-93612D01*
X129311Y-94029D01*
X129002Y-94412D01*
X128646Y-94763D01*
X128245Y-95077D01*
X127802Y-95348D01*
X127319Y-95578D01*
X126793Y-95766D01*
X126227Y-95912D01*
X125619Y-96017D01*
X124969Y-96079D01*
X124278Y-96100D01*
G37*
%LPC*%
G36*
X124303Y-94444D02*
X124739Y-94431D01*
X125147Y-94390D01*
X125526Y-94323D01*
X125876Y-94228D01*
X126198Y-94106D01*
X126490Y-93958D01*
X126754Y-93782D01*
X126990Y-93579D01*
X127197Y-93347D01*
X127376Y-93083D01*
X127528Y-92787D01*
X127652Y-92458D01*
X127749Y-92098D01*
X127818Y-91706D01*
X127859Y-91281D01*
X127873Y-90825D01*
X127858Y-90436D01*
X127813Y-90071D01*
X127738Y-89731D01*
X127634Y-89416D01*
X127499Y-89125D01*
X127335Y-88860D01*
X127140Y-88618D01*
X126916Y-88402D01*
X126665Y-88211D01*
X126389Y-88045D01*
X126090Y-87905D01*
X125766Y-87790D01*
X125418Y-87701D01*
X125046Y-87637D01*
X124650Y-87599D01*
X124229Y-87586D01*
X123821Y-87600D01*
X123435Y-87641D01*
X123072Y-87710D01*
X122733Y-87806D01*
X122416Y-87929D01*
X122122Y-88080D01*
X121852Y-88258D01*
X121604Y-88463D01*
X121382Y-88693D01*
X121191Y-88943D01*
X121028Y-89214D01*
X120895Y-89505D01*
X120792Y-89816D01*
X120718Y-90148D01*
X120674Y-90501D01*
X120659Y-90874D01*
X120673Y-91306D01*
X120716Y-91711D01*
X120787Y-92087D01*
X120887Y-92436D01*
X121015Y-92757D01*
X121172Y-93050D01*
X121357Y-93315D01*
X121570Y-93552D01*
X121812Y-93761D01*
X122083Y-93942D01*
X122381Y-94096D01*
X122709Y-94221D01*
X123065Y-94319D01*
X123449Y-94388D01*
X123862Y-94430D01*
X124303Y-94444D01*
G37*
G36*
X124254Y-85930D02*
X124632Y-85919D01*
X124986Y-85885D01*
X125318Y-85829D01*
X125626Y-85751D01*
X125911Y-85650D01*
X126173Y-85526D01*
X126412Y-85381D01*
X126628Y-85212D01*
X126819Y-85019D01*
X126985Y-84798D01*
X127125Y-84549D01*
X127240Y-84272D01*
X127329Y-83968D01*
X127393Y-83636D01*
X127431Y-83276D01*
X127443Y-82888D01*
X127431Y-82533D01*
X127393Y-82200D01*
X127330Y-81891D01*
X127243Y-81605D01*
X127130Y-81341D01*
X126991Y-81101D01*
X126828Y-80883D01*
X126640Y-80689D01*
X126426Y-80517D01*
X126188Y-80368D01*
X125924Y-80242D01*
X125635Y-80139D01*
X125322Y-80059D01*
X124983Y-80001D01*
X124618Y-79967D01*
X124229Y-79956D01*
X123851Y-79967D01*
X123497Y-80002D01*
X123165Y-80059D01*
X122857Y-80140D01*
X122572Y-80243D01*
X122310Y-80370D01*
X122071Y-80519D01*
X121855Y-80692D01*
X121664Y-80887D01*
X121498Y-81105D01*
X121358Y-81346D01*
X121244Y-81609D01*
X121154Y-81895D01*
X121091Y-82203D01*
X121052Y-82534D01*
X121040Y-82888D01*
X121053Y-83248D01*
X121092Y-83586D01*
X121158Y-83902D01*
X121250Y-84196D01*
X121368Y-84468D01*
X121512Y-84718D01*
X121683Y-84945D01*
X121880Y-85151D01*
X122101Y-85334D01*
X122343Y-85492D01*
X122608Y-85626D01*
X122894Y-85735D01*
X123201Y-85821D01*
X123530Y-85881D01*
X123881Y-85918D01*
X124254Y-85930D01*
G37*
%LPD*%
G36*
X142062Y-95855D02*
X139977Y-95855D01*
X139977Y-91941D01*
X131831Y-91941D01*
X131831Y-90224D01*
X139744Y-78569D01*
X142062Y-78569D01*
X142062Y-90199D01*
X144492Y-90199D01*
X144492Y-91941D01*
X142062Y-91941D01*
X142062Y-95855D01*
G37*
%LPC*%
G36*
X139977Y-90199D02*
X139977Y-81060D01*
X139633Y-81710D01*
X139354Y-82201D01*
X139155Y-82520D01*
X134726Y-89046D01*
X134064Y-89954D01*
X133867Y-90199D01*
X139977Y-90199D01*
G37*
%LPD*%
G36*
X95089Y-95855D02*
X83643Y-95855D01*
X83643Y-94297D01*
X83973Y-93600D01*
X84338Y-92946D01*
X84737Y-92334D01*
X85170Y-91764D01*
X85627Y-91228D01*
X86095Y-90718D01*
X86575Y-90234D01*
X87066Y-89776D01*
X88055Y-88919D01*
X89035Y-88126D01*
X89962Y-87365D01*
X90795Y-86605D01*
X91169Y-86220D01*
X91505Y-85826D01*
X91804Y-85423D01*
X92065Y-85010D01*
X92178Y-84798D01*
X92277Y-84579D01*
X92360Y-84353D01*
X92428Y-84121D01*
X92481Y-83881D01*
X92519Y-83634D01*
X92542Y-83381D01*
X92550Y-83121D01*
X92536Y-82775D01*
X92497Y-82449D01*
X92432Y-82143D01*
X92341Y-81857D01*
X92224Y-81591D01*
X92080Y-81345D01*
X91911Y-81119D01*
X91715Y-80912D01*
X91497Y-80728D01*
X91258Y-80569D01*
X90998Y-80434D01*
X90718Y-80324D01*
X90419Y-80238D01*
X90098Y-80176D01*
X89758Y-80140D01*
X89397Y-80127D01*
X89052Y-80139D01*
X88722Y-80175D01*
X88408Y-80235D01*
X88110Y-80319D01*
X87827Y-80427D01*
X87560Y-80559D01*
X87308Y-80714D01*
X87072Y-80894D01*
X86855Y-81095D01*
X86662Y-81316D01*
X86492Y-81556D01*
X86346Y-81816D01*
X86224Y-82095D01*
X86125Y-82393D01*
X86050Y-82710D01*
X85998Y-83047D01*
X83741Y-82839D01*
X83822Y-82333D01*
X83943Y-81855D01*
X84104Y-81403D01*
X84304Y-80977D01*
X84544Y-80578D01*
X84823Y-80205D01*
X85143Y-79858D01*
X85502Y-79538D01*
X85894Y-79251D01*
X86313Y-79002D01*
X86759Y-78791D01*
X87233Y-78618D01*
X87733Y-78484D01*
X88261Y-78388D01*
X88815Y-78331D01*
X89397Y-78312D01*
X90031Y-78331D01*
X90628Y-78389D01*
X91187Y-78485D01*
X91708Y-78620D01*
X92191Y-78793D01*
X92637Y-79005D01*
X93044Y-79256D01*
X93414Y-79545D01*
X93744Y-79869D01*
X94029Y-80226D01*
X94270Y-80615D01*
X94468Y-81037D01*
X94622Y-81491D01*
X94731Y-81977D01*
X94797Y-82496D01*
X94819Y-83047D01*
X94812Y-83298D01*
X94790Y-83549D01*
X94754Y-83800D01*
X94704Y-84050D01*
X94560Y-84549D01*
X94359Y-85047D01*
X94101Y-85544D01*
X93787Y-86041D01*
X93417Y-86537D01*
X92991Y-87034D01*
X92434Y-87599D01*
X91669Y-88301D01*
X90698Y-89139D01*
X89519Y-90114D01*
X88850Y-90676D01*
X88253Y-91210D01*
X87727Y-91716D01*
X87274Y-92193D01*
X86886Y-92652D01*
X86557Y-93102D01*
X86285Y-93544D01*
X86072Y-93978D01*
X95089Y-93978D01*
X95089Y-95855D01*
G37*
G36*
X109058Y-95855D02*
X97612Y-95855D01*
X97612Y-94297D01*
X97942Y-93600D01*
X98306Y-92946D01*
X98705Y-92334D01*
X99139Y-91764D01*
X99596Y-91228D01*
X100064Y-90718D01*
X100543Y-90234D01*
X101034Y-89776D01*
X102024Y-88919D01*
X103003Y-88126D01*
X103931Y-87365D01*
X104764Y-86605D01*
X105138Y-86220D01*
X105474Y-85826D01*
X105773Y-85423D01*
X106034Y-85010D01*
X106147Y-84798D01*
X106246Y-84579D01*
X106329Y-84353D01*
X106397Y-84121D01*
X106450Y-83881D01*
X106488Y-83634D01*
X106511Y-83381D01*
X106518Y-83121D01*
X106505Y-82775D01*
X106466Y-82449D01*
X106401Y-82143D01*
X106310Y-81857D01*
X106192Y-81591D01*
X106049Y-81345D01*
X105880Y-81119D01*
X105684Y-80912D01*
X105465Y-80728D01*
X105226Y-80569D01*
X104967Y-80434D01*
X104687Y-80324D01*
X104387Y-80238D01*
X104067Y-80176D01*
X103726Y-80140D01*
X103365Y-80127D01*
X103020Y-80139D01*
X102691Y-80175D01*
X102377Y-80235D01*
X102079Y-80319D01*
X101796Y-80427D01*
X101529Y-80559D01*
X101277Y-80714D01*
X101041Y-80894D01*
X100824Y-81095D01*
X100631Y-81316D01*
X100461Y-81556D01*
X100315Y-81816D01*
X100193Y-82095D01*
X100094Y-82393D01*
X100019Y-82710D01*
X99967Y-83047D01*
X97710Y-82839D01*
X97791Y-82333D01*
X97912Y-81855D01*
X98072Y-81403D01*
X98273Y-80977D01*
X98512Y-80578D01*
X98792Y-80205D01*
X99111Y-79858D01*
X99470Y-79538D01*
X99863Y-79251D01*
X100282Y-79002D01*
X100728Y-78791D01*
X101202Y-78618D01*
X101702Y-78484D01*
X102229Y-78388D01*
X102784Y-78331D01*
X103365Y-78312D01*
X104000Y-78331D01*
X104596Y-78389D01*
X105155Y-78485D01*
X105676Y-78620D01*
X106160Y-78793D01*
X106605Y-79005D01*
X107013Y-79256D01*
X107383Y-79545D01*
X107712Y-79869D01*
X107998Y-80226D01*
X108239Y-80615D01*
X108437Y-81037D01*
X108590Y-81491D01*
X108700Y-81977D01*
X108766Y-82496D01*
X108788Y-83047D01*
X108781Y-83298D01*
X108759Y-83549D01*
X108723Y-83800D01*
X108673Y-84050D01*
X108529Y-84549D01*
X108328Y-85047D01*
X108070Y-85544D01*
X107756Y-86041D01*
X107386Y-86537D01*
X106960Y-87034D01*
X106402Y-87599D01*
X105638Y-88301D01*
X104667Y-89139D01*
X103488Y-90114D01*
X102819Y-90676D01*
X102221Y-91210D01*
X101696Y-91716D01*
X101243Y-92193D01*
X100855Y-92652D01*
X100525Y-93102D01*
X100254Y-93544D01*
X100041Y-93978D01*
X109058Y-93978D01*
X109058Y-95855D01*
G37*
G36*
X115003Y-95855D02*
X112611Y-95855D01*
X112611Y-93168D01*
X115003Y-93168D01*
X115003Y-95855D01*
G37*
G36*
X-39794Y83129D02*
X-40872Y83152D01*
X-41385Y83181D01*
X-41881Y83220D01*
X-42359Y83271D01*
X-42820Y83334D01*
X-43263Y83408D01*
X-43689Y83493D01*
X-44097Y83589D01*
X-44488Y83697D01*
X-44862Y83817D01*
X-45218Y83947D01*
X-45557Y84089D01*
X-45878Y84243D01*
X-46182Y84407D01*
X-46468Y84583D01*
X-46737Y84772D01*
X-46988Y84973D01*
X-47222Y85188D01*
X-47439Y85416D01*
X-47639Y85657D01*
X-47821Y85911D01*
X-47986Y86178D01*
X-48133Y86459D01*
X-48263Y86752D01*
X-48376Y87059D01*
X-48471Y87379D01*
X-48550Y87713D01*
X-48610Y88059D01*
X-48654Y88419D01*
X-48680Y88792D01*
X-48688Y89178D01*
X-48680Y89553D01*
X-48653Y89916D01*
X-48609Y90267D01*
X-48548Y90605D01*
X-48469Y90931D01*
X-48373Y91244D01*
X-48259Y91544D01*
X-48127Y91832D01*
X-47978Y92108D01*
X-47811Y92371D01*
X-47627Y92621D01*
X-47425Y92859D01*
X-47206Y93085D01*
X-46969Y93298D01*
X-46715Y93498D01*
X-46443Y93686D01*
X-46154Y93862D01*
X-45848Y94027D01*
X-45525Y94180D01*
X-45186Y94322D01*
X-44829Y94453D01*
X-44456Y94572D01*
X-44066Y94680D01*
X-43658Y94776D01*
X-43234Y94862D01*
X-42794Y94935D01*
X-42336Y94998D01*
X-41861Y95049D01*
X-40861Y95117D01*
X-39794Y95140D01*
X-39261Y95134D01*
X-38743Y95116D01*
X-38242Y95086D01*
X-37757Y95044D01*
X-37287Y94991D01*
X-36834Y94925D01*
X-36397Y94848D01*
X-35976Y94758D01*
X-35570Y94657D01*
X-35181Y94543D01*
X-34808Y94418D01*
X-34450Y94281D01*
X-34109Y94132D01*
X-33784Y93971D01*
X-33475Y93797D01*
X-33181Y93613D01*
X-32905Y93416D01*
X-32647Y93208D01*
X-32406Y92989D01*
X-32183Y92758D01*
X-31978Y92516D01*
X-31791Y92263D01*
X-31622Y91998D01*
X-31470Y91722D01*
X-31336Y91434D01*
X-31221Y91135D01*
X-31123Y90825D01*
X-31042Y90504D01*
X-30980Y90171D01*
X-30935Y89827D01*
X-30909Y89471D01*
X-30900Y89104D01*
X-30909Y88737D01*
X-30935Y88382D01*
X-30979Y88038D01*
X-31042Y87706D01*
X-31121Y87386D01*
X-31219Y87077D01*
X-31334Y86780D01*
X-31467Y86494D01*
X-31618Y86220D01*
X-31786Y85957D01*
X-31972Y85707D01*
X-32176Y85467D01*
X-32398Y85240D01*
X-32637Y85024D01*
X-32894Y84819D01*
X-33169Y84626D01*
X-33461Y84445D01*
X-33769Y84275D01*
X-34094Y84118D01*
X-34434Y83971D01*
X-34791Y83837D01*
X-35165Y83714D01*
X-35554Y83603D01*
X-35960Y83504D01*
X-36382Y83416D01*
X-36821Y83340D01*
X-37276Y83276D01*
X-37747Y83223D01*
X-38234Y83182D01*
X-38738Y83153D01*
X-39258Y83135D01*
X-39794Y83129D01*
G37*
%LPC*%
G36*
X-39794Y85362D02*
X-38905Y85376D01*
X-38077Y85419D01*
X-37311Y85489D01*
X-36607Y85588D01*
X-35965Y85714D01*
X-35384Y85869D01*
X-34865Y86053D01*
X-34408Y86264D01*
X-34009Y86506D01*
X-33662Y86781D01*
X-33369Y87089D01*
X-33129Y87431D01*
X-32943Y87806D01*
X-32870Y88005D01*
X-32810Y88213D01*
X-32763Y88430D01*
X-32730Y88654D01*
X-32710Y88887D01*
X-32703Y89129D01*
X-32710Y89368D01*
X-32730Y89600D01*
X-32764Y89823D01*
X-32812Y90039D01*
X-32873Y90246D01*
X-32948Y90445D01*
X-33036Y90636D01*
X-33139Y90818D01*
X-33384Y91160D01*
X-33683Y91468D01*
X-34037Y91744D01*
X-34445Y91987D01*
X-34910Y92200D01*
X-35433Y92384D01*
X-36014Y92540D01*
X-36653Y92668D01*
X-37351Y92767D01*
X-38107Y92838D01*
X-38921Y92881D01*
X-39794Y92895D01*
X-40697Y92881D01*
X-41536Y92841D01*
X-42310Y92773D01*
X-43020Y92679D01*
X-43666Y92557D01*
X-44247Y92408D01*
X-44764Y92233D01*
X-45216Y92030D01*
X-45610Y91796D01*
X-45952Y91527D01*
X-46241Y91223D01*
X-46477Y90884D01*
X-46661Y90510D01*
X-46733Y90310D01*
X-46792Y90101D01*
X-46838Y89883D01*
X-46871Y89657D01*
X-46891Y89422D01*
X-46897Y89178D01*
X-46891Y88928D01*
X-46871Y88686D01*
X-46839Y88454D01*
X-46794Y88231D01*
X-46735Y88017D01*
X-46664Y87812D01*
X-46483Y87428D01*
X-46250Y87080D01*
X-45966Y86768D01*
X-45629Y86492D01*
X-45241Y86252D01*
X-44794Y86043D01*
X-44279Y85863D01*
X-43699Y85710D01*
X-43051Y85585D01*
X-42337Y85487D01*
X-41556Y85418D01*
X-40708Y85376D01*
X-39794Y85362D01*
G37*
%LPD*%
G36*
X-39794Y104067D02*
X-40872Y104090D01*
X-41385Y104118D01*
X-41881Y104158D01*
X-42359Y104209D01*
X-42820Y104271D01*
X-43263Y104345D01*
X-43689Y104430D01*
X-44097Y104527D01*
X-44488Y104635D01*
X-44862Y104754D01*
X-45218Y104885D01*
X-45557Y105027D01*
X-45878Y105180D01*
X-46182Y105345D01*
X-46468Y105521D01*
X-46737Y105709D01*
X-46988Y105911D01*
X-47222Y106125D01*
X-47439Y106353D01*
X-47639Y106594D01*
X-47821Y106848D01*
X-47986Y107116D01*
X-48133Y107396D01*
X-48263Y107690D01*
X-48376Y107997D01*
X-48471Y108317D01*
X-48550Y108650D01*
X-48610Y108997D01*
X-48654Y109356D01*
X-48680Y109729D01*
X-48688Y110115D01*
X-48680Y110491D01*
X-48653Y110854D01*
X-48609Y111204D01*
X-48548Y111542D01*
X-48469Y111868D01*
X-48373Y112181D01*
X-48259Y112482D01*
X-48127Y112770D01*
X-47978Y113045D01*
X-47811Y113308D01*
X-47627Y113559D01*
X-47425Y113797D01*
X-47206Y114022D01*
X-46969Y114235D01*
X-46715Y114436D01*
X-46443Y114624D01*
X-46154Y114800D01*
X-45848Y114964D01*
X-45525Y115118D01*
X-45186Y115260D01*
X-44829Y115390D01*
X-44456Y115510D01*
X-44066Y115617D01*
X-43658Y115714D01*
X-43234Y115799D01*
X-42794Y115873D01*
X-42336Y115935D01*
X-41861Y115987D01*
X-40861Y116055D01*
X-39794Y116077D01*
X-39261Y116071D01*
X-38743Y116054D01*
X-38242Y116024D01*
X-37757Y115982D01*
X-37287Y115928D01*
X-36834Y115863D01*
X-36397Y115785D01*
X-35976Y115696D01*
X-35570Y115594D01*
X-35181Y115481D01*
X-34808Y115355D01*
X-34450Y115218D01*
X-34109Y115069D01*
X-33784Y114908D01*
X-33475Y114735D01*
X-33181Y114550D01*
X-32905Y114353D01*
X-32647Y114145D01*
X-32406Y113926D01*
X-32183Y113695D01*
X-31978Y113453D01*
X-31791Y113200D01*
X-31622Y112935D01*
X-31470Y112659D01*
X-31336Y112372D01*
X-31221Y112073D01*
X-31123Y111763D01*
X-31042Y111441D01*
X-30980Y111108D01*
X-30935Y110764D01*
X-30909Y110408D01*
X-30900Y110042D01*
X-30909Y109675D01*
X-30935Y109319D01*
X-30979Y108976D01*
X-31042Y108644D01*
X-31121Y108323D01*
X-31219Y108014D01*
X-31334Y107717D01*
X-31467Y107431D01*
X-31618Y107157D01*
X-31786Y106895D01*
X-31972Y106644D01*
X-32176Y106405D01*
X-32398Y106177D01*
X-32637Y105961D01*
X-32894Y105757D01*
X-33169Y105564D01*
X-33461Y105382D01*
X-33769Y105213D01*
X-34094Y105055D01*
X-34434Y104909D01*
X-34791Y104774D01*
X-35165Y104652D01*
X-35554Y104541D01*
X-35960Y104441D01*
X-36382Y104353D01*
X-36821Y104277D01*
X-37276Y104213D01*
X-37747Y104161D01*
X-38234Y104120D01*
X-38738Y104090D01*
X-39258Y104073D01*
X-39794Y104067D01*
G37*
%LPC*%
G36*
X-39794Y106300D02*
X-38905Y106314D01*
X-38077Y106356D01*
X-37311Y106427D01*
X-36607Y106525D01*
X-35965Y106652D01*
X-35384Y106807D01*
X-34865Y106990D01*
X-34408Y107201D01*
X-34009Y107443D01*
X-33662Y107719D01*
X-33369Y108027D01*
X-33129Y108368D01*
X-32943Y108743D01*
X-32870Y108943D01*
X-32810Y109151D01*
X-32763Y109367D01*
X-32730Y109592D01*
X-32710Y109825D01*
X-32703Y110066D01*
X-32710Y110306D01*
X-32730Y110537D01*
X-32764Y110761D01*
X-32812Y110976D01*
X-32873Y111183D01*
X-32948Y111382D01*
X-33036Y111573D01*
X-33139Y111756D01*
X-33384Y112097D01*
X-33683Y112405D01*
X-34037Y112681D01*
X-34445Y112925D01*
X-34910Y113137D01*
X-35433Y113322D01*
X-36014Y113478D01*
X-36653Y113605D01*
X-37351Y113705D01*
X-38107Y113776D01*
X-38921Y113818D01*
X-39794Y113832D01*
X-40697Y113819D01*
X-41536Y113778D01*
X-42310Y113711D01*
X-43020Y113616D01*
X-43666Y113495D01*
X-44247Y113346D01*
X-44764Y113170D01*
X-45216Y112967D01*
X-45610Y112734D01*
X-45952Y112465D01*
X-46241Y112161D01*
X-46477Y111822D01*
X-46661Y111448D01*
X-46733Y111248D01*
X-46792Y111039D01*
X-46838Y110821D01*
X-46871Y110594D01*
X-46891Y110359D01*
X-46897Y110115D01*
X-46891Y109865D01*
X-46871Y109624D01*
X-46839Y109392D01*
X-46794Y109169D01*
X-46735Y108954D01*
X-46664Y108749D01*
X-46483Y108365D01*
X-46250Y108018D01*
X-45966Y107706D01*
X-45629Y107429D01*
X-45241Y107189D01*
X-44794Y106981D01*
X-44279Y106800D01*
X-43699Y106647D01*
X-43051Y106522D01*
X-42337Y106425D01*
X-41556Y106355D01*
X-40708Y106314D01*
X-39794Y106300D01*
G37*
%LPD*%
G36*
X-39794Y118036D02*
X-40872Y118058D01*
X-41385Y118087D01*
X-41881Y118127D01*
X-42359Y118178D01*
X-42820Y118240D01*
X-43263Y118314D01*
X-43689Y118399D01*
X-44097Y118496D01*
X-44488Y118604D01*
X-44862Y118723D01*
X-45218Y118853D01*
X-45557Y118995D01*
X-45878Y119149D01*
X-46182Y119313D01*
X-46468Y119489D01*
X-46737Y119678D01*
X-46988Y119879D01*
X-47222Y120094D01*
X-47439Y120322D01*
X-47639Y120563D01*
X-47821Y120817D01*
X-47986Y121084D01*
X-48133Y121365D01*
X-48263Y121659D01*
X-48376Y121966D01*
X-48471Y122286D01*
X-48550Y122619D01*
X-48610Y122965D01*
X-48654Y123325D01*
X-48680Y123698D01*
X-48688Y124084D01*
X-48680Y124459D01*
X-48653Y124823D01*
X-48609Y125173D01*
X-48548Y125511D01*
X-48469Y125837D01*
X-48373Y126150D01*
X-48259Y126450D01*
X-48127Y126738D01*
X-47978Y127014D01*
X-47811Y127277D01*
X-47627Y127527D01*
X-47425Y127765D01*
X-47206Y127991D01*
X-46969Y128204D01*
X-46715Y128404D01*
X-46443Y128592D01*
X-46154Y128768D01*
X-45848Y128933D01*
X-45525Y129086D01*
X-45186Y129228D01*
X-44829Y129359D01*
X-44456Y129478D01*
X-44066Y129586D01*
X-43658Y129683D01*
X-43234Y129768D01*
X-42794Y129842D01*
X-42336Y129904D01*
X-41861Y129955D01*
X-40861Y130023D01*
X-39794Y130046D01*
X-39261Y130040D01*
X-38743Y130022D01*
X-38242Y129992D01*
X-37757Y129951D01*
X-37287Y129897D01*
X-36834Y129831D01*
X-36397Y129754D01*
X-35976Y129664D01*
X-35570Y129563D01*
X-35181Y129450D01*
X-34808Y129324D01*
X-34450Y129187D01*
X-34109Y129038D01*
X-33784Y128877D01*
X-33475Y128704D01*
X-33181Y128519D01*
X-32905Y128322D01*
X-32647Y128114D01*
X-32406Y127895D01*
X-32183Y127664D01*
X-31978Y127422D01*
X-31791Y127169D01*
X-31622Y126904D01*
X-31470Y126628D01*
X-31336Y126341D01*
X-31221Y126042D01*
X-31123Y125732D01*
X-31042Y125410D01*
X-30980Y125077D01*
X-30935Y124733D01*
X-30909Y124377D01*
X-30900Y124010D01*
X-30909Y123643D01*
X-30935Y123288D01*
X-30979Y122945D01*
X-31042Y122612D01*
X-31121Y122292D01*
X-31219Y121983D01*
X-31334Y121686D01*
X-31467Y121400D01*
X-31618Y121126D01*
X-31786Y120864D01*
X-31972Y120613D01*
X-32176Y120374D01*
X-32398Y120146D01*
X-32637Y119930D01*
X-32894Y119725D01*
X-33169Y119532D01*
X-33461Y119351D01*
X-33769Y119182D01*
X-34094Y119024D01*
X-34434Y118878D01*
X-34791Y118743D01*
X-35165Y118620D01*
X-35554Y118509D01*
X-35960Y118410D01*
X-36382Y118322D01*
X-36821Y118246D01*
X-37276Y118182D01*
X-37747Y118129D01*
X-38234Y118088D01*
X-38738Y118059D01*
X-39258Y118042D01*
X-39794Y118036D01*
G37*
%LPC*%
G36*
X-39794Y120269D02*
X-38905Y120283D01*
X-38077Y120325D01*
X-37311Y120395D01*
X-36607Y120494D01*
X-35965Y120621D01*
X-35384Y120776D01*
X-34865Y120959D01*
X-34408Y121170D01*
X-34009Y121412D01*
X-33662Y121687D01*
X-33369Y121996D01*
X-33129Y122337D01*
X-32943Y122712D01*
X-32870Y122912D01*
X-32810Y123120D01*
X-32763Y123336D01*
X-32730Y123561D01*
X-32710Y123794D01*
X-32703Y124035D01*
X-32710Y124275D01*
X-32730Y124506D01*
X-32764Y124730D01*
X-32812Y124945D01*
X-32873Y125152D01*
X-32948Y125351D01*
X-33036Y125542D01*
X-33139Y125725D01*
X-33384Y126066D01*
X-33683Y126374D01*
X-34037Y126650D01*
X-34445Y126893D01*
X-34910Y127106D01*
X-35433Y127290D01*
X-36014Y127446D01*
X-36653Y127574D01*
X-37351Y127673D01*
X-38107Y127744D01*
X-38921Y127787D01*
X-39794Y127801D01*
X-40697Y127788D01*
X-41536Y127747D01*
X-42310Y127679D01*
X-43020Y127585D01*
X-43666Y127463D01*
X-44247Y127315D01*
X-44764Y127139D01*
X-45216Y126936D01*
X-45610Y126702D01*
X-45952Y126434D01*
X-46241Y126130D01*
X-46477Y125791D01*
X-46661Y125417D01*
X-46733Y125216D01*
X-46792Y125007D01*
X-46838Y124790D01*
X-46871Y124563D01*
X-46891Y124328D01*
X-46897Y124084D01*
X-46891Y123834D01*
X-46871Y123593D01*
X-46839Y123361D01*
X-46794Y123137D01*
X-46735Y122923D01*
X-46664Y122718D01*
X-46483Y122334D01*
X-46250Y121986D01*
X-45966Y121674D01*
X-45629Y121398D01*
X-45241Y121158D01*
X-44794Y120949D01*
X-44279Y120769D01*
X-43699Y120616D01*
X-43051Y120491D01*
X-42337Y120394D01*
X-41556Y120324D01*
X-40708Y120282D01*
X-39794Y120269D01*
G37*
%LPD*%
G36*
X-31145Y69443D02*
X-32703Y69443D01*
X-33400Y69773D01*
X-34054Y70138D01*
X-34666Y70537D01*
X-35236Y70970D01*
X-35772Y71427D01*
X-36282Y71895D01*
X-36766Y72375D01*
X-37224Y72866D01*
X-38081Y73855D01*
X-38874Y74835D01*
X-39635Y75762D01*
X-40395Y76595D01*
X-40780Y76969D01*
X-41174Y77305D01*
X-41577Y77604D01*
X-41990Y77865D01*
X-42202Y77978D01*
X-42421Y78077D01*
X-42647Y78160D01*
X-42879Y78228D01*
X-43119Y78281D01*
X-43366Y78319D01*
X-43619Y78342D01*
X-43879Y78350D01*
X-44225Y78336D01*
X-44551Y78297D01*
X-44857Y78232D01*
X-45143Y78141D01*
X-45409Y78024D01*
X-45655Y77880D01*
X-45881Y77711D01*
X-46088Y77515D01*
X-46272Y77297D01*
X-46431Y77058D01*
X-46566Y76798D01*
X-46676Y76518D01*
X-46762Y76219D01*
X-46824Y75898D01*
X-46860Y75558D01*
X-46873Y75197D01*
X-46861Y74852D01*
X-46825Y74522D01*
X-46765Y74208D01*
X-46681Y73910D01*
X-46573Y73627D01*
X-46441Y73360D01*
X-46286Y73108D01*
X-46106Y72872D01*
X-45905Y72655D01*
X-45684Y72462D01*
X-45444Y72292D01*
X-45184Y72146D01*
X-44905Y72024D01*
X-44607Y71925D01*
X-44290Y71850D01*
X-43953Y71798D01*
X-44161Y69541D01*
X-44667Y69622D01*
X-45145Y69743D01*
X-45597Y69904D01*
X-46023Y70104D01*
X-46422Y70344D01*
X-46795Y70623D01*
X-47142Y70943D01*
X-47462Y71302D01*
X-47749Y71694D01*
X-47998Y72113D01*
X-48209Y72559D01*
X-48382Y73033D01*
X-48516Y73533D01*
X-48612Y74061D01*
X-48669Y74615D01*
X-48688Y75197D01*
X-48669Y75831D01*
X-48611Y76428D01*
X-48515Y76987D01*
X-48380Y77508D01*
X-48207Y77991D01*
X-47995Y78437D01*
X-47744Y78844D01*
X-47455Y79214D01*
X-47131Y79544D01*
X-46774Y79829D01*
X-46385Y80070D01*
X-45963Y80268D01*
X-45509Y80422D01*
X-45023Y80531D01*
X-44504Y80597D01*
X-43953Y80619D01*
X-43702Y80612D01*
X-43451Y80590D01*
X-43200Y80554D01*
X-42950Y80504D01*
X-42451Y80360D01*
X-41953Y80159D01*
X-41456Y79901D01*
X-40959Y79587D01*
X-40463Y79217D01*
X-39966Y78791D01*
X-39401Y78234D01*
X-38699Y77469D01*
X-37861Y76498D01*
X-36886Y75319D01*
X-36324Y74650D01*
X-35790Y74053D01*
X-35284Y73527D01*
X-34807Y73074D01*
X-34348Y72686D01*
X-33898Y72357D01*
X-33456Y72085D01*
X-33022Y71872D01*
X-33022Y80889D01*
X-31145Y80889D01*
X-31145Y69443D01*
G37*
G36*
X-31145Y98411D02*
X-33832Y98411D01*
X-33832Y100803D01*
X-31145Y100803D01*
X-31145Y98411D01*
G37*
D10*
X0Y-41400D02*
X0Y-121100D01*
X228400Y-121100D02*
X228400Y-41400D01*
X227750Y-101600D02*
X650Y-101600D01*
X26000Y-98408D01*
X26000Y-104792D01*
X650Y-101600D01*
X26000Y-100300D01*
X26000Y-102900D02*
X650Y-101600D01*
X26000Y-99000D01*
X26000Y-104200D02*
X650Y-101600D01*
X202400Y-98408D02*
X227750Y-101600D01*
X202400Y-98408D02*
X202400Y-104792D01*
X227750Y-101600D01*
X202400Y-100300D01*
X202400Y-102900D02*
X227750Y-101600D01*
X202400Y-99000D01*
X202400Y-104200D02*
X227750Y-101600D01*
X0Y0D02*
X-44900Y0D01*
X-44900Y200000D02*
X0Y200000D01*
X-25400Y199350D02*
X-25400Y650D01*
X-28592Y26000D01*
X-22208Y26000D01*
X-25400Y650D01*
X-26700Y26000D01*
X-24100Y26000D02*
X-25400Y650D01*
X-28000Y26000D01*
X-22800Y26000D02*
X-25400Y650D01*
X-28592Y174000D02*
X-25400Y199350D01*
X-28592Y174000D02*
X-22208Y174000D01*
X-25400Y199350D01*
X-26700Y174000D01*
X-24100Y174000D02*
X-25400Y199350D01*
X-28000Y174000D01*
X-22800Y174000D02*
X-25400Y199350D01*
D11*
X114300Y36830D03*
X89300Y86830D03*
X64300Y86830D03*
X139300Y86830D03*
X164300Y86830D03*
D12*
X63500Y154940D03*
X88900Y154940D03*
X114300Y154940D03*
X139700Y154940D03*
X165100Y154940D03*
D11*
X342900Y36830D03*
X317900Y86830D03*
X292900Y86830D03*
X367900Y86830D03*
X392900Y86830D03*
D12*
X292100Y154930D03*
X317500Y154930D03*
X342900Y154930D03*
X368300Y154930D03*
X393700Y154930D03*
D11*
X571500Y36830D03*
X546500Y86830D03*
X521500Y86830D03*
X596500Y86830D03*
X621500Y86830D03*
D12*
X520700Y154930D03*
X546100Y154930D03*
X571500Y154930D03*
X596900Y154930D03*
X622300Y154930D03*
D11*
X800100Y36830D03*
X775100Y86830D03*
X750100Y86830D03*
X825100Y86830D03*
X850100Y86830D03*
D12*
X749300Y154930D03*
X774700Y154930D03*
X800100Y154930D03*
X825500Y154930D03*
X850900Y154930D03*
D11*
X1028700Y36830D03*
X1003700Y86830D03*
X978700Y86830D03*
X1053700Y86830D03*
X1078700Y86830D03*
D12*
X977900Y154930D03*
X1003300Y154930D03*
X1028700Y154930D03*
X1054100Y154930D03*
X1079500Y154930D03*
D11*
X113030Y243840D03*
X88030Y293840D03*
X63030Y293840D03*
X138030Y293840D03*
X163030Y293840D03*
D12*
X63500Y358140D03*
X88900Y358140D03*
X114300Y358140D03*
X139700Y358140D03*
X165100Y358140D03*
D11*
X342900Y243840D03*
X317900Y293840D03*
X292900Y293840D03*
X367900Y293840D03*
X392900Y293840D03*
D12*
X292100Y357333D03*
X317500Y357333D03*
X342900Y357333D03*
X368300Y357333D03*
X393700Y357333D03*
D11*
X571500Y243840D03*
X546500Y293840D03*
X521500Y293840D03*
X596500Y293840D03*
X621500Y293840D03*
D12*
X520700Y356870D03*
X546100Y356870D03*
X571500Y356870D03*
X596900Y356870D03*
X622300Y356870D03*
D11*
X1028700Y243840D03*
X1003700Y293840D03*
X978700Y293840D03*
X1053700Y293840D03*
X1078700Y293840D03*
D12*
X977900Y356870D03*
X1003300Y356870D03*
X1028700Y356870D03*
X1054100Y356870D03*
X1079500Y356870D03*
D11*
X800100Y243840D03*
X775100Y293840D03*
X750100Y293840D03*
X825100Y293840D03*
X850100Y293840D03*
D12*
X749300Y356870D03*
X774700Y356870D03*
X800100Y356870D03*
X825500Y356870D03*
X850900Y356870D03*
D11*
X114300Y443230D03*
X89300Y493230D03*
X64300Y493230D03*
X139300Y493230D03*
X164300Y493230D03*
D12*
X63500Y561340D03*
X88900Y561340D03*
X114300Y561340D03*
X139700Y561340D03*
X165100Y561340D03*
D11*
X342900Y443230D03*
X317900Y493230D03*
X292900Y493230D03*
X367900Y493230D03*
X392900Y493230D03*
D12*
X292100Y560070D03*
X317500Y560070D03*
X342900Y560070D03*
X368300Y560070D03*
X393700Y560070D03*
D11*
X800100Y443230D03*
X775100Y493230D03*
X750100Y493230D03*
X825100Y493230D03*
X850100Y493230D03*
D12*
X749300Y560070D03*
X774700Y560070D03*
X800100Y560070D03*
X825500Y560070D03*
X850900Y560070D03*
D11*
X571500Y443230D03*
X546500Y493230D03*
X521500Y493230D03*
X596500Y493230D03*
X621500Y493230D03*
D12*
X520700Y560070D03*
X546100Y560070D03*
X571500Y560070D03*
X596900Y560070D03*
X622300Y560070D03*
D11*
X1028700Y443230D03*
X1003700Y493230D03*
X978700Y493230D03*
X1053700Y493230D03*
X1078700Y493230D03*
D12*
X977900Y560070D03*
X1003300Y560070D03*
X1028700Y560070D03*
X1054100Y560070D03*
X1079500Y560070D03*
D11*
X114300Y645160D03*
X89300Y695160D03*
X64300Y695160D03*
X139300Y695160D03*
X164300Y695160D03*
D12*
X63500Y762000D03*
X88900Y762000D03*
X114300Y762000D03*
X139700Y762000D03*
X165100Y762000D03*
D11*
X342900Y645160D03*
X317900Y695160D03*
X292900Y695160D03*
X367900Y695160D03*
X392900Y695160D03*
D12*
X292100Y763270D03*
X317500Y763270D03*
X342900Y763270D03*
X368300Y763270D03*
X393700Y763270D03*
D11*
X571500Y645160D03*
X546500Y695160D03*
X521500Y695160D03*
X596500Y695160D03*
X621500Y695160D03*
D12*
X520700Y763270D03*
X546100Y763270D03*
X571500Y763270D03*
X596900Y763270D03*
X622300Y763270D03*
D11*
X800100Y645160D03*
X775100Y695160D03*
X750100Y695160D03*
X825100Y695160D03*
X850100Y695160D03*
D12*
X749300Y763270D03*
X774700Y763270D03*
X800100Y763270D03*
X825500Y763270D03*
X850900Y763270D03*
D11*
X1028700Y645160D03*
X1003700Y695160D03*
X978700Y695160D03*
X1053700Y695160D03*
X1078700Y695160D03*
D12*
X977900Y762000D03*
X1003300Y762000D03*
X1028700Y762000D03*
X1054100Y762000D03*
X1079500Y762000D03*
D13*
X63500Y154940D02*
X43180Y134620D01*
X43180Y66040D01*
X51230Y57990D01*
X94225Y36830D02*
X114300Y36830D01*
X73065Y57990D02*
X51230Y57990D01*
X73065Y57990D02*
X94225Y36830D01*
D14*
X68580Y134620D02*
X88900Y154940D01*
X68580Y134620D02*
X68580Y91110D01*
X64300Y86830D01*
X89300Y86830D02*
X89300Y129940D01*
X114300Y154940D01*
X139700Y154940D02*
X139700Y87230D01*
D15*
X139300Y86830D01*
X164300Y154140D02*
X165100Y154940D01*
D14*
X164300Y154140D02*
X164300Y86830D01*
D13*
X291611Y111006D02*
X291611Y154175D01*
X291611Y111006D02*
X274872Y94267D01*
X274872Y80171D01*
X296897Y58146D01*
X321565Y58146D01*
X342709Y37002D01*
X291611Y154175D02*
X292100Y154930D01*
X342709Y37002D02*
X342900Y36830D01*
D16*
X317160Y111006D02*
X317160Y154175D01*
X317160Y111006D02*
X293373Y87219D01*
X317160Y154175D02*
X317500Y154930D01*
X293373Y87219D02*
X292900Y86830D01*
X342709Y111887D02*
X342709Y154175D01*
X342709Y111887D02*
X318041Y87219D01*
X342709Y154175D02*
X342900Y154930D01*
X318041Y87219D02*
X317900Y86830D01*
X368258Y87219D02*
X368258Y154175D01*
X368300Y154930D01*
X368258Y87219D02*
X367900Y86830D01*
X392926Y87219D02*
X392926Y154175D01*
X393700Y154930D01*
X392926Y87219D02*
X392900Y86830D01*
D13*
X520671Y111006D02*
X520671Y154175D01*
X520671Y111006D02*
X503932Y94267D01*
X503932Y79290D01*
X525076Y58146D01*
X549744Y58146D01*
X570888Y37002D01*
X520671Y154175D02*
X520700Y154930D01*
X570888Y37002D02*
X571500Y36830D01*
D16*
X545339Y111006D02*
X545339Y154175D01*
X545339Y111006D02*
X521552Y87219D01*
X545339Y154175D02*
X546100Y154930D01*
X521552Y87219D02*
X521500Y86830D01*
X570888Y111006D02*
X570888Y154175D01*
X570888Y111006D02*
X547101Y87219D01*
X570888Y154175D02*
X571500Y154930D01*
X547101Y87219D02*
X546500Y86830D01*
X597318Y87219D02*
X597318Y154175D01*
X596900Y154930D01*
X597318Y87219D02*
X596500Y86830D01*
X621986Y87219D02*
X621986Y154175D01*
X622300Y154930D01*
X621986Y87219D02*
X621500Y86830D01*
D13*
X748850Y111006D02*
X748850Y154175D01*
X748850Y111006D02*
X732111Y94267D01*
X732111Y79290D01*
X753255Y58146D01*
X778804Y58146D01*
X799948Y37002D01*
X748850Y154175D02*
X749300Y154930D01*
X799948Y37002D02*
X800100Y36830D01*
D16*
X774399Y111006D02*
X774399Y154175D01*
X774399Y111006D02*
X750612Y87219D01*
X774399Y154175D02*
X774700Y154930D01*
X750612Y87219D02*
X750100Y86830D01*
X799948Y111887D02*
X799948Y154175D01*
X799948Y111887D02*
X775280Y87219D01*
X799948Y154175D02*
X800100Y154930D01*
X775280Y87219D02*
X775100Y86830D01*
X825497Y87219D02*
X825497Y154175D01*
X825500Y154930D01*
X825497Y87219D02*
X825100Y86830D01*
X850165Y87219D02*
X850165Y154175D01*
X850900Y154930D01*
X850165Y87219D02*
X850100Y86830D01*
D13*
X977029Y110125D02*
X977029Y154175D01*
X977029Y110125D02*
X961171Y94267D01*
X961171Y79290D01*
X982315Y58146D01*
X1006983Y58146D01*
X1028127Y37002D01*
X977029Y154175D02*
X977900Y154930D01*
X1028127Y37002D02*
X1028700Y36830D01*
D16*
X1002578Y111006D02*
X1002578Y154175D01*
X1002578Y111006D02*
X978791Y87219D01*
X1002578Y154175D02*
X1003300Y154930D01*
X978791Y87219D02*
X978700Y86830D01*
X1028127Y111006D02*
X1028127Y154175D01*
X1028127Y111006D02*
X1004340Y87219D01*
X1028127Y154175D02*
X1028700Y154930D01*
X1004340Y87219D02*
X1003700Y86830D01*
X1054557Y87219D02*
X1054557Y154175D01*
X1054100Y154930D01*
X1054557Y87219D02*
X1053700Y86830D01*
X1079225Y87219D02*
X1079225Y154175D01*
X1079500Y154930D01*
X1079225Y87219D02*
X1078700Y86830D01*
D13*
X63432Y318922D02*
X63432Y357686D01*
X63432Y318922D02*
X44931Y300421D01*
X44931Y287206D01*
X66956Y265181D01*
X91624Y265181D01*
X112768Y244037D01*
X63432Y357686D02*
X63500Y358140D01*
X112768Y244037D02*
X113030Y243840D01*
D16*
X88100Y318922D02*
X88100Y357686D01*
X88100Y318922D02*
X63432Y294254D01*
X88100Y357686D02*
X88900Y358140D01*
X63432Y294254D02*
X63030Y293840D01*
X113649Y319803D02*
X113649Y357686D01*
X113649Y319803D02*
X88100Y294254D01*
X113649Y357686D02*
X114300Y358140D01*
X88100Y294254D02*
X88030Y293840D01*
X139198Y295135D02*
X139198Y357686D01*
X139198Y295135D02*
X138317Y294254D01*
X139198Y357686D02*
X139700Y358140D01*
X138317Y294254D02*
X138030Y293840D01*
X164747Y295135D02*
X164747Y357686D01*
X164747Y295135D02*
X163866Y294254D01*
X164747Y357686D02*
X165100Y358140D01*
X163866Y294254D02*
X163030Y293840D01*
D13*
X291611Y318041D02*
X291611Y356805D01*
X291611Y318041D02*
X274872Y301302D01*
X274872Y286325D01*
X296016Y265181D01*
X321565Y265181D01*
X342709Y244037D01*
X291611Y356805D02*
X292100Y357333D01*
X342709Y244037D02*
X342900Y243840D01*
D16*
X317160Y318041D02*
X317160Y356805D01*
X317160Y318041D02*
X293373Y294254D01*
X317160Y356805D02*
X317500Y357333D01*
X293373Y294254D02*
X292900Y293840D01*
X342709Y318922D02*
X342709Y356805D01*
X342709Y318922D02*
X318041Y294254D01*
X342709Y356805D02*
X342900Y357333D01*
X318041Y294254D02*
X317900Y293840D01*
X368258Y294254D02*
X368258Y356805D01*
X368300Y357333D01*
X368258Y294254D02*
X367900Y293840D01*
X392926Y294254D02*
X392926Y356805D01*
X393700Y357333D01*
X392926Y294254D02*
X392900Y293840D01*
D13*
X520671Y318041D02*
X520671Y356805D01*
X520671Y318041D02*
X503932Y301302D01*
X503932Y286325D01*
X525076Y265181D01*
X549744Y265181D01*
X570888Y244037D01*
X520671Y356805D02*
X520700Y356870D01*
X570888Y244037D02*
X571500Y243840D01*
D16*
X545339Y318041D02*
X545339Y356805D01*
X545339Y318041D02*
X521552Y294254D01*
X545339Y356805D02*
X546100Y356870D01*
X521552Y294254D02*
X521500Y293840D01*
X570888Y318041D02*
X570888Y356805D01*
X570888Y318041D02*
X547101Y294254D01*
X570888Y356805D02*
X571500Y356870D01*
X547101Y294254D02*
X546500Y293840D01*
X597318Y294254D02*
X597318Y356805D01*
X596900Y356870D01*
X597318Y294254D02*
X596500Y293840D01*
X621986Y294254D02*
X621986Y356805D01*
X622300Y356870D01*
X621986Y294254D02*
X621500Y293840D01*
D13*
X977029Y317160D02*
X977029Y356805D01*
X977029Y317160D02*
X961171Y301302D01*
X961171Y286325D01*
X982315Y265181D01*
X1006983Y265181D01*
X1028127Y244037D01*
X977900Y356870D02*
X977029Y356805D01*
X1028127Y244037D02*
X1028700Y243840D01*
D16*
X1002578Y318041D02*
X1002578Y356805D01*
X1002578Y318041D02*
X978791Y294254D01*
X1002578Y356805D02*
X1003300Y356870D01*
X978791Y294254D02*
X978700Y293840D01*
X1028127Y318041D02*
X1028127Y356805D01*
X1028127Y318041D02*
X1004340Y294254D01*
X1028127Y356805D02*
X1028700Y356870D01*
X1004340Y294254D02*
X1003700Y293840D01*
X1054557Y294254D02*
X1054557Y356805D01*
X1054100Y356870D01*
X1054557Y294254D02*
X1053700Y293840D01*
X1079225Y294254D02*
X1079225Y356805D01*
X1079500Y356870D01*
X1079225Y294254D02*
X1078700Y293840D01*
D13*
X748850Y318041D02*
X748850Y356805D01*
X748850Y318041D02*
X732111Y301302D01*
X732111Y286325D01*
X753255Y265181D01*
X778804Y265181D01*
X799948Y244037D01*
X749300Y356870D02*
X748850Y356805D01*
X799948Y244037D02*
X800100Y243840D01*
D16*
X774399Y318041D02*
X774399Y356805D01*
X774399Y318041D02*
X750612Y294254D01*
X774399Y356805D02*
X774700Y356870D01*
X750612Y294254D02*
X750100Y293840D01*
X799948Y318922D02*
X799948Y356805D01*
X799948Y318922D02*
X775280Y294254D01*
X799948Y356805D02*
X800100Y356870D01*
X775280Y294254D02*
X775100Y293840D01*
X825497Y294254D02*
X825497Y356805D01*
X825500Y356870D01*
X825497Y294254D02*
X825100Y293840D01*
X850165Y294254D02*
X850165Y356805D01*
X850900Y356870D01*
X850165Y294254D02*
X850100Y293840D01*
D13*
X63432Y517147D02*
X63432Y561197D01*
X63432Y517147D02*
X46693Y500408D01*
X46693Y485431D01*
X66956Y465168D01*
X92505Y465168D01*
X113649Y444024D01*
X63432Y561197D02*
X63500Y561340D01*
X113649Y444024D02*
X114300Y443230D01*
D16*
X88100Y517147D02*
X88100Y561197D01*
X88100Y517147D02*
X64313Y493360D01*
X88100Y561197D02*
X88900Y561340D01*
X64313Y493360D02*
X64300Y493230D01*
X113649Y517147D02*
X113649Y561197D01*
X113649Y517147D02*
X89862Y493360D01*
X113649Y561197D02*
X114300Y561340D01*
X89862Y493360D02*
X89300Y493230D01*
X140079Y493360D02*
X140079Y561197D01*
X139700Y561340D01*
X140079Y493360D02*
X139300Y493230D01*
X164747Y493360D02*
X164747Y561197D01*
X165100Y561340D01*
X164747Y493360D02*
X164300Y493230D01*
D13*
X291611Y517147D02*
X291611Y559435D01*
X291611Y517147D02*
X274872Y500408D01*
X274872Y486312D01*
X296016Y465168D01*
X321565Y465168D01*
X342709Y444024D01*
X291611Y559435D02*
X292100Y560070D01*
X342709Y444024D02*
X342900Y443230D01*
D16*
X317160Y517147D02*
X317160Y559435D01*
X317160Y517147D02*
X293373Y493360D01*
X317160Y559435D02*
X317500Y560070D01*
X293373Y493360D02*
X292900Y493230D01*
X342709Y518028D02*
X342709Y559435D01*
X342709Y518028D02*
X318041Y493360D01*
X342709Y559435D02*
X342900Y560070D01*
X318041Y493360D02*
X317900Y493230D01*
X368258Y493360D02*
X368258Y559435D01*
X368300Y560070D01*
X368258Y493360D02*
X367900Y493230D01*
X392926Y493360D02*
X392926Y559435D01*
X393700Y560070D01*
X392926Y493360D02*
X392900Y493230D01*
D13*
X748850Y517147D02*
X748850Y559435D01*
X748850Y517147D02*
X732111Y500408D01*
X732111Y486312D01*
X753255Y465168D01*
X778804Y465168D01*
X799948Y444024D01*
X748850Y559435D02*
X749300Y560070D01*
X799948Y444024D02*
X800100Y443230D01*
D16*
X774399Y517147D02*
X774399Y559435D01*
X774399Y517147D02*
X750612Y493360D01*
X774399Y559435D02*
X774700Y560070D01*
X750612Y493360D02*
X750100Y493230D01*
X799948Y518028D02*
X799948Y559435D01*
X799948Y518028D02*
X775280Y493360D01*
X799948Y559435D02*
X800100Y560070D01*
X775280Y493360D02*
X775100Y493230D01*
X825497Y493360D02*
X825497Y559435D01*
X825500Y560070D01*
X825497Y493360D02*
X825100Y493230D01*
X850165Y493360D02*
X850165Y559435D01*
X850900Y560070D01*
X850165Y493360D02*
X850100Y493230D01*
D13*
X520671Y517147D02*
X520671Y559435D01*
X520671Y517147D02*
X503932Y500408D01*
X503932Y485431D01*
X524195Y465168D01*
X549744Y465168D01*
X570888Y444024D01*
X520671Y559435D02*
X520700Y560070D01*
X570888Y444024D02*
X571500Y443230D01*
D16*
X545339Y517147D02*
X545339Y559435D01*
X545339Y517147D02*
X521552Y493360D01*
X545339Y559435D02*
X546100Y560070D01*
X521552Y493360D02*
X521500Y493230D01*
X570888Y517147D02*
X570888Y559435D01*
X570888Y517147D02*
X547101Y493360D01*
X570888Y559435D02*
X571500Y560070D01*
X547101Y493360D02*
X546500Y493230D01*
X597318Y493360D02*
X597318Y559435D01*
X596900Y560070D01*
X597318Y493360D02*
X596500Y493230D01*
X621986Y493360D02*
X621986Y559435D01*
X622300Y560070D01*
X621986Y493360D02*
X621500Y493230D01*
D13*
X977029Y516266D02*
X977029Y559435D01*
X977029Y516266D02*
X961171Y500408D01*
X961171Y485431D01*
X981434Y465168D01*
X1006983Y465168D01*
X1028127Y444024D01*
X977029Y559435D02*
X977900Y560070D01*
X1028127Y444024D02*
X1028700Y443230D01*
D16*
X1002578Y517147D02*
X1002578Y559435D01*
X1002578Y517147D02*
X978791Y493360D01*
X1002578Y559435D02*
X1003300Y560070D01*
X978791Y493360D02*
X978700Y493230D01*
X1028127Y517147D02*
X1028127Y559435D01*
X1028127Y517147D02*
X1004340Y493360D01*
X1028127Y559435D02*
X1028700Y560070D01*
X1004340Y493360D02*
X1003700Y493230D01*
X1054557Y493360D02*
X1054557Y559435D01*
X1054100Y560070D01*
X1054557Y493360D02*
X1053700Y493230D01*
X1079225Y493360D02*
X1079225Y559435D01*
X1079500Y560070D01*
X1079225Y493360D02*
X1078700Y493230D01*
D13*
X63432Y719777D02*
X63432Y761184D01*
X63432Y719777D02*
X46693Y703038D01*
X46693Y688061D01*
X67837Y666917D01*
X92505Y666917D01*
X113649Y645773D01*
X63432Y761184D02*
X63500Y762000D01*
X113649Y645773D02*
X114300Y645160D01*
D16*
X88100Y719777D02*
X88100Y761184D01*
X88100Y719777D02*
X64313Y695990D01*
X88100Y761184D02*
X88900Y762000D01*
X64313Y695990D02*
X64300Y695160D01*
X113649Y719777D02*
X113649Y761184D01*
X113649Y719777D02*
X89862Y695990D01*
X113649Y761184D02*
X114300Y762000D01*
X89862Y695990D02*
X89300Y695160D01*
X140079Y695990D02*
X140079Y761184D01*
X139700Y762000D01*
X140079Y695990D02*
X139300Y695160D01*
X164747Y695990D02*
X164747Y761184D01*
X165100Y762000D01*
X164747Y695990D02*
X164300Y695160D01*
D13*
X291611Y718896D02*
X291611Y762946D01*
X291611Y718896D02*
X274872Y702157D01*
X274872Y688061D01*
X296016Y666917D01*
X321565Y666917D01*
X342709Y645773D01*
X291611Y762946D02*
X292100Y763270D01*
X342709Y645773D02*
X342900Y645160D01*
D16*
X317160Y719777D02*
X317160Y762946D01*
X317160Y719777D02*
X293373Y695990D01*
X317160Y762946D02*
X317500Y763270D01*
X293373Y695990D02*
X292900Y695160D01*
X342709Y720658D02*
X342709Y762946D01*
X342709Y720658D02*
X318041Y695990D01*
X342709Y762946D02*
X342900Y763270D01*
X318041Y695990D02*
X317900Y695160D01*
X368258Y695990D02*
X368258Y762946D01*
X368300Y763270D01*
X368258Y695990D02*
X367900Y695160D01*
X392926Y695990D02*
X392926Y762946D01*
X393700Y763270D01*
X392926Y695990D02*
X392900Y695160D01*
D13*
X520671Y719777D02*
X520671Y762946D01*
X520671Y719777D02*
X503932Y703038D01*
X503932Y687180D01*
X524195Y666917D01*
X549744Y666917D01*
X570888Y645773D01*
X520671Y762946D02*
X520700Y763270D01*
X570888Y645773D02*
X571500Y645160D01*
D16*
X545339Y719777D02*
X545339Y762946D01*
X545339Y719777D02*
X521552Y695990D01*
X545339Y762946D02*
X546100Y763270D01*
X521552Y695990D02*
X521500Y695160D01*
X570888Y719777D02*
X570888Y762946D01*
X570888Y719777D02*
X547101Y695990D01*
X570888Y762946D02*
X571500Y763270D01*
X547101Y695990D02*
X546500Y695160D01*
X597318Y695990D02*
X597318Y762946D01*
X596900Y763270D01*
X597318Y695990D02*
X596500Y695160D01*
X621986Y695990D02*
X621986Y762946D01*
X622300Y763270D01*
X621986Y695990D02*
X621500Y695160D01*
D13*
X748850Y718896D02*
X748850Y762946D01*
X748850Y718896D02*
X732111Y702157D01*
X732111Y688061D01*
X753255Y666917D01*
X778804Y666917D01*
X799948Y645773D01*
X748850Y762946D02*
X749300Y763270D01*
X799948Y645773D02*
X800100Y645160D01*
D16*
X774399Y719777D02*
X774399Y762946D01*
X774399Y719777D02*
X750612Y695990D01*
X774399Y762946D02*
X774700Y763270D01*
X750612Y695990D02*
X750100Y695160D01*
X799948Y720658D02*
X799948Y762946D01*
X799948Y720658D02*
X775280Y695990D01*
X799948Y762946D02*
X800100Y763270D01*
X775280Y695990D02*
X775100Y695160D01*
X825497Y695990D02*
X825497Y762946D01*
X825500Y763270D01*
X825497Y695990D02*
X825100Y695160D01*
X850165Y695990D02*
X850165Y762946D01*
X850900Y763270D01*
X850165Y695990D02*
X850100Y695160D01*
D13*
X977029Y718896D02*
X977029Y761184D01*
X977029Y718896D02*
X961171Y703038D01*
X961171Y687180D01*
X981434Y666917D01*
X1006983Y666917D01*
X1028127Y645773D01*
X977029Y761184D02*
X977900Y762000D01*
X1028127Y645773D02*
X1028700Y645160D01*
D16*
X1002578Y719777D02*
X1002578Y761184D01*
X1002578Y719777D02*
X978791Y695990D01*
X1002578Y761184D02*
X1003300Y762000D01*
X978791Y695990D02*
X978700Y695160D01*
X1028127Y719777D02*
X1028127Y761184D01*
X1028127Y719777D02*
X1004340Y695990D01*
X1028127Y761184D02*
X1028700Y762000D01*
X1004340Y695990D02*
X1003700Y695160D01*
X1054557Y695990D02*
X1054557Y761184D01*
X1054100Y762000D01*
X1054557Y695990D02*
X1053700Y695160D01*
X1079225Y695990D02*
X1079225Y761184D01*
X1079500Y762000D01*
X1079225Y695990D02*
X1078700Y695160D01*
M02*
