M48
;GenerationSoftware,Autodesk,EAGLE,9.7.0*%
;CreationDate,2026-06-06T01:50:02Z*%
FMAT,2
ICI,OFF
METRIC,TZ,000.000
T4C1.016
T3C1.200
T2C1.300
T1C2.750
%
G90
M71
T1
X111760Y77390
X93980Y77390
X88900Y77390
X71120Y77390
X66040Y77390
X48260Y77390
X43180Y77390
X25400Y77390
X20320Y77390
X2540Y77390
X2540Y57790
X20320Y57790
X25400Y57790
X43180Y57790
X48260Y57790
X66040Y57790
X71120Y57790
X88900Y57790
X93980Y57790
X111760Y57790
X111760Y37830
X93980Y37830
X88900Y37830
X71120Y37830
X66040Y37830
X48260Y37830
X43180Y37830
X25400Y37830
X2540Y37830
X20447Y37830
X111760Y62690
X93980Y62690
X88900Y62690
X71120Y62690
X66040Y62690
X48260Y62690
X43180Y62690
X25400Y62690
X20320Y62690
X2540Y62690
X2540Y42550
X20320Y42550
X25400Y42550
X43180Y42550
X48260Y42550
X66040Y42550
X71120Y42550
X88900Y42550
X93980Y42550
X111760Y42550
X111760Y22590
X93980Y22590
X88900Y22590
X71120Y22590
X66040Y22590
X48260Y22590
X43180Y22590
X25400Y22590
X20320Y22590
X2540Y22590
X111760Y2540
X111760Y17780
X93980Y17780
X93980Y2540
X88900Y17780
X88900Y2540
X71120Y17780
X71120Y2540
X66040Y17780
X66040Y2540
X48260Y17780
X48260Y2540
X43180Y17780
X43180Y2540
X25400Y17780
X25400Y2540
X2540Y17780
X20320Y17780
X2540Y2540
X20320Y2540
T2
X11430Y3683
X54650Y8683
X85010Y8683
X82510Y8683
X75010Y8683
X77510Y8683
X80010Y3683
X62150Y8683
X59650Y8683
X107870Y69516
X100370Y8683
X31790Y8683
X39290Y8683
X36790Y8683
X29290Y8683
X34290Y3683
X16430Y8683
X13930Y8683
X6430Y8683
X8930Y8683
X97870Y8683
X105370Y8683
X107870Y8683
X11303Y24384
X8803Y29384
X6303Y29384
X13803Y29384
X16303Y29384
X34290Y24384
X31790Y29384
X29290Y29384
X36790Y29384
X39290Y29384
X57150Y24384
X54650Y29384
X52150Y29384
X59650Y29384
X62150Y29384
X102870Y24384
X100370Y29384
X97870Y29384
X105370Y29384
X107870Y29384
X80010Y24384
X77510Y29384
X75010Y29384
X82510Y29384
X85010Y29384
X11430Y44323
X8930Y49323
X6430Y49323
X13930Y49323
X16430Y49323
X34290Y44323
X31790Y49323
X29290Y49323
X36790Y49323
X39290Y49323
X80010Y44323
X77510Y49323
X75010Y49323
X82510Y49323
X85010Y49323
X57150Y44323
X54650Y49323
X52150Y49323
X59650Y49323
X62150Y49323
X102870Y44323
X100370Y49323
X97870Y49323
X105370Y49323
X107870Y49323
X11430Y64516
X8930Y69516
X6430Y69516
X13930Y69516
X16430Y69516
X34290Y64516
X31790Y69516
X29290Y69516
X36790Y69516
X39290Y69516
X57150Y64516
X54650Y69516
X52150Y69516
X59650Y69516
X62150Y69516
X80010Y64516
X77510Y69516
X75010Y69516
X82510Y69516
X85010Y69516
X102870Y64516
X100370Y69516
X97870Y69516
X105370Y69516
X57150Y3683
X52150Y8683
X102870Y3683
T3
X16430Y1183
X6430Y41823
X107870Y64516
X107870Y62016
X97870Y62016
X6430Y1183
X16430Y3683
X11430Y8683
X29290Y3683
X6430Y3683
X97870Y64516
X29290Y1183
X80010Y69516
X85010Y64516
X85010Y62016
X39290Y1183
X39290Y3683
X34290Y8683
X52150Y3683
X52150Y1183
X75010Y62016
X75010Y64516
X57150Y69516
X62150Y64516
X62150Y62016
X62150Y1183
X62150Y3683
X57150Y8683
X75010Y3683
X75010Y1183
X52150Y62016
X52150Y64516
X34290Y69516
X39290Y64516
X39290Y62016
X85010Y1183
X85010Y3683
X80010Y8683
X97870Y3683
X97870Y1183
X29290Y62016
X29290Y64516
X11430Y69516
X16430Y64516
X16430Y62016
X107870Y1183
X107870Y3683
X102870Y8683
X6303Y24384
X6303Y21884
X6430Y62016
X6430Y64516
X102870Y49323
X107870Y44323
X107870Y41823
X16303Y21884
X16303Y24384
X11303Y29384
X29290Y24384
X29290Y21884
X97870Y41823
X97870Y44323
X57150Y49323
X62150Y44323
X62150Y41823
X39290Y21884
X39290Y24384
X34290Y29384
X52150Y24384
X52150Y21884
X52150Y41823
X52150Y44323
X80010Y49323
X85010Y44323
X85010Y41823
X62150Y21884
X62150Y24384
X57150Y29384
X97870Y24384
X97870Y21884
X75010Y41823
X75010Y44323
X34290Y49323
X39290Y44323
X39290Y41823
X107870Y21884
X107870Y24384
X102870Y29384
X75010Y24384
X75010Y21884
X29290Y41823
X29290Y44323
X11430Y49323
X16430Y44323
X16430Y41823
X85010Y21884
X85010Y24384
X80010Y29384
X102870Y69516
X6430Y44323
T4
X82550Y35687
X85090Y35687
X80010Y35687
X77470Y35687
X74930Y35687
X6350Y56134
X8890Y56134
X11430Y56134
X13970Y56134
X16510Y56134
X107950Y35687
X105410Y35687
X102870Y35687
X100330Y35687
X97790Y35687
X29210Y56007
X31750Y56007
X34290Y56007
X36830Y56007
X39370Y56007
X62230Y35687
X59690Y35687
X57150Y35687
X54610Y35687
X52070Y35687
X74930Y56007
X77470Y56007
X80010Y56007
X82550Y56007
X85090Y56007
X39370Y35733
X36830Y35733
X34290Y35733
X31750Y35733
X29210Y35733
X52070Y56007
X54610Y56007
X57150Y56007
X59690Y56007
X62230Y56007
X16510Y35814
X13970Y35814
X11430Y35814
X8890Y35814
X6350Y35814
X97790Y56007
X100330Y56007
X102870Y56007
X105410Y56007
X107950Y56007
X107950Y15493
X105410Y15493
X102870Y15493
X100330Y15493
X97790Y15493
X6350Y76200
X8890Y76200
X11430Y76200
X13970Y76200
X16510Y76200
X85090Y15493
X82550Y15493
X80010Y15493
X77470Y15493
X74930Y15493
X29210Y76327
X31750Y76327
X34290Y76327
X36830Y76327
X39370Y76327
X62230Y15493
X59690Y15493
X57150Y15493
X54610Y15493
X52070Y15493
X52070Y76327
X54610Y76327
X57150Y76327
X59690Y76327
X62230Y76327
X39370Y15493
X36830Y15493
X34290Y15493
X31750Y15493
X29210Y15493
X74930Y76327
X77470Y76327
X80010Y76327
X82550Y76327
X85090Y76327
X16510Y15494
X13970Y15494
X11430Y15494
X8890Y15494
X6350Y15494
X97790Y76200
X100330Y76200
X102870Y76200
X105410Y76200
X107950Y76200
M30