G04 EAGLE Gerber RS-274X export*
G75*
%MOMM*%
%FSLAX34Y34*%
%LPD*%
%INSoldermask Top*%
%IPPOS*%
%AMOC8*
5,1,8,0,0,1.08239X$1,22.5*%
G01*
G04 Define Apertures*
%ADD10C,2.953200*%
%ADD11C,2.387600*%
%ADD12C,1.403200*%
%ADD13C,2.082800*%
D10*
X203200Y25400D03*
X25400Y25400D03*
X203200Y177800D03*
X25400Y177800D03*
X254000Y25400D03*
X254000Y177800D03*
X431800Y25400D03*
X431800Y177800D03*
X482600Y25400D03*
X482600Y177800D03*
X660400Y25400D03*
X660400Y177800D03*
X711200Y25400D03*
X711200Y177800D03*
X889000Y25400D03*
X889000Y177800D03*
X939800Y25400D03*
X939800Y177800D03*
X1117600Y177800D03*
X1117600Y25400D03*
X25400Y225900D03*
X203200Y225900D03*
X254000Y225900D03*
X431800Y225900D03*
X482600Y225900D03*
X660400Y225900D03*
X711200Y225900D03*
X889000Y225900D03*
X939800Y225900D03*
X1117600Y225900D03*
X1117600Y425500D03*
X939800Y425500D03*
X889000Y425500D03*
X711200Y425500D03*
X660400Y425500D03*
X482600Y425500D03*
X431800Y425500D03*
X254000Y425500D03*
X203200Y425500D03*
X25400Y425500D03*
X25400Y626900D03*
X203200Y626900D03*
X254000Y626900D03*
X431800Y626900D03*
X482600Y626900D03*
X660400Y626900D03*
X711200Y626900D03*
X889000Y626900D03*
X939800Y626900D03*
X1117600Y626900D03*
X204470Y378300D03*
X25400Y378300D03*
X254000Y378300D03*
X431800Y378300D03*
X482600Y378300D03*
X660400Y378300D03*
X711200Y378300D03*
X889000Y378300D03*
X939800Y378300D03*
X1117600Y378300D03*
X1117600Y577900D03*
X939800Y577900D03*
X889000Y577900D03*
X711200Y577900D03*
X660400Y577900D03*
X482600Y577900D03*
X431800Y577900D03*
X254000Y577900D03*
X203200Y577900D03*
X25400Y577900D03*
X25400Y773900D03*
X203200Y773900D03*
X254000Y773900D03*
X431800Y773900D03*
X482600Y773900D03*
X660400Y773900D03*
X711200Y773900D03*
X889000Y773900D03*
X939800Y773900D03*
X1117600Y773900D03*
D11*
X114300Y36830D03*
X89300Y86830D03*
X64300Y86830D03*
X139300Y86830D03*
X164300Y86830D03*
D12*
X64300Y36830D03*
X64300Y11830D03*
X164300Y11830D03*
X164300Y36830D03*
X114300Y86830D03*
D13*
X63500Y154940D03*
X88900Y154940D03*
X114300Y154940D03*
X139700Y154940D03*
X165100Y154940D03*
D11*
X342900Y36830D03*
X317900Y86830D03*
X292900Y86830D03*
X367900Y86830D03*
X392900Y86830D03*
D12*
X292900Y36830D03*
X292900Y11830D03*
X392900Y11830D03*
X392900Y36830D03*
X342900Y86830D03*
D13*
X292100Y154930D03*
X317500Y154930D03*
X342900Y154930D03*
X368300Y154930D03*
X393700Y154930D03*
D11*
X571500Y36830D03*
X546500Y86830D03*
X521500Y86830D03*
X596500Y86830D03*
X621500Y86830D03*
D12*
X521500Y36830D03*
X521500Y11830D03*
X621500Y11830D03*
X621500Y36830D03*
X571500Y86830D03*
D13*
X520700Y154930D03*
X546100Y154930D03*
X571500Y154930D03*
X596900Y154930D03*
X622300Y154930D03*
D11*
X800100Y36830D03*
X775100Y86830D03*
X750100Y86830D03*
X825100Y86830D03*
X850100Y86830D03*
D12*
X750100Y36830D03*
X750100Y11830D03*
X850100Y11830D03*
X850100Y36830D03*
X800100Y86830D03*
D13*
X749300Y154930D03*
X774700Y154930D03*
X800100Y154930D03*
X825500Y154930D03*
X850900Y154930D03*
D11*
X1028700Y36830D03*
X1003700Y86830D03*
X978700Y86830D03*
X1053700Y86830D03*
X1078700Y86830D03*
D12*
X978700Y36830D03*
X978700Y11830D03*
X1078700Y11830D03*
X1078700Y36830D03*
X1028700Y86830D03*
D13*
X977900Y154930D03*
X1003300Y154930D03*
X1028700Y154930D03*
X1054100Y154930D03*
X1079500Y154930D03*
D11*
X113030Y243840D03*
X88030Y293840D03*
X63030Y293840D03*
X138030Y293840D03*
X163030Y293840D03*
D12*
X63030Y243840D03*
X63030Y218840D03*
X163030Y218840D03*
X163030Y243840D03*
X113030Y293840D03*
D13*
X63500Y358140D03*
X88900Y358140D03*
X114300Y358140D03*
X139700Y358140D03*
X165100Y358140D03*
D11*
X342900Y243840D03*
X317900Y293840D03*
X292900Y293840D03*
X367900Y293840D03*
X392900Y293840D03*
D12*
X292900Y243840D03*
X292900Y218840D03*
X392900Y218840D03*
X392900Y243840D03*
X342900Y293840D03*
D13*
X292100Y357333D03*
X317500Y357333D03*
X342900Y357333D03*
X368300Y357333D03*
X393700Y357333D03*
D11*
X571500Y243840D03*
X546500Y293840D03*
X521500Y293840D03*
X596500Y293840D03*
X621500Y293840D03*
D12*
X521500Y243840D03*
X521500Y218840D03*
X621500Y218840D03*
X621500Y243840D03*
X571500Y293840D03*
D13*
X520700Y356870D03*
X546100Y356870D03*
X571500Y356870D03*
X596900Y356870D03*
X622300Y356870D03*
D11*
X1028700Y243840D03*
X1003700Y293840D03*
X978700Y293840D03*
X1053700Y293840D03*
X1078700Y293840D03*
D12*
X978700Y243840D03*
X978700Y218840D03*
X1078700Y218840D03*
X1078700Y243840D03*
X1028700Y293840D03*
D13*
X977900Y356870D03*
X1003300Y356870D03*
X1028700Y356870D03*
X1054100Y356870D03*
X1079500Y356870D03*
D11*
X800100Y243840D03*
X775100Y293840D03*
X750100Y293840D03*
X825100Y293840D03*
X850100Y293840D03*
D12*
X750100Y243840D03*
X750100Y218840D03*
X850100Y218840D03*
X850100Y243840D03*
X800100Y293840D03*
D13*
X749300Y356870D03*
X774700Y356870D03*
X800100Y356870D03*
X825500Y356870D03*
X850900Y356870D03*
D11*
X114300Y443230D03*
X89300Y493230D03*
X64300Y493230D03*
X139300Y493230D03*
X164300Y493230D03*
D12*
X64300Y443230D03*
X64300Y418230D03*
X164300Y418230D03*
X164300Y443230D03*
X114300Y493230D03*
D13*
X63500Y561340D03*
X88900Y561340D03*
X114300Y561340D03*
X139700Y561340D03*
X165100Y561340D03*
D11*
X342900Y443230D03*
X317900Y493230D03*
X292900Y493230D03*
X367900Y493230D03*
X392900Y493230D03*
D12*
X292900Y443230D03*
X292900Y418230D03*
X392900Y418230D03*
X392900Y443230D03*
X342900Y493230D03*
D13*
X292100Y560070D03*
X317500Y560070D03*
X342900Y560070D03*
X368300Y560070D03*
X393700Y560070D03*
D11*
X800100Y443230D03*
X775100Y493230D03*
X750100Y493230D03*
X825100Y493230D03*
X850100Y493230D03*
D12*
X750100Y443230D03*
X750100Y418230D03*
X850100Y418230D03*
X850100Y443230D03*
X800100Y493230D03*
D13*
X749300Y560070D03*
X774700Y560070D03*
X800100Y560070D03*
X825500Y560070D03*
X850900Y560070D03*
D11*
X571500Y443230D03*
X546500Y493230D03*
X521500Y493230D03*
X596500Y493230D03*
X621500Y493230D03*
D12*
X521500Y443230D03*
X521500Y418230D03*
X621500Y418230D03*
X621500Y443230D03*
X571500Y493230D03*
D13*
X520700Y560070D03*
X546100Y560070D03*
X571500Y560070D03*
X596900Y560070D03*
X622300Y560070D03*
D11*
X1028700Y443230D03*
X1003700Y493230D03*
X978700Y493230D03*
X1053700Y493230D03*
X1078700Y493230D03*
D12*
X978700Y443230D03*
X978700Y418230D03*
X1078700Y418230D03*
X1078700Y443230D03*
X1028700Y493230D03*
D13*
X977900Y560070D03*
X1003300Y560070D03*
X1028700Y560070D03*
X1054100Y560070D03*
X1079500Y560070D03*
D11*
X114300Y645160D03*
X89300Y695160D03*
X64300Y695160D03*
X139300Y695160D03*
X164300Y695160D03*
D12*
X64300Y645160D03*
X64300Y620160D03*
X164300Y620160D03*
X164300Y645160D03*
X114300Y695160D03*
D13*
X63500Y762000D03*
X88900Y762000D03*
X114300Y762000D03*
X139700Y762000D03*
X165100Y762000D03*
D11*
X342900Y645160D03*
X317900Y695160D03*
X292900Y695160D03*
X367900Y695160D03*
X392900Y695160D03*
D12*
X292900Y645160D03*
X292900Y620160D03*
X392900Y620160D03*
X392900Y645160D03*
X342900Y695160D03*
D13*
X292100Y763270D03*
X317500Y763270D03*
X342900Y763270D03*
X368300Y763270D03*
X393700Y763270D03*
D11*
X571500Y645160D03*
X546500Y695160D03*
X521500Y695160D03*
X596500Y695160D03*
X621500Y695160D03*
D12*
X521500Y645160D03*
X521500Y620160D03*
X621500Y620160D03*
X621500Y645160D03*
X571500Y695160D03*
D13*
X520700Y763270D03*
X546100Y763270D03*
X571500Y763270D03*
X596900Y763270D03*
X622300Y763270D03*
D11*
X800100Y645160D03*
X775100Y695160D03*
X750100Y695160D03*
X825100Y695160D03*
X850100Y695160D03*
D12*
X750100Y645160D03*
X750100Y620160D03*
X850100Y620160D03*
X850100Y645160D03*
X800100Y695160D03*
D13*
X749300Y763270D03*
X774700Y763270D03*
X800100Y763270D03*
X825500Y763270D03*
X850900Y763270D03*
D11*
X1028700Y645160D03*
X1003700Y695160D03*
X978700Y695160D03*
X1053700Y695160D03*
X1078700Y695160D03*
D12*
X978700Y645160D03*
X978700Y620160D03*
X1078700Y620160D03*
X1078700Y645160D03*
X1028700Y695160D03*
D13*
X977900Y762000D03*
X1003300Y762000D03*
X1028700Y762000D03*
X1054100Y762000D03*
X1079500Y762000D03*
M02*
