G04 EAGLE Gerber RS-274X export*
G75*
%MOMM*%
%FSLAX34Y34*%
%LPD*%
%INTop Copper*%
%IPPOS*%
%AMOC8*
5,1,8,0,0,1.08239X$1,22.5*%
G01*
G04 Define Apertures*
%ADD10C,1.879600*%
%ADD11P,1.81452X8X202.5*%
%ADD12P,1.81452X8X22.5*%
%ADD13C,2.184400*%
%ADD14P,1.81452X8X112.5*%
%ADD15P,1.81452X8X292.5*%
%ADD16C,1.651000*%
%ADD17R,1.651000X1.651000*%
%ADD18R,1.308000X1.308000*%
%ADD19C,1.308000*%
%ADD20C,1.000000*%
%ADD21C,0.254000*%
%ADD22C,1.016000*%
%ADD23C,0.756400*%
D10*
X141100Y90550D03*
X141100Y115950D03*
X141100Y141350D03*
X141100Y166750D03*
X141100Y192150D03*
X141100Y217550D03*
X141100Y242950D03*
X141100Y268350D03*
X141100Y293750D03*
X141100Y319150D03*
D11*
X425450Y209550D03*
X400050Y209550D03*
D12*
X330950Y131350D03*
X356350Y131350D03*
D10*
X103000Y439800D03*
X103000Y414400D03*
X103000Y389000D03*
X103000Y363600D03*
X103000Y338200D03*
X103000Y285500D03*
X103000Y260100D03*
X103000Y234700D03*
X103000Y209300D03*
X103000Y183900D03*
X103000Y158500D03*
X103000Y133100D03*
X103000Y107700D03*
D13*
X381000Y38100D03*
X356000Y88100D03*
X331000Y88100D03*
X406000Y88100D03*
X431000Y88100D03*
D11*
X514350Y292100D03*
X412750Y292100D03*
D14*
X196850Y311150D03*
X196850Y412750D03*
D11*
X514350Y266700D03*
X412750Y266700D03*
D15*
X171450Y286512D03*
X171450Y184912D03*
D14*
X171450Y310388D03*
X171450Y411988D03*
D15*
X196850Y285750D03*
X196850Y184150D03*
D10*
X400095Y132858D03*
X425495Y132858D03*
X177892Y563842D03*
X152492Y563842D03*
X127092Y563842D03*
X208650Y563842D03*
X234050Y563842D03*
X259450Y563842D03*
X284850Y563842D03*
X310250Y563842D03*
X335650Y563842D03*
X181900Y523600D03*
X207300Y523600D03*
X232700Y523600D03*
X258100Y523600D03*
X402350Y366200D03*
X402350Y391600D03*
X402350Y417000D03*
X402350Y442400D03*
X402350Y467800D03*
X402350Y493200D03*
X402350Y518600D03*
X402350Y544000D03*
X402350Y569400D03*
X39500Y535050D03*
X39500Y509650D03*
X39500Y484250D03*
X39500Y458850D03*
X39500Y433450D03*
X39500Y408050D03*
X39500Y382650D03*
X39500Y357250D03*
X39500Y331850D03*
X39500Y306450D03*
X39500Y281050D03*
X39500Y255650D03*
X39500Y230250D03*
X64900Y230250D03*
X64900Y255650D03*
X64900Y281050D03*
X64900Y306450D03*
X64900Y331850D03*
X64900Y357250D03*
X64900Y382650D03*
X64900Y408050D03*
X64900Y433450D03*
X64900Y458850D03*
X64900Y484250D03*
X64900Y509650D03*
X64900Y535050D03*
X39500Y204850D03*
X64900Y204850D03*
X39500Y179450D03*
X64900Y179450D03*
X39500Y154050D03*
X64900Y154050D03*
X39500Y128650D03*
X64900Y128650D03*
X39500Y103250D03*
X64900Y103250D03*
X39500Y77850D03*
X64900Y77850D03*
X39500Y52450D03*
X64900Y52450D03*
D15*
X440800Y543700D03*
X440800Y518300D03*
X103000Y77850D03*
X103000Y52450D03*
D12*
X96650Y535050D03*
X122050Y535050D03*
D16*
X350000Y171350D03*
D17*
X350000Y196350D03*
D16*
X142200Y489600D03*
D17*
X117200Y489600D03*
D16*
X317500Y508200D03*
D17*
X317500Y533200D03*
D10*
X400050Y171450D03*
X425450Y171450D03*
D18*
X467500Y197600D03*
D19*
X467500Y177600D03*
X467500Y157600D03*
X467500Y137600D03*
X467500Y117600D03*
X467500Y97600D03*
X467500Y77600D03*
X467500Y57600D03*
X467500Y37600D03*
X467500Y17600D03*
D20*
X142200Y514900D02*
X122050Y535050D01*
X142200Y514900D02*
X142200Y489600D01*
D21*
X64900Y408050D02*
X103000Y363600D01*
D20*
X39500Y509650D02*
X39500Y535050D01*
D22*
X103000Y107700D02*
X103000Y77850D01*
X248300Y482600D02*
X207300Y523600D01*
X248300Y482600D02*
X304800Y482600D01*
X315550Y482600D01*
X402350Y569400D01*
D23*
X254000Y279400D03*
D22*
X254000Y349250D01*
X304800Y400050D01*
X304800Y482600D01*
X467450Y319950D02*
X473075Y325575D01*
X467450Y319950D02*
X457500Y310000D01*
X402500Y310000D01*
X352500Y260000D01*
X352500Y198850D01*
X350000Y196350D01*
X467450Y319950D02*
X484462Y302938D01*
X484462Y114562D01*
X467500Y97600D01*
X335141Y135541D02*
X335141Y181491D01*
X335141Y135541D02*
X330950Y131350D01*
X335141Y181491D02*
X350000Y196350D01*
X473075Y325575D02*
X473075Y511425D01*
X415100Y569400D02*
X402350Y569400D01*
X415100Y569400D02*
X440800Y543700D01*
X473075Y511425D01*
D20*
X96650Y535050D02*
X64900Y535050D01*
X96650Y535050D02*
X117200Y514500D01*
X117200Y489600D01*
X146050Y460750D01*
X146050Y438150D01*
D23*
X146050Y438150D03*
D21*
X328650Y477650D02*
X344000Y493000D01*
X402150Y493000D01*
X402350Y493200D01*
X52708Y72800D02*
X59850Y65658D01*
X52708Y76200D02*
X52708Y86992D01*
X52708Y76200D02*
X52708Y72800D01*
X328650Y260858D02*
X328650Y477650D01*
X133450Y65658D02*
X59850Y65658D01*
X133450Y65658D02*
X328650Y260858D01*
X52708Y91058D02*
X52708Y86992D01*
X52708Y91058D02*
X64900Y103250D01*
X338424Y262224D02*
X339971Y405421D01*
X340000Y405450D01*
X340000Y473000D01*
X350000Y483000D01*
X387150Y483000D01*
X402350Y467800D01*
X39500Y52450D02*
X51692Y40258D01*
X116458Y40258D02*
X338424Y262224D01*
X116458Y40258D02*
X51692Y40258D01*
X91792Y312800D02*
X103000Y312800D01*
D23*
X103000Y312800D03*
X349400Y329800D03*
D21*
X349400Y466400D01*
X356000Y473000D01*
X371750Y473000D01*
X402350Y442400D01*
X39500Y433450D02*
X26000Y419950D01*
X26000Y327000D01*
X33342Y319658D01*
X84934Y319658D01*
X91792Y312800D01*
D23*
X446000Y249000D03*
D22*
X446000Y97886D01*
X448526Y95360D01*
X448526Y69474D02*
X449000Y69000D01*
X448526Y69474D02*
X448526Y95360D01*
X449000Y69000D02*
X439340Y59340D01*
X422202Y59340D01*
X400962Y38100D02*
X381000Y38100D01*
X400962Y38100D02*
X422202Y59340D01*
D23*
X413000Y233000D03*
D21*
X413258Y232742D01*
X413258Y157258D01*
X413000Y157000D01*
X413258Y157258D02*
X413258Y105842D01*
X431000Y88100D01*
X120650Y172027D02*
X103000Y158500D01*
X120650Y172027D02*
X120650Y295750D01*
X115700Y300700D01*
X70650Y300700D01*
X64900Y306450D01*
X114300Y191241D02*
X103000Y183900D01*
X64900Y255650D02*
X81542Y272292D01*
X108050Y272292D01*
X115192Y265150D01*
X115192Y192133D01*
X114300Y191241D01*
X103000Y209300D02*
X88900Y197309D01*
X88900Y101900D01*
X64900Y77900D02*
X64900Y77850D01*
X64900Y77900D02*
X88900Y101900D01*
X82550Y145550D02*
X82550Y216290D01*
X103000Y234700D01*
X82550Y145550D02*
X65650Y128650D01*
X64900Y128650D01*
X64900Y154050D02*
X64900Y162208D01*
X77092Y174400D01*
X77092Y238092D01*
X99100Y260100D01*
X103000Y260100D01*
X52000Y166550D02*
X39500Y154050D01*
X52000Y166550D02*
X52000Y263000D01*
X57858Y268858D01*
X69950Y268858D01*
X80092Y279000D01*
X86592Y285500D01*
X103000Y285500D01*
X82550Y466600D02*
X64900Y484250D01*
X82550Y466600D02*
X82550Y457200D01*
X82550Y450850D01*
X127000Y282450D02*
X141100Y268350D01*
X127000Y282450D02*
X127000Y330200D01*
X82550Y435450D02*
X82550Y450850D01*
X82550Y435450D02*
X91000Y427000D01*
X108000Y427000D01*
X117000Y418000D01*
X117000Y340200D01*
X127000Y330200D01*
X158750Y260600D02*
X141100Y242950D01*
X124000Y450550D02*
X64900Y509650D01*
X124000Y450550D02*
X124000Y350000D01*
X135400Y338600D01*
X136000Y338000D01*
X135400Y338600D02*
X147400Y338600D01*
X158750Y327250D01*
X158750Y260600D01*
X171432Y286512D02*
X171450Y286512D01*
X171432Y286512D02*
X171450Y310388D01*
X171450Y286512D02*
X171450Y200717D01*
X141100Y172100D02*
X141100Y166750D01*
X141100Y172100D02*
X169717Y200717D01*
X171450Y200717D01*
X196850Y285750D02*
X196850Y311150D01*
X196850Y285750D02*
X184150Y273050D01*
X184150Y171450D01*
X154050Y141350D01*
X141100Y141350D01*
X514350Y266700D02*
X514350Y292100D01*
X412750Y292100D02*
X375000Y254350D01*
X375000Y106750D01*
X356350Y88100D01*
X356000Y88100D01*
X381000Y234950D02*
X412750Y266700D01*
X381000Y234950D02*
X381000Y112750D01*
X405650Y88100D01*
X406000Y88100D01*
X103000Y414400D02*
X93600Y414400D01*
X103000Y414400D02*
X75792Y414400D01*
X69950Y420242D01*
X59850Y420242D01*
X59608Y420000D01*
X58000Y420000D01*
X52000Y414000D01*
X52000Y370150D01*
X64900Y357250D01*
D22*
X267700Y533200D02*
X317500Y533200D01*
X267700Y533200D02*
X258100Y523600D01*
D20*
X317500Y545692D02*
X335650Y563842D01*
X317500Y545692D02*
X317500Y533200D01*
D21*
X196850Y412750D02*
X194708Y414892D01*
X194708Y532658D01*
X213700Y551650D01*
X272658Y551650D01*
X284850Y563842D01*
M02*
