G04 EAGLE Gerber RS-274X export*
G75*
%MOMM*%
%FSLAX34Y34*%
%LPD*%
%INBottom Copper*%
%IPPOS*%
%AMOC8*
5,1,8,0,0,1.08239X$1,22.5*%
G01*
G04 Define Apertures*
%ADD10C,1.879600*%
%ADD11P,1.81452X8X202.5*%
%ADD12P,1.81452X8X22.5*%
%ADD13C,2.184400*%
%ADD14P,1.81452X8X112.5*%
%ADD15P,1.81452X8X292.5*%
%ADD16C,1.651000*%
%ADD17R,1.651000X1.651000*%
%ADD18R,1.308000X1.308000*%
%ADD19C,1.308000*%
%ADD20C,0.254000*%
%ADD21C,1.016000*%
%ADD22C,0.756400*%
%ADD23C,1.000000*%
%ADD24C,0.508000*%
G36*
X299535Y10220D02*
X299238Y10160D01*
X10922Y10160D01*
X10647Y10211D01*
X10392Y10375D01*
X10220Y10625D01*
X10160Y10922D01*
X10160Y582678D01*
X10211Y582953D01*
X10375Y583208D01*
X10625Y583380D01*
X10922Y583440D01*
X359238Y583440D01*
X359513Y583389D01*
X359768Y583225D01*
X359940Y582975D01*
X360000Y582678D01*
X360000Y497000D01*
X369000Y497000D01*
X369000Y582678D01*
X369051Y582953D01*
X369215Y583208D01*
X369465Y583380D01*
X369762Y583440D01*
X623878Y583440D01*
X624153Y583389D01*
X624408Y583225D01*
X624580Y582975D01*
X624640Y582678D01*
X624640Y10922D01*
X624589Y10647D01*
X624425Y10392D01*
X624175Y10220D01*
X623878Y10160D01*
X474741Y10160D01*
X474477Y10207D01*
X474219Y10366D01*
X474044Y10614D01*
X473979Y10910D01*
X474034Y11208D01*
X474202Y11461D01*
X475198Y12457D01*
X476580Y15794D01*
X476580Y16838D01*
X458420Y16838D01*
X458420Y15794D01*
X459802Y12457D01*
X460798Y11461D01*
X460951Y11241D01*
X461021Y10946D01*
X460970Y10647D01*
X460807Y10392D01*
X460557Y10220D01*
X460259Y10160D01*
X447922Y10160D01*
X447647Y10211D01*
X447392Y10375D01*
X447220Y10625D01*
X447160Y10922D01*
X447160Y16314D01*
X444700Y22254D01*
X441893Y25061D01*
X441735Y25292D01*
X441669Y25588D01*
X441725Y25886D01*
X441893Y26139D01*
X444700Y28946D01*
X447160Y34886D01*
X447160Y41314D01*
X444700Y47254D01*
X440154Y51800D01*
X434214Y54260D01*
X427786Y54260D01*
X421846Y51800D01*
X417300Y47254D01*
X414840Y41314D01*
X414840Y34886D01*
X417300Y28946D01*
X420108Y26139D01*
X420266Y25908D01*
X420331Y25612D01*
X420275Y25314D01*
X420108Y25061D01*
X417300Y22254D01*
X414840Y16314D01*
X414840Y10922D01*
X414789Y10647D01*
X414625Y10392D01*
X414375Y10220D01*
X414078Y10160D01*
X347922Y10160D01*
X347647Y10211D01*
X347392Y10375D01*
X347220Y10625D01*
X347160Y10922D01*
X347160Y16314D01*
X344700Y22254D01*
X341893Y25061D01*
X341735Y25292D01*
X341669Y25588D01*
X341725Y25886D01*
X341893Y26139D01*
X344700Y28946D01*
X347160Y34886D01*
X347160Y41314D01*
X344700Y47254D01*
X340154Y51800D01*
X334214Y54260D01*
X327786Y54260D01*
X321846Y51800D01*
X317300Y47254D01*
X314840Y41314D01*
X314840Y34886D01*
X317300Y28946D01*
X320108Y26139D01*
X320266Y25908D01*
X320331Y25612D01*
X320275Y25314D01*
X320108Y25061D01*
X317300Y22254D01*
X314840Y16314D01*
X314840Y10922D01*
X314789Y10647D01*
X314625Y10392D01*
X314375Y10220D01*
X314078Y10160D01*
X310762Y10160D01*
X310487Y10211D01*
X310232Y10375D01*
X310060Y10625D01*
X310000Y10922D01*
X310000Y219238D01*
X310051Y219513D01*
X310215Y219768D01*
X310465Y219940D01*
X310762Y220000D01*
X370000Y220000D01*
X370000Y388011D01*
X369860Y388218D01*
X369800Y388516D01*
X369800Y467700D01*
X359800Y467700D01*
X359800Y387689D01*
X359940Y387482D01*
X360000Y387184D01*
X360000Y230762D01*
X359949Y230487D01*
X359785Y230232D01*
X359535Y230060D01*
X359238Y230000D01*
X300000Y230000D01*
X300000Y10922D01*
X299949Y10647D01*
X299785Y10392D01*
X299535Y10220D01*
G37*
%LPC*%
G36*
X400177Y558478D02*
X404523Y558478D01*
X408537Y560141D01*
X411609Y563213D01*
X413272Y567227D01*
X413272Y571573D01*
X411609Y575587D01*
X408537Y578659D01*
X404523Y580322D01*
X400177Y580322D01*
X396163Y578659D01*
X393091Y575587D01*
X391428Y571573D01*
X391428Y567227D01*
X393091Y563213D01*
X396163Y560141D01*
X400177Y558478D01*
G37*
G36*
X311012Y564604D02*
X322188Y564604D01*
X322188Y566217D01*
X320371Y570604D01*
X317012Y573963D01*
X312625Y575780D01*
X311012Y575780D01*
X311012Y564604D01*
G37*
G36*
X247512Y564604D02*
X258688Y564604D01*
X258688Y575780D01*
X257075Y575780D01*
X252688Y573963D01*
X249329Y570604D01*
X247512Y566217D01*
X247512Y564604D01*
G37*
G36*
X115154Y564604D02*
X126330Y564604D01*
X126330Y575780D01*
X124717Y575780D01*
X120330Y573963D01*
X116971Y570604D01*
X115154Y566217D01*
X115154Y564604D01*
G37*
G36*
X127854Y564604D02*
X139030Y564604D01*
X139030Y566217D01*
X137213Y570604D01*
X133854Y573963D01*
X129467Y575780D01*
X127854Y575780D01*
X127854Y564604D01*
G37*
G36*
X260212Y564604D02*
X271388Y564604D01*
X271388Y566217D01*
X269571Y570604D01*
X266212Y573963D01*
X261825Y575780D01*
X260212Y575780D01*
X260212Y564604D01*
G37*
G36*
X298312Y564604D02*
X309488Y564604D01*
X309488Y575780D01*
X307875Y575780D01*
X303488Y573963D01*
X300129Y570604D01*
X298312Y566217D01*
X298312Y564604D01*
G37*
G36*
X333477Y552920D02*
X337823Y552920D01*
X341837Y554583D01*
X344909Y557655D01*
X346572Y561669D01*
X346572Y566015D01*
X344909Y570029D01*
X341837Y573101D01*
X337823Y574764D01*
X333477Y574764D01*
X329463Y573101D01*
X326391Y570029D01*
X324728Y566015D01*
X324728Y561669D01*
X326391Y557655D01*
X329463Y554583D01*
X333477Y552920D01*
G37*
G36*
X231877Y552920D02*
X236223Y552920D01*
X240237Y554583D01*
X243309Y557655D01*
X244972Y561669D01*
X244972Y566015D01*
X243309Y570029D01*
X240237Y573101D01*
X236223Y574764D01*
X231877Y574764D01*
X227863Y573101D01*
X224791Y570029D01*
X223128Y566015D01*
X223128Y561669D01*
X224791Y557655D01*
X227863Y554583D01*
X231877Y552920D01*
G37*
G36*
X282677Y552920D02*
X287023Y552920D01*
X291037Y554583D01*
X294109Y557655D01*
X295772Y561669D01*
X295772Y566015D01*
X294109Y570029D01*
X291037Y573101D01*
X287023Y574764D01*
X282677Y574764D01*
X278663Y573101D01*
X275591Y570029D01*
X273928Y566015D01*
X273928Y561669D01*
X275591Y557655D01*
X278663Y554583D01*
X282677Y552920D01*
G37*
G36*
X179727Y512678D02*
X184073Y512678D01*
X188087Y514341D01*
X191159Y517413D01*
X192822Y521427D01*
X192822Y525773D01*
X191159Y529787D01*
X188087Y532859D01*
X185164Y534070D01*
X184926Y534226D01*
X184754Y534477D01*
X184694Y534774D01*
X184694Y535591D01*
X162369Y557917D01*
X162208Y558153D01*
X162146Y558449D01*
X162204Y558747D01*
X163414Y561669D01*
X163414Y566015D01*
X161751Y570029D01*
X158679Y573101D01*
X154665Y574764D01*
X150319Y574764D01*
X146305Y573101D01*
X143233Y570029D01*
X141570Y566015D01*
X141570Y561669D01*
X143233Y557655D01*
X146305Y554583D01*
X150319Y552920D01*
X154665Y552920D01*
X157587Y554131D01*
X157866Y554188D01*
X158165Y554133D01*
X158417Y553965D01*
X177601Y534782D01*
X177757Y534557D01*
X177824Y534261D01*
X177771Y533962D01*
X177605Y533708D01*
X177354Y533539D01*
X175713Y532859D01*
X172641Y529787D01*
X170978Y525773D01*
X170978Y521427D01*
X172641Y517413D01*
X175713Y514341D01*
X179727Y512678D01*
G37*
G36*
X175719Y552920D02*
X180065Y552920D01*
X184079Y554583D01*
X187151Y557655D01*
X188814Y561669D01*
X188814Y566015D01*
X187151Y570029D01*
X184079Y573101D01*
X180065Y574764D01*
X175719Y574764D01*
X171705Y573101D01*
X168633Y570029D01*
X166970Y566015D01*
X166970Y561669D01*
X168633Y557655D01*
X171705Y554583D01*
X175719Y552920D01*
G37*
G36*
X206477Y552920D02*
X210823Y552920D01*
X214837Y554583D01*
X217909Y557655D01*
X219572Y561669D01*
X219572Y566015D01*
X217909Y570029D01*
X214837Y573101D01*
X210823Y574764D01*
X206477Y574764D01*
X202463Y573101D01*
X199391Y570029D01*
X197728Y566015D01*
X197728Y561669D01*
X199391Y557655D01*
X202463Y554583D01*
X206477Y552920D01*
G37*
G36*
X124717Y551904D02*
X126330Y551904D01*
X126330Y563080D01*
X115154Y563080D01*
X115154Y561467D01*
X116971Y557080D01*
X120330Y553721D01*
X124717Y551904D01*
G37*
G36*
X311012Y551904D02*
X312625Y551904D01*
X317012Y553721D01*
X320371Y557080D01*
X322188Y561467D01*
X322188Y563080D01*
X311012Y563080D01*
X311012Y551904D01*
G37*
G36*
X307875Y551904D02*
X309488Y551904D01*
X309488Y563080D01*
X298312Y563080D01*
X298312Y561467D01*
X300129Y557080D01*
X303488Y553721D01*
X307875Y551904D01*
G37*
G36*
X260212Y551904D02*
X261825Y551904D01*
X266212Y553721D01*
X269571Y557080D01*
X271388Y561467D01*
X271388Y563080D01*
X260212Y563080D01*
X260212Y551904D01*
G37*
G36*
X257075Y551904D02*
X258688Y551904D01*
X258688Y563080D01*
X247512Y563080D01*
X247512Y561467D01*
X249329Y557080D01*
X252688Y553721D01*
X257075Y551904D01*
G37*
G36*
X127854Y551904D02*
X129467Y551904D01*
X133854Y553721D01*
X137213Y557080D01*
X139030Y561467D01*
X139030Y563080D01*
X127854Y563080D01*
X127854Y551904D01*
G37*
G36*
X100827Y428878D02*
X105173Y428878D01*
X109187Y430541D01*
X112259Y433613D01*
X113922Y437627D01*
X113922Y441067D01*
X113978Y441353D01*
X114145Y441606D01*
X135612Y463073D01*
X135854Y463236D01*
X136151Y463296D01*
X179114Y463296D01*
X181541Y464301D01*
X212899Y495659D01*
X213904Y498086D01*
X213904Y514442D01*
X213960Y514728D01*
X214127Y514981D01*
X216559Y517413D01*
X218222Y521427D01*
X218222Y525773D01*
X216559Y529787D01*
X213487Y532859D01*
X209473Y534522D01*
X205127Y534522D01*
X201113Y532859D01*
X198041Y529787D01*
X196378Y525773D01*
X196378Y521427D01*
X198041Y517413D01*
X200473Y514981D01*
X200636Y514740D01*
X200696Y514442D01*
X200696Y502451D01*
X200640Y502165D01*
X200473Y501912D01*
X175288Y476727D01*
X175046Y476564D01*
X174749Y476504D01*
X131786Y476504D01*
X129359Y475499D01*
X104806Y450945D01*
X104564Y450782D01*
X104267Y450722D01*
X101733Y450722D01*
X101447Y450778D01*
X101194Y450945D01*
X88491Y463648D01*
X88328Y463890D01*
X88268Y464187D01*
X88268Y527583D01*
X88315Y527847D01*
X88474Y528105D01*
X88722Y528280D01*
X89018Y528345D01*
X89316Y528290D01*
X89569Y528122D01*
X92547Y525144D01*
X100753Y525144D01*
X106556Y530947D01*
X106556Y539153D01*
X100753Y544956D01*
X92547Y544956D01*
X89529Y541938D01*
X89304Y541783D01*
X89009Y541715D01*
X88710Y541769D01*
X88456Y541934D01*
X88286Y542186D01*
X87263Y544657D01*
X75269Y556651D01*
X72842Y557656D01*
X45738Y557656D01*
X43311Y556651D01*
X33901Y547241D01*
X32896Y544814D01*
X32896Y544208D01*
X32840Y543922D01*
X32673Y543669D01*
X30241Y541237D01*
X28578Y537223D01*
X28578Y532877D01*
X30241Y528863D01*
X33313Y525791D01*
X37327Y524128D01*
X41673Y524128D01*
X45687Y525791D01*
X48759Y528863D01*
X50422Y532877D01*
X50422Y537223D01*
X48759Y541237D01*
X48207Y541790D01*
X48049Y542020D01*
X47984Y542316D01*
X48039Y542614D01*
X48207Y542867D01*
X49564Y544225D01*
X49806Y544388D01*
X50103Y544448D01*
X57012Y544448D01*
X57276Y544401D01*
X57534Y544242D01*
X57709Y543994D01*
X57774Y543698D01*
X57719Y543400D01*
X57551Y543147D01*
X55641Y541237D01*
X53978Y537223D01*
X53978Y532877D01*
X55641Y528863D01*
X58713Y525791D01*
X62727Y524128D01*
X67073Y524128D01*
X71087Y525791D01*
X73759Y528463D01*
X73979Y528616D01*
X74274Y528686D01*
X74573Y528635D01*
X74828Y528472D01*
X75000Y528222D01*
X75060Y527924D01*
X75060Y516776D01*
X75013Y516512D01*
X74854Y516254D01*
X74606Y516079D01*
X74310Y516014D01*
X74012Y516069D01*
X73759Y516237D01*
X71087Y518909D01*
X67073Y520572D01*
X62727Y520572D01*
X58713Y518909D01*
X55641Y515837D01*
X53978Y511823D01*
X53978Y507477D01*
X55641Y503463D01*
X58713Y500391D01*
X62727Y498728D01*
X67073Y498728D01*
X71087Y500391D01*
X73759Y503063D01*
X73979Y503216D01*
X74274Y503286D01*
X74573Y503235D01*
X74828Y503072D01*
X75000Y502822D01*
X75060Y502524D01*
X75060Y491376D01*
X75013Y491112D01*
X74854Y490854D01*
X74606Y490679D01*
X74310Y490614D01*
X74012Y490669D01*
X73759Y490837D01*
X71087Y493509D01*
X67073Y495172D01*
X62727Y495172D01*
X58713Y493509D01*
X55641Y490437D01*
X53978Y486423D01*
X53978Y482077D01*
X55641Y478063D01*
X58713Y474991D01*
X62727Y473328D01*
X67073Y473328D01*
X71087Y474991D01*
X73759Y477663D01*
X73979Y477816D01*
X74274Y477886D01*
X74573Y477835D01*
X74828Y477672D01*
X75000Y477422D01*
X75060Y477124D01*
X75060Y465976D01*
X75013Y465712D01*
X74854Y465454D01*
X74606Y465279D01*
X74310Y465214D01*
X74012Y465269D01*
X73759Y465437D01*
X71087Y468109D01*
X67073Y469772D01*
X62727Y469772D01*
X58713Y468109D01*
X55641Y465037D01*
X53978Y461023D01*
X53978Y456677D01*
X55641Y452663D01*
X58713Y449591D01*
X62727Y447928D01*
X67073Y447928D01*
X71087Y449591D01*
X74159Y452663D01*
X75667Y456303D01*
X75815Y456533D01*
X76063Y456709D01*
X76359Y456774D01*
X76657Y456718D01*
X76910Y456551D01*
X91855Y441606D01*
X92018Y441364D01*
X92078Y441067D01*
X92078Y437627D01*
X93741Y433613D01*
X96813Y430541D01*
X100827Y428878D01*
G37*
G36*
X400177Y533078D02*
X404523Y533078D01*
X408537Y534741D01*
X411609Y537813D01*
X413272Y541827D01*
X413272Y546173D01*
X411609Y550187D01*
X408537Y553259D01*
X404523Y554922D01*
X400177Y554922D01*
X396163Y553259D01*
X393091Y550187D01*
X391428Y546173D01*
X391428Y541827D01*
X393091Y537813D01*
X396163Y534741D01*
X400177Y533078D01*
G37*
G36*
X436697Y533794D02*
X444903Y533794D01*
X450706Y539597D01*
X450706Y547803D01*
X444903Y553606D01*
X436697Y553606D01*
X430894Y547803D01*
X430894Y539597D01*
X436697Y533794D01*
G37*
G36*
X122812Y535812D02*
X132972Y535812D01*
X132972Y539574D01*
X126574Y545972D01*
X122812Y545972D01*
X122812Y535812D01*
G37*
G36*
X111128Y535812D02*
X121288Y535812D01*
X121288Y545972D01*
X117526Y545972D01*
X111128Y539574D01*
X111128Y535812D01*
G37*
G36*
X308614Y523421D02*
X326386Y523421D01*
X327279Y524314D01*
X327279Y542086D01*
X326386Y542979D01*
X308614Y542979D01*
X307721Y542086D01*
X307721Y524314D01*
X308614Y523421D01*
G37*
G36*
X220762Y524362D02*
X231938Y524362D01*
X231938Y535538D01*
X230325Y535538D01*
X225938Y533721D01*
X222579Y530362D01*
X220762Y525975D01*
X220762Y524362D01*
G37*
G36*
X233462Y524362D02*
X244638Y524362D01*
X244638Y525975D01*
X242821Y530362D01*
X239462Y533721D01*
X235075Y535538D01*
X233462Y535538D01*
X233462Y524362D01*
G37*
G36*
X167347Y402082D02*
X175553Y402082D01*
X181356Y407885D01*
X181356Y413001D01*
X181412Y413287D01*
X181579Y413540D01*
X185643Y417604D01*
X185863Y417757D01*
X186158Y417827D01*
X186457Y417776D01*
X186712Y417612D01*
X186884Y417362D01*
X186944Y417065D01*
X186944Y408647D01*
X192747Y402844D01*
X200953Y402844D01*
X206756Y408647D01*
X206756Y416853D01*
X200953Y422656D01*
X192535Y422656D01*
X192272Y422703D01*
X192014Y422862D01*
X191838Y423110D01*
X191773Y423406D01*
X191829Y423704D01*
X191996Y423957D01*
X205712Y437673D01*
X205954Y437836D01*
X206251Y437896D01*
X259414Y437896D01*
X261841Y438901D01*
X263699Y440759D01*
X264704Y443186D01*
X264704Y514442D01*
X264760Y514728D01*
X264927Y514981D01*
X267359Y517413D01*
X269022Y521427D01*
X269022Y525773D01*
X267359Y529787D01*
X264287Y532859D01*
X260273Y534522D01*
X255927Y534522D01*
X251913Y532859D01*
X248841Y529787D01*
X247178Y525773D01*
X247178Y521427D01*
X248841Y517413D01*
X251273Y514981D01*
X251436Y514740D01*
X251496Y514442D01*
X251496Y451866D01*
X251445Y451591D01*
X251281Y451336D01*
X251031Y451164D01*
X250734Y451104D01*
X201886Y451104D01*
X199459Y450099D01*
X171478Y422117D01*
X171236Y421954D01*
X170939Y421894D01*
X167347Y421894D01*
X161544Y416091D01*
X161544Y407885D01*
X167347Y402082D01*
G37*
G36*
X122812Y524128D02*
X126574Y524128D01*
X132972Y530526D01*
X132972Y534288D01*
X122812Y534288D01*
X122812Y524128D01*
G37*
G36*
X117526Y524128D02*
X121288Y524128D01*
X121288Y534288D01*
X111128Y534288D01*
X111128Y530526D01*
X117526Y524128D01*
G37*
G36*
X403112Y519362D02*
X414288Y519362D01*
X414288Y520975D01*
X412471Y525362D01*
X409112Y528721D01*
X404725Y530538D01*
X403112Y530538D01*
X403112Y519362D01*
G37*
G36*
X390412Y519362D02*
X401588Y519362D01*
X401588Y530538D01*
X399975Y530538D01*
X395588Y528721D01*
X392229Y525362D01*
X390412Y520975D01*
X390412Y519362D01*
G37*
G36*
X441562Y519062D02*
X451722Y519062D01*
X451722Y522824D01*
X445324Y529222D01*
X441562Y529222D01*
X441562Y519062D01*
G37*
G36*
X429878Y519062D02*
X440038Y519062D01*
X440038Y529222D01*
X436276Y529222D01*
X429878Y522824D01*
X429878Y519062D01*
G37*
G36*
X233462Y511662D02*
X235075Y511662D01*
X239462Y513479D01*
X242821Y516838D01*
X244638Y521225D01*
X244638Y522838D01*
X233462Y522838D01*
X233462Y511662D01*
G37*
G36*
X230325Y511662D02*
X231938Y511662D01*
X231938Y522838D01*
X220762Y522838D01*
X220762Y521225D01*
X222579Y516838D01*
X225938Y513479D01*
X230325Y511662D01*
G37*
G36*
X37327Y498728D02*
X41673Y498728D01*
X45687Y500391D01*
X48759Y503463D01*
X50422Y507477D01*
X50422Y511823D01*
X48759Y515837D01*
X45687Y518909D01*
X41673Y520572D01*
X37327Y520572D01*
X33313Y518909D01*
X30241Y515837D01*
X28578Y511823D01*
X28578Y507477D01*
X30241Y503463D01*
X33313Y500391D01*
X37327Y498728D01*
G37*
G36*
X306705Y508962D02*
X316738Y508962D01*
X316738Y518995D01*
X315353Y518995D01*
X311385Y517352D01*
X308348Y514315D01*
X306705Y510347D01*
X306705Y508962D01*
G37*
G36*
X318262Y508962D02*
X328295Y508962D01*
X328295Y510347D01*
X326652Y514315D01*
X323615Y517352D01*
X319647Y518995D01*
X318262Y518995D01*
X318262Y508962D01*
G37*
G36*
X403112Y506662D02*
X404725Y506662D01*
X409112Y508479D01*
X412471Y511838D01*
X414288Y516225D01*
X414288Y517838D01*
X403112Y517838D01*
X403112Y506662D01*
G37*
G36*
X399975Y506662D02*
X401588Y506662D01*
X401588Y517838D01*
X390412Y517838D01*
X390412Y516225D01*
X392229Y511838D01*
X395588Y508479D01*
X399975Y506662D01*
G37*
G36*
X436276Y507378D02*
X440038Y507378D01*
X440038Y517538D01*
X429878Y517538D01*
X429878Y513776D01*
X436276Y507378D01*
G37*
G36*
X441562Y507378D02*
X445324Y507378D01*
X451722Y513776D01*
X451722Y517538D01*
X441562Y517538D01*
X441562Y507378D01*
G37*
G36*
X315353Y497405D02*
X316738Y497405D01*
X316738Y507438D01*
X306705Y507438D01*
X306705Y506053D01*
X308348Y502085D01*
X311385Y499048D01*
X315353Y497405D01*
G37*
G36*
X318262Y497405D02*
X319647Y497405D01*
X323615Y499048D01*
X326652Y502085D01*
X328295Y506053D01*
X328295Y507438D01*
X318262Y507438D01*
X318262Y497405D01*
G37*
G36*
X400177Y482278D02*
X404523Y482278D01*
X408537Y483941D01*
X411609Y487013D01*
X413272Y491027D01*
X413272Y495373D01*
X411609Y499387D01*
X408537Y502459D01*
X404523Y504122D01*
X400177Y504122D01*
X396163Y502459D01*
X393091Y499387D01*
X391428Y495373D01*
X391428Y491027D01*
X393091Y487013D01*
X396163Y483941D01*
X400177Y482278D01*
G37*
G36*
X131405Y490362D02*
X141438Y490362D01*
X141438Y500395D01*
X140053Y500395D01*
X136085Y498752D01*
X133048Y495715D01*
X131405Y491747D01*
X131405Y490362D01*
G37*
G36*
X142962Y490362D02*
X152995Y490362D01*
X152995Y491747D01*
X151352Y495715D01*
X148315Y498752D01*
X144347Y500395D01*
X142962Y500395D01*
X142962Y490362D01*
G37*
G36*
X108314Y479821D02*
X126086Y479821D01*
X126979Y480714D01*
X126979Y498486D01*
X126086Y499379D01*
X108314Y499379D01*
X107421Y498486D01*
X107421Y480714D01*
X108314Y479821D01*
G37*
G36*
X27562Y485012D02*
X38738Y485012D01*
X38738Y496188D01*
X37125Y496188D01*
X32738Y494371D01*
X29379Y491012D01*
X27562Y486625D01*
X27562Y485012D01*
G37*
G36*
X40262Y485012D02*
X51438Y485012D01*
X51438Y486625D01*
X49621Y491012D01*
X46262Y494371D01*
X41875Y496188D01*
X40262Y496188D01*
X40262Y485012D01*
G37*
G36*
X140053Y478805D02*
X141438Y478805D01*
X141438Y488838D01*
X131405Y488838D01*
X131405Y487453D01*
X133048Y483485D01*
X136085Y480448D01*
X140053Y478805D01*
G37*
G36*
X142962Y478805D02*
X144347Y478805D01*
X148315Y480448D01*
X151352Y483485D01*
X152995Y487453D01*
X152995Y488838D01*
X142962Y488838D01*
X142962Y478805D01*
G37*
G36*
X37125Y472312D02*
X38738Y472312D01*
X38738Y483488D01*
X27562Y483488D01*
X27562Y481875D01*
X29379Y477488D01*
X32738Y474129D01*
X37125Y472312D01*
G37*
G36*
X40262Y472312D02*
X41875Y472312D01*
X46262Y474129D01*
X49621Y477488D01*
X51438Y481875D01*
X51438Y483488D01*
X40262Y483488D01*
X40262Y472312D01*
G37*
G36*
X400177Y456878D02*
X404523Y456878D01*
X408537Y458541D01*
X411609Y461613D01*
X413272Y465627D01*
X413272Y469973D01*
X411609Y473987D01*
X408537Y477059D01*
X404523Y478722D01*
X400177Y478722D01*
X396163Y477059D01*
X393091Y473987D01*
X391428Y469973D01*
X391428Y465627D01*
X393091Y461613D01*
X396163Y458541D01*
X400177Y456878D01*
G37*
G36*
X37327Y447928D02*
X41673Y447928D01*
X45687Y449591D01*
X48759Y452663D01*
X50422Y456677D01*
X50422Y461023D01*
X48759Y465037D01*
X45687Y468109D01*
X41673Y469772D01*
X37327Y469772D01*
X33313Y468109D01*
X30241Y465037D01*
X28578Y461023D01*
X28578Y456677D01*
X30241Y452663D01*
X33313Y449591D01*
X37327Y447928D01*
G37*
G36*
X400177Y431478D02*
X404523Y431478D01*
X408537Y433141D01*
X411609Y436213D01*
X413272Y440227D01*
X413272Y444573D01*
X411609Y448587D01*
X408537Y451659D01*
X404523Y453322D01*
X400177Y453322D01*
X396163Y451659D01*
X393091Y448587D01*
X391428Y444573D01*
X391428Y440227D01*
X393091Y436213D01*
X396163Y433141D01*
X400177Y431478D01*
G37*
G36*
X65662Y434212D02*
X76838Y434212D01*
X76838Y435825D01*
X75021Y440212D01*
X71662Y443571D01*
X67275Y445388D01*
X65662Y445388D01*
X65662Y434212D01*
G37*
G36*
X52962Y434212D02*
X64138Y434212D01*
X64138Y445388D01*
X62525Y445388D01*
X58138Y443571D01*
X54779Y440212D01*
X52962Y435825D01*
X52962Y434212D01*
G37*
G36*
X192747Y275844D02*
X200953Y275844D01*
X206756Y281647D01*
X206756Y289853D01*
X201492Y295117D01*
X201339Y295337D01*
X201269Y295632D01*
X201320Y295931D01*
X201483Y296186D01*
X201734Y296358D01*
X202031Y296418D01*
X205369Y296418D01*
X235734Y326783D01*
X235976Y326946D01*
X236273Y327006D01*
X344375Y327006D01*
X344661Y326950D01*
X344913Y326783D01*
X347202Y324494D01*
X351598Y324494D01*
X354706Y327602D01*
X354706Y331998D01*
X351598Y335106D01*
X347202Y335106D01*
X344913Y332817D01*
X344672Y332654D01*
X344375Y332594D01*
X233643Y332594D01*
X208057Y307008D01*
X207837Y306855D01*
X207542Y306785D01*
X207243Y306836D01*
X206988Y307000D01*
X206816Y307250D01*
X206756Y307547D01*
X206756Y315253D01*
X200953Y321056D01*
X192747Y321056D01*
X186944Y315253D01*
X186944Y307047D01*
X190684Y303307D01*
X190837Y303087D01*
X190907Y302792D01*
X190856Y302493D01*
X190693Y302238D01*
X190442Y302066D01*
X190145Y302006D01*
X178917Y302006D01*
X178654Y302053D01*
X178395Y302212D01*
X178220Y302460D01*
X178155Y302756D01*
X178211Y303054D01*
X178378Y303307D01*
X181356Y306285D01*
X181356Y314491D01*
X175553Y320294D01*
X167347Y320294D01*
X161544Y314491D01*
X161544Y306285D01*
X164522Y303307D01*
X164675Y303087D01*
X164745Y302792D01*
X164694Y302493D01*
X164531Y302238D01*
X164280Y302066D01*
X163983Y302006D01*
X159461Y302006D01*
X159175Y302062D01*
X158922Y302229D01*
X151399Y309752D01*
X148988Y309752D01*
X148724Y309799D01*
X148466Y309958D01*
X148291Y310206D01*
X148226Y310502D01*
X148281Y310800D01*
X148449Y311053D01*
X150359Y312963D01*
X152022Y316977D01*
X152022Y321318D01*
X152080Y321610D01*
X152574Y322802D01*
X152574Y439448D01*
X151581Y441846D01*
X149746Y443681D01*
X147348Y444674D01*
X144752Y444674D01*
X142354Y443681D01*
X140519Y441846D01*
X139526Y439448D01*
X139526Y330829D01*
X139473Y330549D01*
X139307Y330295D01*
X139056Y330125D01*
X134913Y328409D01*
X131841Y325337D01*
X130178Y321323D01*
X130178Y316978D01*
X130315Y316648D01*
X130372Y316380D01*
X130321Y316081D01*
X130158Y315826D01*
X129908Y315654D01*
X129611Y315594D01*
X108025Y315594D01*
X107739Y315650D01*
X107487Y315817D01*
X105198Y318106D01*
X100802Y318106D01*
X97694Y314998D01*
X97694Y310602D01*
X100802Y307494D01*
X105198Y307494D01*
X107487Y309783D01*
X107728Y309946D01*
X108025Y310006D01*
X128735Y310006D01*
X129021Y309950D01*
X129274Y309783D01*
X134223Y304834D01*
X134381Y304603D01*
X134446Y304307D01*
X134391Y304009D01*
X134223Y303756D01*
X130979Y300512D01*
X129162Y296125D01*
X129162Y294512D01*
X153038Y294512D01*
X153038Y296125D01*
X151615Y299561D01*
X151558Y299816D01*
X151604Y300116D01*
X151763Y300374D01*
X152010Y300549D01*
X152307Y300614D01*
X152605Y300559D01*
X152858Y300391D01*
X156831Y296418D01*
X165507Y296418D01*
X165771Y296371D01*
X166029Y296212D01*
X166204Y295964D01*
X166269Y295668D01*
X166214Y295370D01*
X166046Y295117D01*
X161544Y290615D01*
X161544Y282409D01*
X167347Y276606D01*
X175553Y276606D01*
X181356Y282409D01*
X181356Y290615D01*
X176854Y295117D01*
X176701Y295337D01*
X176631Y295632D01*
X176682Y295931D01*
X176845Y296186D01*
X177096Y296358D01*
X177393Y296418D01*
X191669Y296418D01*
X191933Y296371D01*
X192191Y296212D01*
X192366Y295964D01*
X192431Y295668D01*
X192376Y295370D01*
X192208Y295117D01*
X186944Y289853D01*
X186944Y281647D01*
X192747Y275844D01*
G37*
G36*
X37327Y422528D02*
X41673Y422528D01*
X45687Y424191D01*
X48759Y427263D01*
X50422Y431277D01*
X50422Y435623D01*
X48759Y439637D01*
X45687Y442709D01*
X41673Y444372D01*
X37327Y444372D01*
X33313Y442709D01*
X30241Y439637D01*
X28578Y435623D01*
X28578Y431277D01*
X30241Y427263D01*
X33313Y424191D01*
X37327Y422528D01*
G37*
G36*
X62525Y421512D02*
X64138Y421512D01*
X64138Y432688D01*
X52962Y432688D01*
X52962Y431075D01*
X54779Y426688D01*
X58138Y423329D01*
X62525Y421512D01*
G37*
G36*
X65662Y421512D02*
X67275Y421512D01*
X71662Y423329D01*
X75021Y426688D01*
X76838Y431075D01*
X76838Y432688D01*
X65662Y432688D01*
X65662Y421512D01*
G37*
G36*
X377786Y71940D02*
X384214Y71940D01*
X390154Y74400D01*
X394700Y78946D01*
X395099Y79910D01*
X395247Y80140D01*
X395495Y80315D01*
X395791Y80380D01*
X396089Y80324D01*
X396342Y80157D01*
X398950Y77549D01*
X403524Y75654D01*
X408476Y75654D01*
X413050Y77549D01*
X416551Y81050D01*
X417796Y84055D01*
X417940Y84280D01*
X418186Y84458D01*
X418482Y84525D01*
X418780Y84472D01*
X419035Y84307D01*
X419204Y84055D01*
X420449Y81050D01*
X423950Y77549D01*
X428524Y75654D01*
X433476Y75654D01*
X438050Y77549D01*
X441551Y81050D01*
X443446Y85624D01*
X443446Y90576D01*
X441551Y95150D01*
X438050Y98651D01*
X433476Y100546D01*
X428524Y100546D01*
X423950Y98651D01*
X420449Y95150D01*
X419204Y92145D01*
X419060Y91920D01*
X418814Y91742D01*
X418518Y91675D01*
X418220Y91728D01*
X417966Y91893D01*
X417796Y92145D01*
X416551Y95150D01*
X413050Y98651D01*
X408476Y100546D01*
X403524Y100546D01*
X398950Y98651D01*
X396342Y96043D01*
X396117Y95888D01*
X395821Y95820D01*
X395523Y95873D01*
X395268Y96039D01*
X395099Y96290D01*
X394700Y97254D01*
X390154Y101800D01*
X384214Y104260D01*
X377786Y104260D01*
X371846Y101800D01*
X367300Y97254D01*
X366901Y96290D01*
X366753Y96060D01*
X366505Y95885D01*
X366209Y95820D01*
X365911Y95876D01*
X365658Y96043D01*
X363050Y98651D01*
X358476Y100546D01*
X353524Y100546D01*
X348950Y98651D01*
X345449Y95150D01*
X344204Y92145D01*
X344060Y91920D01*
X343814Y91742D01*
X343518Y91675D01*
X343220Y91728D01*
X342966Y91893D01*
X342796Y92145D01*
X341551Y95150D01*
X338050Y98651D01*
X336666Y99225D01*
X336436Y99373D01*
X336261Y99620D01*
X336196Y99916D01*
X336251Y100215D01*
X336419Y100467D01*
X346794Y110843D01*
X346794Y123620D01*
X346841Y123884D01*
X347000Y124142D01*
X347248Y124317D01*
X347544Y124382D01*
X347842Y124327D01*
X348095Y124159D01*
X351826Y120428D01*
X355588Y120428D01*
X355588Y142272D01*
X351826Y142272D01*
X348095Y138541D01*
X347875Y138388D01*
X347580Y138318D01*
X347281Y138369D01*
X347026Y138532D01*
X346854Y138782D01*
X346794Y139080D01*
X346794Y142157D01*
X337017Y151934D01*
X336854Y152176D01*
X336794Y152473D01*
X336794Y174527D01*
X336850Y174813D01*
X337017Y175066D01*
X339152Y177201D01*
X339366Y177352D01*
X339661Y177424D01*
X339960Y177375D01*
X340217Y177214D01*
X340390Y176965D01*
X340453Y176668D01*
X340395Y176371D01*
X339205Y173497D01*
X339205Y172112D01*
X360795Y172112D01*
X360795Y173497D01*
X359152Y177465D01*
X357711Y178905D01*
X357558Y179125D01*
X357488Y179420D01*
X357539Y179719D01*
X357703Y179974D01*
X357953Y180146D01*
X358250Y180206D01*
X362157Y180206D01*
X387827Y205876D01*
X388047Y206029D01*
X388342Y206099D01*
X388641Y206048D01*
X388896Y205884D01*
X389068Y205634D01*
X389128Y205337D01*
X389128Y205026D01*
X395526Y198628D01*
X399288Y198628D01*
X399288Y220472D01*
X395526Y220472D01*
X390095Y215041D01*
X389875Y214888D01*
X389580Y214818D01*
X389281Y214869D01*
X389026Y215032D01*
X388854Y215282D01*
X388794Y215580D01*
X388794Y333727D01*
X388850Y334013D01*
X389017Y334266D01*
X392952Y338201D01*
X392952Y358312D01*
X392999Y358576D01*
X393158Y358834D01*
X393406Y359009D01*
X393702Y359074D01*
X394000Y359019D01*
X394253Y358851D01*
X396163Y356941D01*
X399086Y355730D01*
X399324Y355574D01*
X399496Y355324D01*
X399556Y355026D01*
X399556Y318993D01*
X415242Y303307D01*
X415395Y303087D01*
X415465Y302792D01*
X415414Y302493D01*
X415250Y302238D01*
X415000Y302066D01*
X414703Y302006D01*
X408647Y302006D01*
X402844Y296203D01*
X402844Y287997D01*
X408647Y282194D01*
X416853Y282194D01*
X420655Y285996D01*
X420875Y286149D01*
X421170Y286219D01*
X421469Y286168D01*
X421724Y286005D01*
X421896Y285754D01*
X421956Y285457D01*
X421956Y273343D01*
X421909Y273080D01*
X421750Y272821D01*
X421502Y272646D01*
X421206Y272581D01*
X420908Y272637D01*
X420655Y272804D01*
X416853Y276606D01*
X408647Y276606D01*
X402844Y270803D01*
X402844Y262597D01*
X408647Y256794D01*
X416853Y256794D01*
X420655Y260596D01*
X420875Y260749D01*
X421170Y260819D01*
X421469Y260768D01*
X421724Y260605D01*
X421896Y260354D01*
X421956Y260057D01*
X421956Y246223D01*
X421900Y245937D01*
X421733Y245684D01*
X414578Y238529D01*
X414336Y238366D01*
X414039Y238306D01*
X410802Y238306D01*
X407694Y235198D01*
X407694Y230802D01*
X410802Y227694D01*
X415198Y227694D01*
X418306Y230802D01*
X418306Y234039D01*
X418362Y234325D01*
X418529Y234578D01*
X427544Y243593D01*
X427544Y295777D01*
X427600Y296063D01*
X427767Y296316D01*
X427794Y296343D01*
X427794Y298657D01*
X405367Y321084D01*
X405204Y321326D01*
X405144Y321623D01*
X405144Y355026D01*
X405197Y355307D01*
X405363Y355561D01*
X405614Y355730D01*
X408537Y356941D01*
X410447Y358851D01*
X410667Y359004D01*
X410962Y359074D01*
X411261Y359023D01*
X411516Y358860D01*
X411688Y358610D01*
X411748Y358312D01*
X411748Y348334D01*
X412753Y345907D01*
X439173Y319488D01*
X439336Y319246D01*
X439396Y318949D01*
X439396Y247686D01*
X440401Y245259D01*
X442259Y243401D01*
X444686Y242396D01*
X447314Y242396D01*
X449741Y243401D01*
X451599Y245259D01*
X452604Y247686D01*
X452604Y323314D01*
X451599Y325741D01*
X425179Y352160D01*
X425016Y352402D01*
X424956Y352699D01*
X424956Y374142D01*
X423951Y376569D01*
X412994Y387526D01*
X412833Y387762D01*
X412770Y388059D01*
X412828Y388357D01*
X413272Y389427D01*
X413272Y393773D01*
X411609Y397787D01*
X408537Y400859D01*
X404523Y402522D01*
X401821Y402522D01*
X401558Y402569D01*
X401299Y402728D01*
X401124Y402976D01*
X401059Y403272D01*
X401115Y403570D01*
X401282Y403823D01*
X403314Y405855D01*
X403556Y406018D01*
X403853Y406078D01*
X404523Y406078D01*
X408537Y407741D01*
X411609Y410813D01*
X413272Y414827D01*
X413272Y419173D01*
X411609Y423187D01*
X408537Y426259D01*
X404523Y427922D01*
X400177Y427922D01*
X396163Y426259D01*
X393091Y423187D01*
X391428Y419173D01*
X391428Y414827D01*
X393091Y410813D01*
X396191Y407713D01*
X396349Y407482D01*
X396415Y407186D01*
X396359Y406888D01*
X396191Y406635D01*
X387364Y397807D01*
X387364Y340831D01*
X387308Y340545D01*
X387141Y340292D01*
X383106Y336257D01*
X383106Y333883D01*
X383146Y333824D01*
X383206Y333527D01*
X383206Y209473D01*
X383150Y209187D01*
X382983Y208934D01*
X375112Y201063D01*
X374870Y200900D01*
X374854Y200897D01*
X373106Y199149D01*
X373104Y199141D01*
X372937Y198888D01*
X361080Y187031D01*
X360860Y186878D01*
X360565Y186808D01*
X360266Y186859D01*
X360011Y187023D01*
X359839Y187273D01*
X359779Y187570D01*
X359779Y205236D01*
X358886Y206129D01*
X341114Y206129D01*
X340221Y205236D01*
X340221Y187464D01*
X340590Y187095D01*
X340743Y186875D01*
X340813Y186580D01*
X340762Y186281D01*
X340598Y186026D01*
X340348Y185854D01*
X340051Y185794D01*
X339843Y185794D01*
X331206Y177157D01*
X331206Y149843D01*
X340983Y140066D01*
X341146Y139824D01*
X341206Y139527D01*
X341206Y136943D01*
X341159Y136680D01*
X341000Y136421D01*
X340752Y136246D01*
X340456Y136181D01*
X340158Y136237D01*
X339905Y136404D01*
X335053Y141256D01*
X326847Y141256D01*
X321044Y135453D01*
X321044Y127247D01*
X326847Y121444D01*
X335053Y121444D01*
X339905Y126296D01*
X340125Y126449D01*
X340420Y126519D01*
X340719Y126468D01*
X340974Y126305D01*
X341146Y126054D01*
X341206Y125757D01*
X341206Y113473D01*
X341150Y113187D01*
X340983Y112934D01*
X328752Y100703D01*
X328504Y100538D01*
X323950Y98651D01*
X320449Y95150D01*
X318554Y90576D01*
X318554Y85624D01*
X320449Y81050D01*
X323950Y77549D01*
X328524Y75654D01*
X333476Y75654D01*
X338050Y77549D01*
X341551Y81050D01*
X342796Y84055D01*
X342940Y84280D01*
X343186Y84458D01*
X343482Y84525D01*
X343780Y84472D01*
X344035Y84307D01*
X344204Y84055D01*
X345449Y81050D01*
X348950Y77549D01*
X353524Y75654D01*
X358476Y75654D01*
X363050Y77549D01*
X365658Y80157D01*
X365883Y80313D01*
X366179Y80380D01*
X366477Y80327D01*
X366732Y80161D01*
X366901Y79910D01*
X367300Y78946D01*
X371846Y74400D01*
X377786Y71940D01*
G37*
G36*
X100827Y403478D02*
X105173Y403478D01*
X109187Y405141D01*
X112259Y408213D01*
X113922Y412227D01*
X113922Y416573D01*
X112259Y420587D01*
X109187Y423659D01*
X105173Y425322D01*
X100827Y425322D01*
X96813Y423659D01*
X93741Y420587D01*
X92078Y416573D01*
X92078Y412227D01*
X93741Y408213D01*
X96813Y405141D01*
X100827Y403478D01*
G37*
G36*
X37327Y397128D02*
X41673Y397128D01*
X45687Y398791D01*
X48759Y401863D01*
X50422Y405877D01*
X50422Y410223D01*
X48759Y414237D01*
X45687Y417309D01*
X41673Y418972D01*
X37327Y418972D01*
X33313Y417309D01*
X30241Y414237D01*
X28578Y410223D01*
X28578Y405877D01*
X30241Y401863D01*
X33313Y398791D01*
X37327Y397128D01*
G37*
G36*
X62727Y397128D02*
X67073Y397128D01*
X71087Y398791D01*
X74159Y401863D01*
X75822Y405877D01*
X75822Y410223D01*
X74159Y414237D01*
X71087Y417309D01*
X67073Y418972D01*
X62727Y418972D01*
X58713Y417309D01*
X55641Y414237D01*
X53978Y410223D01*
X53978Y405877D01*
X55641Y401863D01*
X58713Y398791D01*
X62727Y397128D01*
G37*
G36*
X62727Y371728D02*
X67073Y371728D01*
X71087Y373391D01*
X74159Y376463D01*
X75822Y380477D01*
X75822Y384822D01*
X75685Y385152D01*
X75628Y385420D01*
X75679Y385719D01*
X75842Y385974D01*
X76092Y386146D01*
X76389Y386206D01*
X91826Y386206D01*
X92107Y386153D01*
X92361Y385987D01*
X92530Y385736D01*
X93741Y382813D01*
X96813Y379741D01*
X100827Y378078D01*
X105173Y378078D01*
X109187Y379741D01*
X112259Y382813D01*
X113922Y386827D01*
X113922Y391173D01*
X112259Y395187D01*
X109187Y398259D01*
X105173Y399922D01*
X100827Y399922D01*
X96813Y398259D01*
X93741Y395187D01*
X92530Y392264D01*
X92374Y392026D01*
X92124Y391854D01*
X91826Y391794D01*
X71517Y391794D01*
X71225Y391852D01*
X67073Y393572D01*
X62727Y393572D01*
X58713Y391909D01*
X55641Y388837D01*
X53978Y384823D01*
X53978Y380477D01*
X55641Y376463D01*
X58713Y373391D01*
X62727Y371728D01*
G37*
G36*
X27562Y383412D02*
X38738Y383412D01*
X38738Y394588D01*
X37125Y394588D01*
X32738Y392771D01*
X29379Y389412D01*
X27562Y385025D01*
X27562Y383412D01*
G37*
G36*
X40262Y383412D02*
X51438Y383412D01*
X51438Y385025D01*
X49621Y389412D01*
X46262Y392771D01*
X41875Y394588D01*
X40262Y394588D01*
X40262Y383412D01*
G37*
G36*
X40262Y370712D02*
X41875Y370712D01*
X46262Y372529D01*
X49621Y375888D01*
X51438Y380275D01*
X51438Y381888D01*
X40262Y381888D01*
X40262Y370712D01*
G37*
G36*
X37125Y370712D02*
X38738Y370712D01*
X38738Y381888D01*
X27562Y381888D01*
X27562Y380275D01*
X29379Y375888D01*
X32738Y372529D01*
X37125Y370712D01*
G37*
G36*
X100827Y352678D02*
X105173Y352678D01*
X109187Y354341D01*
X112259Y357413D01*
X113922Y361427D01*
X113922Y365773D01*
X112259Y369787D01*
X109187Y372859D01*
X105173Y374522D01*
X100827Y374522D01*
X96813Y372859D01*
X93741Y369787D01*
X92078Y365773D01*
X92078Y361427D01*
X93741Y357413D01*
X96813Y354341D01*
X100827Y352678D01*
G37*
G36*
X37327Y346328D02*
X41673Y346328D01*
X45687Y347991D01*
X48759Y351063D01*
X50422Y355077D01*
X50422Y359423D01*
X48759Y363437D01*
X45687Y366509D01*
X41673Y368172D01*
X37327Y368172D01*
X33313Y366509D01*
X30241Y363437D01*
X28578Y359423D01*
X28578Y355077D01*
X30241Y351063D01*
X33313Y347991D01*
X37327Y346328D01*
G37*
G36*
X62727Y346328D02*
X67073Y346328D01*
X71087Y347991D01*
X74159Y351063D01*
X75822Y355077D01*
X75822Y359423D01*
X74159Y363437D01*
X71087Y366509D01*
X67073Y368172D01*
X62727Y368172D01*
X58713Y366509D01*
X55641Y363437D01*
X53978Y359423D01*
X53978Y355077D01*
X55641Y351063D01*
X58713Y347991D01*
X62727Y346328D01*
G37*
G36*
X103762Y338962D02*
X114938Y338962D01*
X114938Y340575D01*
X113121Y344962D01*
X109762Y348321D01*
X105375Y350138D01*
X103762Y350138D01*
X103762Y338962D01*
G37*
G36*
X91062Y338962D02*
X102238Y338962D01*
X102238Y350138D01*
X100625Y350138D01*
X96238Y348321D01*
X92879Y344962D01*
X91062Y340575D01*
X91062Y338962D01*
G37*
G36*
X37327Y320928D02*
X41673Y320928D01*
X45687Y322591D01*
X48759Y325663D01*
X50422Y329677D01*
X50422Y334023D01*
X48759Y338037D01*
X45687Y341109D01*
X41673Y342772D01*
X37327Y342772D01*
X33313Y341109D01*
X30241Y338037D01*
X28578Y334023D01*
X28578Y329677D01*
X30241Y325663D01*
X33313Y322591D01*
X37327Y320928D01*
G37*
G36*
X62727Y320928D02*
X67073Y320928D01*
X71087Y322591D01*
X74159Y325663D01*
X75822Y329677D01*
X75822Y334023D01*
X74159Y338037D01*
X71087Y341109D01*
X67073Y342772D01*
X62727Y342772D01*
X58713Y341109D01*
X55641Y338037D01*
X53978Y334023D01*
X53978Y329677D01*
X55641Y325663D01*
X58713Y322591D01*
X62727Y320928D01*
G37*
G36*
X100625Y326262D02*
X102238Y326262D01*
X102238Y337438D01*
X91062Y337438D01*
X91062Y335825D01*
X92879Y331438D01*
X96238Y328079D01*
X100625Y326262D01*
G37*
G36*
X103762Y326262D02*
X105375Y326262D01*
X109762Y328079D01*
X113121Y331438D01*
X114938Y335825D01*
X114938Y337438D01*
X103762Y337438D01*
X103762Y326262D01*
G37*
G36*
X40262Y307212D02*
X51438Y307212D01*
X51438Y308825D01*
X49621Y313212D01*
X46262Y316571D01*
X41875Y318388D01*
X40262Y318388D01*
X40262Y307212D01*
G37*
G36*
X27562Y307212D02*
X38738Y307212D01*
X38738Y318388D01*
X37125Y318388D01*
X32738Y316571D01*
X29379Y313212D01*
X27562Y308825D01*
X27562Y307212D01*
G37*
G36*
X62727Y295528D02*
X67073Y295528D01*
X71087Y297191D01*
X74159Y300263D01*
X75822Y304277D01*
X75822Y308623D01*
X74159Y312637D01*
X71087Y315709D01*
X67073Y317372D01*
X62727Y317372D01*
X58713Y315709D01*
X55641Y312637D01*
X53978Y308623D01*
X53978Y304277D01*
X55641Y300263D01*
X58713Y297191D01*
X62727Y295528D01*
G37*
G36*
X37125Y294512D02*
X38738Y294512D01*
X38738Y305688D01*
X27562Y305688D01*
X27562Y304075D01*
X29379Y299688D01*
X32738Y296329D01*
X37125Y294512D01*
G37*
G36*
X40262Y294512D02*
X41875Y294512D01*
X46262Y296329D01*
X49621Y299688D01*
X51438Y304075D01*
X51438Y305688D01*
X40262Y305688D01*
X40262Y294512D01*
G37*
G36*
X510247Y282194D02*
X518453Y282194D01*
X524256Y287997D01*
X524256Y296203D01*
X518453Y302006D01*
X510247Y302006D01*
X504444Y296203D01*
X504444Y287997D01*
X510247Y282194D01*
G37*
G36*
X100827Y274578D02*
X105173Y274578D01*
X109187Y276241D01*
X112259Y279313D01*
X113922Y283327D01*
X113922Y287672D01*
X112259Y291687D01*
X109187Y294759D01*
X105173Y296422D01*
X100827Y296422D01*
X96813Y294759D01*
X93741Y291687D01*
X92078Y287672D01*
X92078Y283327D01*
X93741Y279313D01*
X96813Y276241D01*
X100827Y274578D01*
G37*
G36*
X141862Y281812D02*
X143475Y281812D01*
X147862Y283629D01*
X151221Y286988D01*
X153038Y291375D01*
X153038Y292988D01*
X141862Y292988D01*
X141862Y281812D01*
G37*
G36*
X138725Y281812D02*
X140338Y281812D01*
X140338Y292988D01*
X129162Y292988D01*
X129162Y291375D01*
X130979Y286988D01*
X134338Y283629D01*
X138725Y281812D01*
G37*
G36*
X37327Y270128D02*
X41673Y270128D01*
X45687Y271791D01*
X48759Y274863D01*
X50422Y278877D01*
X50422Y283223D01*
X48759Y287237D01*
X45687Y290309D01*
X41673Y291972D01*
X37327Y291972D01*
X33313Y290309D01*
X30241Y287237D01*
X28578Y283223D01*
X28578Y278877D01*
X30241Y274863D01*
X33313Y271791D01*
X37327Y270128D01*
G37*
G36*
X62727Y270128D02*
X67073Y270128D01*
X71087Y271791D01*
X74159Y274863D01*
X75822Y278877D01*
X75822Y283223D01*
X74159Y287237D01*
X71087Y290309D01*
X67073Y291972D01*
X62727Y291972D01*
X58713Y290309D01*
X55641Y287237D01*
X53978Y283223D01*
X53978Y278877D01*
X55641Y274863D01*
X58713Y271791D01*
X62727Y270128D01*
G37*
G36*
X108115Y64746D02*
X155214Y64746D01*
X157641Y65751D01*
X259599Y167709D01*
X260604Y170136D01*
X260604Y280714D01*
X259599Y283141D01*
X257741Y284999D01*
X255314Y286004D01*
X252686Y286004D01*
X250259Y284999D01*
X248401Y283141D01*
X247396Y280714D01*
X247396Y174501D01*
X247340Y174215D01*
X247173Y173962D01*
X151388Y78177D01*
X151146Y78014D01*
X150849Y77954D01*
X113668Y77954D01*
X113393Y78005D01*
X113138Y78169D01*
X112966Y78419D01*
X112906Y78716D01*
X112906Y81953D01*
X107103Y87756D01*
X98897Y87756D01*
X93094Y81953D01*
X93094Y73747D01*
X98897Y67944D01*
X103251Y67944D01*
X103537Y67888D01*
X103790Y67721D01*
X105759Y65751D01*
X107964Y64838D01*
X108107Y64748D01*
X108115Y64746D01*
G37*
G36*
X138927Y257428D02*
X143273Y257428D01*
X147287Y259091D01*
X150359Y262163D01*
X152022Y266177D01*
X152022Y270523D01*
X150359Y274537D01*
X147287Y277609D01*
X143273Y279272D01*
X138927Y279272D01*
X134913Y277609D01*
X131841Y274537D01*
X130178Y270523D01*
X130178Y266177D01*
X131841Y262163D01*
X134913Y259091D01*
X138927Y257428D01*
G37*
G36*
X465896Y29536D02*
X469104Y29536D01*
X472068Y30764D01*
X474336Y33032D01*
X475564Y35996D01*
X475564Y39204D01*
X475024Y40508D01*
X474966Y40787D01*
X475022Y41085D01*
X475189Y41338D01*
X497794Y63943D01*
X497794Y66257D01*
X497367Y66684D01*
X497204Y66926D01*
X497144Y67223D01*
X497144Y198807D01*
X485490Y210461D01*
X485332Y210692D01*
X485267Y210988D01*
X485323Y211286D01*
X485490Y211539D01*
X517144Y243193D01*
X517144Y256032D01*
X517195Y256307D01*
X517359Y256562D01*
X517609Y256734D01*
X517906Y256794D01*
X518453Y256794D01*
X524256Y262597D01*
X524256Y270803D01*
X518453Y276606D01*
X510247Y276606D01*
X504444Y270803D01*
X504444Y262597D01*
X510247Y256794D01*
X510794Y256794D01*
X511069Y256743D01*
X511324Y256579D01*
X511496Y256329D01*
X511556Y256032D01*
X511556Y245823D01*
X511500Y245537D01*
X511333Y245284D01*
X480066Y214017D01*
X479824Y213854D01*
X479527Y213794D01*
X435531Y213794D01*
X435245Y213850D01*
X434992Y214017D01*
X429553Y219456D01*
X421347Y219456D01*
X415544Y213653D01*
X415544Y205447D01*
X421347Y199644D01*
X429553Y199644D01*
X435356Y205447D01*
X435356Y207444D01*
X435407Y207719D01*
X435571Y207974D01*
X435821Y208146D01*
X436118Y208206D01*
X479527Y208206D01*
X479813Y208150D01*
X480066Y207983D01*
X491333Y196716D01*
X491496Y196474D01*
X491556Y196177D01*
X491556Y65923D01*
X491500Y65637D01*
X491333Y65384D01*
X471238Y45289D01*
X471002Y45129D01*
X470705Y45066D01*
X470408Y45124D01*
X469104Y45664D01*
X465896Y45664D01*
X462932Y44436D01*
X460664Y42168D01*
X459436Y39204D01*
X459436Y35996D01*
X460664Y33032D01*
X462932Y30764D01*
X465896Y29536D01*
G37*
G36*
X100827Y249178D02*
X105173Y249178D01*
X109187Y250841D01*
X112259Y253913D01*
X113922Y257927D01*
X113922Y262272D01*
X112259Y266287D01*
X109187Y269359D01*
X105173Y271022D01*
X100827Y271022D01*
X96813Y269359D01*
X93741Y266287D01*
X92078Y262272D01*
X92078Y257927D01*
X93741Y253913D01*
X96813Y250841D01*
X100827Y249178D01*
G37*
G36*
X37327Y244728D02*
X41673Y244728D01*
X45687Y246391D01*
X48759Y249463D01*
X50422Y253477D01*
X50422Y257823D01*
X48759Y261837D01*
X45687Y264909D01*
X41673Y266572D01*
X37327Y266572D01*
X33313Y264909D01*
X30241Y261837D01*
X28578Y257823D01*
X28578Y253477D01*
X30241Y249463D01*
X33313Y246391D01*
X37327Y244728D01*
G37*
G36*
X62727Y244728D02*
X67073Y244728D01*
X71087Y246391D01*
X74159Y249463D01*
X75822Y253477D01*
X75822Y257823D01*
X74159Y261837D01*
X71087Y264909D01*
X67073Y266572D01*
X62727Y266572D01*
X58713Y264909D01*
X55641Y261837D01*
X53978Y257823D01*
X53978Y253477D01*
X55641Y249463D01*
X58713Y246391D01*
X62727Y244728D01*
G37*
G36*
X138927Y232028D02*
X143273Y232028D01*
X147287Y233691D01*
X150359Y236763D01*
X152022Y240777D01*
X152022Y245123D01*
X150359Y249137D01*
X147287Y252209D01*
X143273Y253872D01*
X138927Y253872D01*
X134913Y252209D01*
X131841Y249137D01*
X130178Y245123D01*
X130178Y240777D01*
X131841Y236763D01*
X134913Y233691D01*
X138927Y232028D01*
G37*
G36*
X100827Y223778D02*
X105173Y223778D01*
X109187Y225441D01*
X112259Y228513D01*
X113922Y232527D01*
X113922Y236872D01*
X112259Y240887D01*
X109187Y243959D01*
X105173Y245622D01*
X100827Y245622D01*
X96813Y243959D01*
X93741Y240887D01*
X92078Y236872D01*
X92078Y232527D01*
X93741Y228513D01*
X96813Y225441D01*
X100827Y223778D01*
G37*
G36*
X52962Y231012D02*
X64138Y231012D01*
X64138Y242188D01*
X62525Y242188D01*
X58138Y240371D01*
X54779Y237012D01*
X52962Y232625D01*
X52962Y231012D01*
G37*
G36*
X65662Y231012D02*
X76838Y231012D01*
X76838Y232625D01*
X75021Y237012D01*
X71662Y240371D01*
X67275Y242188D01*
X65662Y242188D01*
X65662Y231012D01*
G37*
G36*
X37327Y219328D02*
X41673Y219328D01*
X45687Y220991D01*
X48759Y224063D01*
X50422Y228077D01*
X50422Y232423D01*
X48759Y236437D01*
X45687Y239509D01*
X41673Y241172D01*
X37327Y241172D01*
X33313Y239509D01*
X30241Y236437D01*
X28578Y232423D01*
X28578Y228077D01*
X30241Y224063D01*
X33313Y220991D01*
X37327Y219328D01*
G37*
G36*
X62525Y218312D02*
X64138Y218312D01*
X64138Y229488D01*
X52962Y229488D01*
X52962Y227875D01*
X54779Y223488D01*
X58138Y220129D01*
X62525Y218312D01*
G37*
G36*
X65662Y218312D02*
X67275Y218312D01*
X71662Y220129D01*
X75021Y223488D01*
X76838Y227875D01*
X76838Y229488D01*
X65662Y229488D01*
X65662Y218312D01*
G37*
G36*
X138927Y206628D02*
X143273Y206628D01*
X147287Y208291D01*
X150359Y211363D01*
X152022Y215377D01*
X152022Y219723D01*
X150359Y223737D01*
X147287Y226809D01*
X143273Y228472D01*
X138927Y228472D01*
X134913Y226809D01*
X131841Y223737D01*
X130178Y219723D01*
X130178Y215377D01*
X131841Y211363D01*
X134913Y208291D01*
X138927Y206628D01*
G37*
G36*
X400812Y210312D02*
X410972Y210312D01*
X410972Y214074D01*
X404574Y220472D01*
X400812Y220472D01*
X400812Y210312D01*
G37*
G36*
X100827Y198378D02*
X105173Y198378D01*
X109187Y200041D01*
X112259Y203113D01*
X113922Y207127D01*
X113922Y211472D01*
X112259Y215487D01*
X109187Y218559D01*
X105173Y220222D01*
X100827Y220222D01*
X96813Y218559D01*
X93741Y215487D01*
X92078Y211472D01*
X92078Y207127D01*
X93741Y203113D01*
X96813Y200041D01*
X100827Y198378D01*
G37*
G36*
X37327Y193928D02*
X41673Y193928D01*
X45687Y195591D01*
X48759Y198663D01*
X50422Y202677D01*
X50422Y207023D01*
X48759Y211037D01*
X45687Y214109D01*
X41673Y215772D01*
X37327Y215772D01*
X33313Y214109D01*
X30241Y211037D01*
X28578Y207023D01*
X28578Y202677D01*
X30241Y198663D01*
X33313Y195591D01*
X37327Y193928D01*
G37*
G36*
X62727Y193928D02*
X67073Y193928D01*
X71087Y195591D01*
X74159Y198663D01*
X75822Y202677D01*
X75822Y207023D01*
X74159Y211037D01*
X71087Y214109D01*
X67073Y215772D01*
X62727Y215772D01*
X58713Y214109D01*
X55641Y211037D01*
X53978Y207023D01*
X53978Y202677D01*
X55641Y198663D01*
X58713Y195591D01*
X62727Y193928D01*
G37*
G36*
X400812Y198628D02*
X404574Y198628D01*
X410972Y205026D01*
X410972Y208788D01*
X400812Y208788D01*
X400812Y198628D01*
G37*
G36*
X465896Y69536D02*
X469104Y69536D01*
X472068Y70764D01*
X474336Y73032D01*
X475564Y75996D01*
X475564Y79204D01*
X475024Y80508D01*
X474966Y80787D01*
X475022Y81085D01*
X475189Y81338D01*
X489528Y95677D01*
X489528Y173423D01*
X487668Y175283D01*
X474582Y188369D01*
X474424Y188600D01*
X474359Y188896D01*
X474415Y189194D01*
X474582Y189447D01*
X475564Y190429D01*
X475564Y204771D01*
X474671Y205664D01*
X460329Y205664D01*
X459436Y204771D01*
X459436Y190556D01*
X459385Y190281D01*
X459221Y190026D01*
X458971Y189854D01*
X458674Y189794D01*
X439843Y189794D01*
X431375Y181327D01*
X431139Y181166D01*
X430843Y181104D01*
X430545Y181162D01*
X427623Y182372D01*
X423277Y182372D01*
X419263Y180709D01*
X416191Y177637D01*
X414528Y173623D01*
X414528Y169277D01*
X416191Y165263D01*
X419263Y162191D01*
X423277Y160528D01*
X427623Y160528D01*
X431637Y162191D01*
X434709Y165263D01*
X436372Y169277D01*
X436372Y173623D01*
X435162Y176545D01*
X435104Y176824D01*
X435159Y177123D01*
X435327Y177375D01*
X441934Y183983D01*
X442176Y184146D01*
X442473Y184206D01*
X460862Y184206D01*
X461125Y184159D01*
X461384Y184000D01*
X461559Y183752D01*
X461624Y183456D01*
X461568Y183158D01*
X461401Y182905D01*
X460664Y182168D01*
X459436Y179204D01*
X459436Y175996D01*
X460664Y173032D01*
X462932Y170764D01*
X465896Y169536D01*
X469104Y169536D01*
X472068Y170764D01*
X474336Y173032D01*
X475564Y175996D01*
X475564Y177645D01*
X475611Y177908D01*
X475770Y178166D01*
X476018Y178342D01*
X476314Y178407D01*
X476612Y178351D01*
X476865Y178184D01*
X483717Y171332D01*
X483880Y171090D01*
X483940Y170793D01*
X483940Y98307D01*
X483884Y98021D01*
X483717Y97768D01*
X471238Y85289D01*
X471002Y85129D01*
X470705Y85066D01*
X470408Y85124D01*
X469104Y85664D01*
X465896Y85664D01*
X462932Y84436D01*
X460664Y82168D01*
X459436Y79204D01*
X459436Y75996D01*
X460664Y73032D01*
X462932Y70764D01*
X465896Y69536D01*
G37*
G36*
X138927Y181228D02*
X143273Y181228D01*
X147287Y182891D01*
X150359Y185963D01*
X152022Y189977D01*
X152022Y194323D01*
X150359Y198337D01*
X147287Y201409D01*
X143273Y203072D01*
X138927Y203072D01*
X134913Y201409D01*
X131841Y198337D01*
X130178Y194323D01*
X130178Y189977D01*
X131841Y185963D01*
X134913Y182891D01*
X138927Y181228D01*
G37*
G36*
X160528Y185674D02*
X170688Y185674D01*
X170688Y195834D01*
X166926Y195834D01*
X160528Y189436D01*
X160528Y185674D01*
G37*
G36*
X172212Y185674D02*
X182372Y185674D01*
X182372Y189436D01*
X175974Y195834D01*
X172212Y195834D01*
X172212Y185674D01*
G37*
G36*
X197612Y184912D02*
X207772Y184912D01*
X207772Y188674D01*
X201374Y195072D01*
X197612Y195072D01*
X197612Y184912D01*
G37*
G36*
X185928Y184912D02*
X196088Y184912D01*
X196088Y195072D01*
X192326Y195072D01*
X185928Y188674D01*
X185928Y184912D01*
G37*
G36*
X100827Y172978D02*
X105173Y172978D01*
X109187Y174641D01*
X112259Y177713D01*
X113922Y181727D01*
X113922Y186072D01*
X112259Y190087D01*
X109187Y193159D01*
X105173Y194822D01*
X100827Y194822D01*
X96813Y193159D01*
X93741Y190087D01*
X92078Y186072D01*
X92078Y181727D01*
X93741Y177713D01*
X96813Y174641D01*
X100827Y172978D01*
G37*
G36*
X27562Y180212D02*
X38738Y180212D01*
X38738Y191388D01*
X37125Y191388D01*
X32738Y189571D01*
X29379Y186212D01*
X27562Y181825D01*
X27562Y180212D01*
G37*
G36*
X40262Y180212D02*
X51438Y180212D01*
X51438Y181825D01*
X49621Y186212D01*
X46262Y189571D01*
X41875Y191388D01*
X40262Y191388D01*
X40262Y180212D01*
G37*
G36*
X62727Y168528D02*
X67073Y168528D01*
X71087Y170191D01*
X74159Y173263D01*
X75822Y177277D01*
X75822Y181623D01*
X74159Y185637D01*
X71087Y188709D01*
X67073Y190372D01*
X62727Y190372D01*
X58713Y188709D01*
X55641Y185637D01*
X53978Y181623D01*
X53978Y177277D01*
X55641Y173263D01*
X58713Y170191D01*
X62727Y168528D01*
G37*
G36*
X172212Y173990D02*
X175974Y173990D01*
X182372Y180388D01*
X182372Y184150D01*
X172212Y184150D01*
X172212Y173990D01*
G37*
G36*
X166926Y173990D02*
X170688Y173990D01*
X170688Y184150D01*
X160528Y184150D01*
X160528Y180388D01*
X166926Y173990D01*
G37*
G36*
X197612Y173228D02*
X201374Y173228D01*
X207772Y179626D01*
X207772Y183388D01*
X197612Y183388D01*
X197612Y173228D01*
G37*
G36*
X192326Y173228D02*
X196088Y173228D01*
X196088Y183388D01*
X185928Y183388D01*
X185928Y179626D01*
X192326Y173228D01*
G37*
G36*
X388112Y172212D02*
X399288Y172212D01*
X399288Y183388D01*
X397675Y183388D01*
X393288Y181571D01*
X389929Y178212D01*
X388112Y173825D01*
X388112Y172212D01*
G37*
G36*
X400812Y172212D02*
X411988Y172212D01*
X411988Y173825D01*
X410171Y178212D01*
X406812Y181571D01*
X402425Y183388D01*
X400812Y183388D01*
X400812Y172212D01*
G37*
G36*
X40262Y167512D02*
X41875Y167512D01*
X46262Y169329D01*
X49621Y172688D01*
X51438Y177075D01*
X51438Y178688D01*
X40262Y178688D01*
X40262Y167512D01*
G37*
G36*
X37125Y167512D02*
X38738Y167512D01*
X38738Y178688D01*
X27562Y178688D01*
X27562Y177075D01*
X29379Y172688D01*
X32738Y169329D01*
X37125Y167512D01*
G37*
G36*
X138927Y155828D02*
X143273Y155828D01*
X147287Y157491D01*
X150359Y160563D01*
X152022Y164577D01*
X152022Y168923D01*
X150359Y172937D01*
X147287Y176009D01*
X143273Y177672D01*
X138927Y177672D01*
X134913Y176009D01*
X131841Y172937D01*
X130178Y168923D01*
X130178Y164577D01*
X131841Y160563D01*
X134913Y157491D01*
X138927Y155828D01*
G37*
G36*
X397675Y159512D02*
X399288Y159512D01*
X399288Y170688D01*
X388112Y170688D01*
X388112Y169075D01*
X389929Y164688D01*
X393288Y161329D01*
X397675Y159512D01*
G37*
G36*
X400812Y159512D02*
X402425Y159512D01*
X406812Y161329D01*
X410171Y164688D01*
X411988Y169075D01*
X411988Y170688D01*
X400812Y170688D01*
X400812Y159512D01*
G37*
G36*
X350762Y160555D02*
X352147Y160555D01*
X356115Y162198D01*
X359152Y165235D01*
X360795Y169203D01*
X360795Y170588D01*
X350762Y170588D01*
X350762Y160555D01*
G37*
G36*
X347853Y160555D02*
X349238Y160555D01*
X349238Y170588D01*
X339205Y170588D01*
X339205Y169203D01*
X340848Y165235D01*
X343885Y162198D01*
X347853Y160555D01*
G37*
G36*
X100827Y147578D02*
X105173Y147578D01*
X109187Y149241D01*
X112259Y152313D01*
X113922Y156327D01*
X113922Y160672D01*
X112259Y164687D01*
X109187Y167759D01*
X105173Y169422D01*
X100827Y169422D01*
X96813Y167759D01*
X93741Y164687D01*
X92078Y160672D01*
X92078Y156327D01*
X93741Y152313D01*
X96813Y149241D01*
X100827Y147578D01*
G37*
G36*
X397922Y121936D02*
X402267Y121936D01*
X406281Y123599D01*
X409354Y126671D01*
X411017Y130685D01*
X411017Y135031D01*
X410332Y136683D01*
X410274Y136962D01*
X410330Y137261D01*
X410497Y137513D01*
X420697Y147713D01*
X420938Y147876D01*
X421236Y147936D01*
X463583Y147936D01*
X465032Y149385D01*
X465268Y149545D01*
X465565Y149608D01*
X465862Y149550D01*
X465896Y149536D01*
X469104Y149536D01*
X472068Y150764D01*
X474336Y153032D01*
X475564Y155996D01*
X475564Y159204D01*
X474336Y162168D01*
X472068Y164436D01*
X469104Y165664D01*
X465896Y165664D01*
X462932Y164436D01*
X460664Y162168D01*
X459436Y159204D01*
X459436Y156826D01*
X459385Y156551D01*
X459221Y156296D01*
X458971Y156124D01*
X458674Y156064D01*
X417553Y156064D01*
X404750Y143261D01*
X404514Y143100D01*
X404217Y143038D01*
X403919Y143096D01*
X402267Y143780D01*
X397922Y143780D01*
X393908Y142117D01*
X390835Y139045D01*
X389173Y135031D01*
X389173Y130685D01*
X390835Y126671D01*
X393908Y123599D01*
X397922Y121936D01*
G37*
G36*
X37327Y143128D02*
X41673Y143128D01*
X45687Y144791D01*
X48759Y147863D01*
X50422Y151877D01*
X50422Y156223D01*
X48759Y160237D01*
X45687Y163309D01*
X41673Y164972D01*
X37327Y164972D01*
X33313Y163309D01*
X30241Y160237D01*
X28578Y156223D01*
X28578Y151877D01*
X30241Y147863D01*
X33313Y144791D01*
X37327Y143128D01*
G37*
G36*
X62727Y143128D02*
X67073Y143128D01*
X71087Y144791D01*
X74159Y147863D01*
X75822Y151877D01*
X75822Y156223D01*
X74159Y160237D01*
X71087Y163309D01*
X67073Y164972D01*
X62727Y164972D01*
X58713Y163309D01*
X55641Y160237D01*
X53978Y156223D01*
X53978Y151877D01*
X55641Y147863D01*
X58713Y144791D01*
X62727Y143128D01*
G37*
G36*
X138927Y130428D02*
X143273Y130428D01*
X147287Y132091D01*
X150359Y135163D01*
X152022Y139177D01*
X152022Y143523D01*
X150359Y147537D01*
X147287Y150609D01*
X143273Y152272D01*
X138927Y152272D01*
X134913Y150609D01*
X131841Y147537D01*
X130178Y143523D01*
X130178Y139177D01*
X131841Y135163D01*
X134913Y132091D01*
X138927Y130428D01*
G37*
G36*
X423322Y121936D02*
X427667Y121936D01*
X431681Y123599D01*
X434754Y126671D01*
X435438Y128324D01*
X435595Y128562D01*
X435845Y128734D01*
X436142Y128794D01*
X464441Y128794D01*
X465032Y129385D01*
X465268Y129545D01*
X465565Y129608D01*
X465862Y129550D01*
X465896Y129536D01*
X469104Y129536D01*
X472068Y130764D01*
X474336Y133032D01*
X475564Y135996D01*
X475564Y139204D01*
X474336Y142168D01*
X472068Y144436D01*
X469104Y145664D01*
X465896Y145664D01*
X462932Y144436D01*
X460664Y142168D01*
X459436Y139204D01*
X459436Y137684D01*
X459385Y137409D01*
X459221Y137154D01*
X458971Y136982D01*
X458674Y136922D01*
X436142Y136922D01*
X435862Y136975D01*
X435608Y137141D01*
X435438Y137392D01*
X434754Y139045D01*
X431681Y142117D01*
X427667Y143780D01*
X423322Y143780D01*
X419308Y142117D01*
X416235Y139045D01*
X414573Y135031D01*
X414573Y130685D01*
X416235Y126671D01*
X419308Y123599D01*
X423322Y121936D01*
G37*
G36*
X103762Y133862D02*
X114938Y133862D01*
X114938Y135475D01*
X113121Y139862D01*
X109762Y143220D01*
X105375Y145038D01*
X103762Y145038D01*
X103762Y133862D01*
G37*
G36*
X91062Y133862D02*
X102238Y133862D01*
X102238Y145038D01*
X100625Y145038D01*
X96238Y143220D01*
X92879Y139862D01*
X91062Y135475D01*
X91062Y133862D01*
G37*
G36*
X357112Y132112D02*
X367272Y132112D01*
X367272Y135874D01*
X360874Y142272D01*
X357112Y142272D01*
X357112Y132112D01*
G37*
G36*
X27562Y129412D02*
X38738Y129412D01*
X38738Y140588D01*
X37125Y140588D01*
X32738Y138771D01*
X29379Y135412D01*
X27562Y131025D01*
X27562Y129412D01*
G37*
G36*
X40262Y129412D02*
X51438Y129412D01*
X51438Y131025D01*
X49621Y135412D01*
X46262Y138771D01*
X41875Y140588D01*
X40262Y140588D01*
X40262Y129412D01*
G37*
G36*
X62727Y117728D02*
X67073Y117728D01*
X71087Y119391D01*
X74159Y122463D01*
X75822Y126477D01*
X75822Y130823D01*
X74159Y134837D01*
X71087Y137909D01*
X67073Y139572D01*
X62727Y139572D01*
X58713Y137909D01*
X55641Y134837D01*
X53978Y130823D01*
X53978Y126477D01*
X55641Y122463D01*
X58713Y119391D01*
X62727Y117728D01*
G37*
G36*
X103762Y121162D02*
X105375Y121162D01*
X109762Y122979D01*
X113121Y126338D01*
X114938Y130725D01*
X114938Y132338D01*
X103762Y132338D01*
X103762Y121162D01*
G37*
G36*
X100625Y121162D02*
X102238Y121162D01*
X102238Y132338D01*
X91062Y132338D01*
X91062Y130725D01*
X92879Y126338D01*
X96238Y122979D01*
X100625Y121162D01*
G37*
G36*
X357112Y120428D02*
X360874Y120428D01*
X367272Y126826D01*
X367272Y130588D01*
X357112Y130588D01*
X357112Y120428D01*
G37*
G36*
X40262Y116712D02*
X41875Y116712D01*
X46262Y118529D01*
X49621Y121888D01*
X51438Y126275D01*
X51438Y127888D01*
X40262Y127888D01*
X40262Y116712D01*
G37*
G36*
X37125Y116712D02*
X38738Y116712D01*
X38738Y127888D01*
X27562Y127888D01*
X27562Y126275D01*
X29379Y121888D01*
X32738Y118529D01*
X37125Y116712D01*
G37*
G36*
X138927Y105028D02*
X143273Y105028D01*
X147287Y106691D01*
X150359Y109763D01*
X152022Y113777D01*
X152022Y118123D01*
X150359Y122137D01*
X147287Y125209D01*
X143273Y126872D01*
X138927Y126872D01*
X134913Y125209D01*
X131841Y122137D01*
X130178Y118123D01*
X130178Y113777D01*
X131841Y109763D01*
X134913Y106691D01*
X138927Y105028D01*
G37*
G36*
X458420Y118362D02*
X466738Y118362D01*
X466738Y126680D01*
X465694Y126680D01*
X462357Y125298D01*
X459802Y122743D01*
X458420Y119406D01*
X458420Y118362D01*
G37*
G36*
X468262Y118362D02*
X476580Y118362D01*
X476580Y119406D01*
X475198Y122743D01*
X472643Y125298D01*
X469306Y126680D01*
X468262Y126680D01*
X468262Y118362D01*
G37*
G36*
X100827Y96778D02*
X105173Y96778D01*
X109187Y98441D01*
X112259Y101513D01*
X113922Y105527D01*
X113922Y109872D01*
X112259Y113887D01*
X109187Y116959D01*
X105173Y118622D01*
X100827Y118622D01*
X96813Y116959D01*
X93741Y113887D01*
X92078Y109872D01*
X92078Y105527D01*
X93741Y101513D01*
X96813Y98441D01*
X100827Y96778D01*
G37*
G36*
X465694Y108520D02*
X466738Y108520D01*
X466738Y116838D01*
X458420Y116838D01*
X458420Y115794D01*
X459802Y112457D01*
X462357Y109902D01*
X465694Y108520D01*
G37*
G36*
X468262Y108520D02*
X469306Y108520D01*
X472643Y109902D01*
X475198Y112457D01*
X476580Y115794D01*
X476580Y116838D01*
X468262Y116838D01*
X468262Y108520D01*
G37*
G36*
X37327Y92328D02*
X41673Y92328D01*
X45687Y93991D01*
X48759Y97063D01*
X50422Y101077D01*
X50422Y105423D01*
X48759Y109437D01*
X45687Y112509D01*
X41673Y114172D01*
X37327Y114172D01*
X33313Y112509D01*
X30241Y109437D01*
X28578Y105423D01*
X28578Y101077D01*
X30241Y97063D01*
X33313Y93991D01*
X37327Y92328D01*
G37*
G36*
X62727Y92328D02*
X67073Y92328D01*
X71087Y93991D01*
X74159Y97063D01*
X75822Y101077D01*
X75822Y105423D01*
X74159Y109437D01*
X71087Y112509D01*
X67073Y114172D01*
X62727Y114172D01*
X58713Y112509D01*
X55641Y109437D01*
X53978Y105423D01*
X53978Y101077D01*
X55641Y97063D01*
X58713Y93991D01*
X62727Y92328D01*
G37*
G36*
X465896Y89536D02*
X469104Y89536D01*
X472068Y90764D01*
X474336Y93032D01*
X475564Y95996D01*
X475564Y99204D01*
X474336Y102168D01*
X472068Y104436D01*
X469104Y105664D01*
X465896Y105664D01*
X462932Y104436D01*
X460664Y102168D01*
X459436Y99204D01*
X459436Y95996D01*
X460664Y93032D01*
X462932Y90764D01*
X465896Y89536D01*
G37*
G36*
X138927Y79628D02*
X143273Y79628D01*
X147287Y81291D01*
X150359Y84363D01*
X152022Y88377D01*
X152022Y92723D01*
X150359Y96737D01*
X147287Y99809D01*
X143273Y101472D01*
X138927Y101472D01*
X134913Y99809D01*
X131841Y96737D01*
X130178Y92723D01*
X130178Y88377D01*
X131841Y84363D01*
X134913Y81291D01*
X138927Y79628D01*
G37*
G36*
X37327Y66928D02*
X41673Y66928D01*
X45687Y68591D01*
X48759Y71663D01*
X50422Y75677D01*
X50422Y80023D01*
X48759Y84037D01*
X45687Y87109D01*
X41673Y88772D01*
X37327Y88772D01*
X33313Y87109D01*
X30241Y84037D01*
X28578Y80023D01*
X28578Y75677D01*
X30241Y71663D01*
X33313Y68591D01*
X37327Y66928D01*
G37*
G36*
X62727Y66928D02*
X67073Y66928D01*
X71087Y68591D01*
X74159Y71663D01*
X75822Y75677D01*
X75822Y80023D01*
X74159Y84037D01*
X71087Y87109D01*
X67073Y88772D01*
X62727Y88772D01*
X58713Y87109D01*
X55641Y84037D01*
X53978Y80023D01*
X53978Y75677D01*
X55641Y71663D01*
X58713Y68591D01*
X62727Y66928D01*
G37*
G36*
X458420Y58362D02*
X466738Y58362D01*
X466738Y66680D01*
X465694Y66680D01*
X462357Y65298D01*
X459802Y62743D01*
X458420Y59406D01*
X458420Y58362D01*
G37*
G36*
X468262Y58362D02*
X476580Y58362D01*
X476580Y59406D01*
X475198Y62743D01*
X472643Y65298D01*
X469306Y66680D01*
X468262Y66680D01*
X468262Y58362D01*
G37*
G36*
X52962Y53212D02*
X64138Y53212D01*
X64138Y64388D01*
X62525Y64388D01*
X58138Y62571D01*
X54779Y59212D01*
X52962Y54825D01*
X52962Y53212D01*
G37*
G36*
X65662Y53212D02*
X76838Y53212D01*
X76838Y54825D01*
X75021Y59212D01*
X71662Y62571D01*
X67275Y64388D01*
X65662Y64388D01*
X65662Y53212D01*
G37*
G36*
X103762Y53212D02*
X113922Y53212D01*
X113922Y56974D01*
X107524Y63372D01*
X103762Y63372D01*
X103762Y53212D01*
G37*
G36*
X37327Y41528D02*
X41673Y41528D01*
X45687Y43191D01*
X48759Y46263D01*
X50422Y50277D01*
X50422Y54623D01*
X48759Y58637D01*
X45687Y61709D01*
X41673Y63372D01*
X37327Y63372D01*
X33313Y61709D01*
X30241Y58637D01*
X28578Y54623D01*
X28578Y50277D01*
X30241Y46263D01*
X33313Y43191D01*
X37327Y41528D01*
G37*
G36*
X92078Y53212D02*
X102238Y53212D01*
X102238Y63372D01*
X98476Y63372D01*
X92078Y56974D01*
X92078Y53212D01*
G37*
G36*
X468262Y48520D02*
X469306Y48520D01*
X472643Y49902D01*
X475198Y52457D01*
X476580Y55794D01*
X476580Y56838D01*
X468262Y56838D01*
X468262Y48520D01*
G37*
G36*
X465694Y48520D02*
X466738Y48520D01*
X466738Y56838D01*
X458420Y56838D01*
X458420Y55794D01*
X459802Y52457D01*
X462357Y49902D01*
X465694Y48520D01*
G37*
G36*
X103762Y41528D02*
X107524Y41528D01*
X113922Y47926D01*
X113922Y51688D01*
X103762Y51688D01*
X103762Y41528D01*
G37*
G36*
X98476Y41528D02*
X102238Y41528D01*
X102238Y51688D01*
X92078Y51688D01*
X92078Y47926D01*
X98476Y41528D01*
G37*
G36*
X65662Y40512D02*
X67275Y40512D01*
X71662Y42329D01*
X75021Y45688D01*
X76838Y50075D01*
X76838Y51688D01*
X65662Y51688D01*
X65662Y40512D01*
G37*
G36*
X62525Y40512D02*
X64138Y40512D01*
X64138Y51688D01*
X52962Y51688D01*
X52962Y50075D01*
X54779Y45688D01*
X58138Y42329D01*
X62525Y40512D01*
G37*
G36*
X378524Y25654D02*
X383476Y25654D01*
X388050Y27549D01*
X391551Y31050D01*
X393446Y35624D01*
X393446Y40576D01*
X391551Y45150D01*
X388050Y48651D01*
X383476Y50546D01*
X378524Y50546D01*
X373950Y48651D01*
X370449Y45150D01*
X368554Y40576D01*
X368554Y35624D01*
X370449Y31050D01*
X373950Y27549D01*
X378524Y25654D01*
G37*
G36*
X458420Y18362D02*
X466738Y18362D01*
X466738Y26680D01*
X465694Y26680D01*
X462357Y25298D01*
X459802Y22743D01*
X458420Y19406D01*
X458420Y18362D01*
G37*
G36*
X468262Y18362D02*
X476580Y18362D01*
X476580Y19406D01*
X475198Y22743D01*
X472643Y25298D01*
X469306Y26680D01*
X468262Y26680D01*
X468262Y18362D01*
G37*
%LPD*%
D10*
X141100Y90550D03*
X141100Y115950D03*
X141100Y141350D03*
X141100Y166750D03*
X141100Y192150D03*
X141100Y217550D03*
X141100Y242950D03*
X141100Y268350D03*
X141100Y293750D03*
X141100Y319150D03*
D11*
X425450Y209550D03*
X400050Y209550D03*
D12*
X330950Y131350D03*
X356350Y131350D03*
D10*
X103000Y439800D03*
X103000Y414400D03*
X103000Y389000D03*
X103000Y363600D03*
X103000Y338200D03*
X103000Y285500D03*
X103000Y260100D03*
X103000Y234700D03*
X103000Y209300D03*
X103000Y183900D03*
X103000Y158500D03*
X103000Y133100D03*
X103000Y107700D03*
D13*
X381000Y38100D03*
X356000Y88100D03*
X331000Y88100D03*
X406000Y88100D03*
X431000Y88100D03*
D11*
X514350Y292100D03*
X412750Y292100D03*
D14*
X196850Y311150D03*
X196850Y412750D03*
D11*
X514350Y266700D03*
X412750Y266700D03*
D15*
X171450Y286512D03*
X171450Y184912D03*
D14*
X171450Y310388D03*
X171450Y411988D03*
D15*
X196850Y285750D03*
X196850Y184150D03*
D10*
X400095Y132858D03*
X425495Y132858D03*
X177892Y563842D03*
X152492Y563842D03*
X127092Y563842D03*
X208650Y563842D03*
X234050Y563842D03*
X259450Y563842D03*
X284850Y563842D03*
X310250Y563842D03*
X335650Y563842D03*
X181900Y523600D03*
X207300Y523600D03*
X232700Y523600D03*
X258100Y523600D03*
X402350Y366200D03*
X402350Y391600D03*
X402350Y417000D03*
X402350Y442400D03*
X402350Y467800D03*
X402350Y493200D03*
X402350Y518600D03*
X402350Y544000D03*
X402350Y569400D03*
X39500Y535050D03*
X39500Y509650D03*
X39500Y484250D03*
X39500Y458850D03*
X39500Y433450D03*
X39500Y408050D03*
X39500Y382650D03*
X39500Y357250D03*
X39500Y331850D03*
X39500Y306450D03*
X39500Y281050D03*
X39500Y255650D03*
X39500Y230250D03*
X64900Y230250D03*
X64900Y255650D03*
X64900Y281050D03*
X64900Y306450D03*
X64900Y331850D03*
X64900Y357250D03*
X64900Y382650D03*
X64900Y408050D03*
X64900Y433450D03*
X64900Y458850D03*
X64900Y484250D03*
X64900Y509650D03*
X64900Y535050D03*
X39500Y204850D03*
X64900Y204850D03*
X39500Y179450D03*
X64900Y179450D03*
X39500Y154050D03*
X64900Y154050D03*
X39500Y128650D03*
X64900Y128650D03*
X39500Y103250D03*
X64900Y103250D03*
X39500Y77850D03*
X64900Y77850D03*
X39500Y52450D03*
X64900Y52450D03*
D15*
X440800Y543700D03*
X440800Y518300D03*
X103000Y77850D03*
X103000Y52450D03*
D12*
X96650Y535050D03*
X122050Y535050D03*
D16*
X350000Y171350D03*
D17*
X350000Y196350D03*
D16*
X142200Y489600D03*
D17*
X117200Y489600D03*
D16*
X317500Y508200D03*
D17*
X317500Y533200D03*
D10*
X400050Y171450D03*
X425450Y171450D03*
D18*
X467500Y197600D03*
D19*
X467500Y177600D03*
X467500Y157600D03*
X467500Y137600D03*
X467500Y117600D03*
X467500Y97600D03*
X467500Y77600D03*
X467500Y57600D03*
X467500Y37600D03*
X467500Y17600D03*
D20*
X71250Y389000D02*
X64900Y382650D01*
X71250Y389000D02*
X103000Y389000D01*
D21*
X103000Y439800D02*
X133100Y469900D01*
X177800Y469900D01*
X207300Y499400D01*
X207300Y523600D01*
X153900Y71350D02*
X109500Y71350D01*
X103000Y77850D01*
X153900Y71350D02*
X254000Y171450D01*
X254000Y279400D01*
D22*
X254000Y279400D03*
D21*
X103000Y439800D02*
X81664Y461136D01*
X81664Y540916D01*
X71528Y551052D01*
X47052Y551052D01*
X39500Y543500D01*
X39500Y535050D01*
D22*
X146050Y438150D03*
D23*
X146050Y324100D01*
X141100Y319150D01*
D22*
X103000Y312800D03*
X349400Y329800D03*
D20*
X234800Y329800D01*
X204212Y299212D01*
X157988Y299212D02*
X150242Y306958D01*
X157988Y299212D02*
X204212Y299212D01*
X136050Y306958D02*
X130208Y312800D01*
X103000Y312800D01*
X136050Y306958D02*
X150242Y306958D01*
X375954Y198046D02*
X376000Y198000D01*
X361000Y183000D01*
X334000Y151000D02*
X344000Y141000D01*
X344000Y112000D01*
X331000Y99000D01*
X331000Y88100D01*
X402350Y408842D02*
X402350Y417000D01*
X402350Y408842D02*
X390158Y396650D01*
X390158Y339358D01*
X385900Y335100D01*
X386000Y208000D02*
X376000Y198000D01*
X386000Y208000D02*
X386000Y335000D01*
X385900Y335100D01*
X361000Y183000D02*
X341000Y183000D01*
X334000Y176000D01*
X334000Y151000D01*
D21*
X446000Y249000D02*
X446000Y322000D01*
D22*
X446000Y249000D03*
D21*
X402350Y388830D02*
X402350Y391600D01*
X418352Y349648D02*
X446000Y322000D01*
X418352Y372828D02*
X402350Y388830D01*
X418352Y372828D02*
X418352Y349648D01*
D20*
X424750Y297750D02*
X425000Y297500D01*
X424750Y297750D02*
X402350Y320150D01*
X402350Y366200D01*
X424750Y297750D02*
X424750Y244750D01*
X413000Y233000D01*
D22*
X413000Y233000D03*
D24*
X467500Y157600D02*
X461900Y152000D01*
X431800Y152000D01*
X425000Y152000D01*
X419237Y152000D01*
X400095Y132858D01*
X462758Y132858D02*
X467500Y137600D01*
X462758Y132858D02*
X425495Y132858D01*
D20*
X467500Y77600D02*
X486734Y96834D01*
X425450Y171450D02*
X441000Y187000D01*
X486734Y172266D02*
X486734Y96834D01*
X486734Y172266D02*
X472000Y187000D01*
X441000Y187000D01*
X494350Y64450D02*
X467500Y37600D01*
X494350Y64450D02*
X495000Y65100D01*
X494350Y64450D02*
X494350Y197650D01*
X481000Y211000D01*
X426900Y211000D01*
X425450Y209550D01*
X514350Y244350D02*
X514350Y266700D01*
X514350Y244350D02*
X481000Y211000D01*
D21*
X258100Y444500D02*
X203200Y444500D01*
X171450Y412750D01*
X171450Y411988D01*
X258100Y444500D02*
X258100Y523600D01*
D20*
X181900Y534434D02*
X152492Y563842D01*
X181900Y534434D02*
X181900Y523600D01*
M02*
