M48
;GenerationSoftware,Autodesk,EAGLE,9.7.0*%
;CreationDate,2026-04-11T07:38:27Z*%
FMAT,2
ICI,OFF
METRIC,TZ,000.000
T7C0.350
T6C0.700
T5C0.800
T4C0.813
T3C1.016
T2C1.200
T1C1.300
%
G90
M71
T1
X43100Y8810
X40600Y8810
X33100Y8810
X35600Y8810
X38100Y3810
T2
X38100Y8810
X33100Y3810
X33100Y1310
X43100Y1310
X43100Y3810
T3
X6490Y40805
X6490Y38265
X14110Y11595
X14110Y14135
X14110Y16675
X14110Y19215
X14110Y21755
X14110Y24295
X14110Y26835
X14110Y29375
X14110Y31915
X3950Y5245
X6490Y7785
X3950Y7785
X6490Y10325
X10300Y43980
X10300Y41440
X10300Y38900
X10300Y36360
X10300Y33820
X10300Y28550
X10300Y26010
X10300Y23470
X10300Y20930
X10300Y18390
X10300Y15850
X10300Y13310
X10300Y10770
X6490Y5245
X40005Y17145
X42545Y17145
X40235Y41700
X40235Y36620
X3950Y10325
X6490Y12865
X3950Y12865
X6490Y15405
X3950Y15405
X6490Y17945
X3950Y17945
X6490Y20485
X3950Y20485
X6490Y53505
X6490Y50965
X6490Y48425
X40009Y13286
X42549Y13286
X17789Y56384
X15249Y56384
X12709Y56384
X20865Y56384
X23405Y56384
X25945Y56384
X28485Y56384
X31025Y56384
X33565Y56384
X18190Y52360
X20730Y52360
X23270Y52360
X25810Y52360
X6490Y45885
X40235Y39160
X6490Y43345
X40235Y44240
X40235Y46780
X40235Y49320
X40235Y51860
X40235Y54400
X40235Y56940
X3950Y53505
X3950Y50965
X3950Y48425
X3950Y45885
X3950Y43345
X3950Y40805
X3950Y38265
X3950Y35725
X3950Y33185
X3950Y30645
X3950Y28105
X3950Y25565
X3950Y23025
X6490Y23025
X6490Y25565
X6490Y28105
X6490Y30645
X6490Y33185
X6490Y35725
X14110Y9055
T4
X10300Y7785
X10300Y5245
X9665Y53505
X19685Y18415
X19685Y28575
X17145Y41199
X17145Y31039
X17145Y18491
X17145Y28651
X41275Y26670
X51435Y26670
X19685Y41275
X19685Y31115
X41275Y29210
X51435Y29210
X35635Y13135
X33095Y13135
X40005Y20955
X42545Y20955
X12205Y53505
X44080Y54370
X44080Y51830
T5
X46750Y1760
X46750Y5760
X46750Y3760
X46750Y19760
X46750Y17760
X46750Y15760
X46750Y13760
X46750Y11760
X46750Y9760
X46750Y7760
T6
X35000Y17135
X35000Y19635
X14220Y48960
X11720Y48960
X31750Y50820
X31750Y53320
T7
X41300Y23300
X44600Y24900
X34940Y32980
X10300Y31280
X14605Y43815
X25400Y27940
M30