M48
;GenerationSoftware,Autodesk,EAGLE,9.7.0*%
;CreationDate,2026-06-06T01:42:22Z*%
FMAT,2
ICI,OFF
METRIC,TZ,000.000
T7C0.350
T6C0.700
T5C0.800
T4C0.813
T3C0.900
T2C1.016
T1C2.750
%
G90
M71
T1
X59440Y29160
X58440Y0
X58420Y59600
X5120Y59600
X5100Y0
T2
X32580Y5280
X6490Y17945
X3950Y38265
X3950Y40805
X3950Y45885
X15330Y9155
X15330Y11695
X15330Y14235
X15330Y16775
X15330Y19315
X15330Y21855
X15330Y24395
X15330Y26935
X15330Y29475
X15330Y32015
X31780Y58760
X29240Y58760
X26700Y58760
X24160Y58760
X10300Y43980
X10300Y41440
X10300Y38900
X10300Y36360
X10300Y33820
X10300Y28550
X10300Y26010
X10300Y23470
X10300Y20930
X10300Y18390
X10300Y15850
X10300Y13310
X10300Y10770
X51375Y7625
X51375Y5085
X6490Y5245
X3950Y5245
X6490Y7785
X3950Y7785
X6490Y10325
X3950Y10325
X6490Y12865
X3950Y12865
X6490Y15405
X3950Y15405
X41806Y13970
X41806Y11430
X18829Y61444
X16289Y61444
X13749Y61444
X18130Y51160
X20670Y51160
X23210Y51160
X25750Y51160
X39955Y36880
X39955Y39420
X39955Y41960
X39955Y44500
X39955Y47040
X39955Y49580
X39955Y52120
X39955Y54660
X39955Y57200
X3950Y53505
X3950Y50965
X3950Y48425
X35120Y5280
X42740Y5280
X37660Y5280
X3950Y33185
X3950Y35725
X40200Y5280
X3950Y30645
X3950Y28105
X3950Y25565
X3950Y23025
X6490Y23025
X6490Y25565
X6490Y28105
X6490Y30645
X6490Y33185
X6490Y35725
X6490Y38265
X6490Y40805
X6490Y43345
X6490Y45885
X6490Y48425
X6490Y50965
X6490Y53505
X3950Y20485
X6490Y20485
X3950Y17945
X3950Y43345
T3
X26600Y25380
X26600Y15380
T4
X21345Y18335
X51155Y29470
X18485Y18351
X18485Y28511
X40995Y26930
X51155Y26930
X21425Y42215
X21425Y32055
X43920Y54860
X43920Y49780
X10240Y8175
X10240Y3095
X10435Y53665
X15515Y53665
X21345Y28495
X41745Y22675
X41745Y17595
X32265Y10495
X18705Y42259
X18705Y32099
X40995Y29470
X37345Y10495
T5
X46750Y19760
X46750Y17760
X46750Y15760
X46750Y13760
X46750Y11760
X46750Y9760
X46750Y7760
X46750Y5760
X46750Y3760
X46750Y1760
T6
X31950Y54280
X11720Y48960
X14220Y48960
X35000Y19635
X35000Y17135
X31950Y51780
T7
X43860Y25300
X39117Y19663
X34940Y32980
X10300Y31280
X14605Y43815
M30