G04 EAGLE Gerber RS-274X export*
G75*
%MOMM*%
%FSLAX34Y34*%
%LPD*%
%IN*%
%IPPOS*%
%AMOC8*
5,1,8,0,0,1.08239X$1,22.5*%
G01*
G04 Define Apertures*
%ADD10C,0.254000*%
D10*
X0Y-10800D02*
X152Y-14286D01*
X608Y-17746D01*
X1363Y-21153D01*
X2412Y-24481D01*
X3748Y-27705D01*
X5359Y-30800D01*
X7234Y-33743D01*
X9358Y-36512D01*
X11716Y-39084D01*
X14289Y-41442D01*
X17057Y-43566D01*
X20000Y-45441D01*
X23095Y-47052D01*
X26319Y-48388D01*
X29647Y-49437D01*
X33054Y-50192D01*
X36514Y-50648D01*
X40000Y-50800D01*
X594800Y-50800D01*
X598286Y-50648D01*
X601746Y-50192D01*
X605153Y-49437D01*
X608481Y-48388D01*
X611705Y-47052D01*
X614800Y-45441D01*
X617743Y-43566D01*
X620512Y-41442D01*
X623084Y-39084D01*
X625442Y-36512D01*
X627566Y-33743D01*
X629441Y-30800D01*
X631052Y-27705D01*
X632388Y-24481D01*
X633437Y-21153D01*
X634192Y-17746D01*
X634648Y-14286D01*
X634800Y-10800D01*
X634800Y609000D01*
X634648Y612486D01*
X634192Y615946D01*
X633437Y619353D01*
X632388Y622681D01*
X631052Y625905D01*
X629441Y629000D01*
X627566Y631943D01*
X625442Y634712D01*
X623084Y637284D01*
X620512Y639642D01*
X617743Y641766D01*
X614800Y643641D01*
X611705Y645252D01*
X608481Y646588D01*
X605153Y647637D01*
X601746Y648392D01*
X598286Y648848D01*
X594800Y649000D01*
X40000Y649000D01*
X36514Y648848D01*
X33054Y648392D01*
X29647Y647637D01*
X26319Y646588D01*
X23095Y645252D01*
X20000Y643641D01*
X17057Y641766D01*
X14289Y639642D01*
X11716Y637284D01*
X9358Y634712D01*
X7234Y631943D01*
X5359Y629000D01*
X3748Y625905D01*
X2412Y622681D01*
X1363Y619353D01*
X608Y615946D01*
X152Y612486D01*
X0Y609000D01*
X0Y-10800D01*
M02*
