G04 EAGLE Gerber RS-274X export*
G75*
%MOMM*%
%FSLAX34Y34*%
%LPD*%
%INSoldermask Top*%
%IPPOS*%
%AMOC8*
5,1,8,0,0,1.08239X$1,22.5*%
G01*
G04 Define Apertures*
%ADD10C,2.953200*%
%ADD11C,2.082800*%
%ADD12P,1.64956X8X292.5*%
%ADD13P,1.64956X8X22.5*%
%ADD14P,2.03446X8X202.5*%
%ADD15P,2.03446X8X112.5*%
%ADD16P,2.03446X8X292.5*%
%ADD17C,1.854200*%
%ADD18R,1.854200X1.854200*%
%ADD19R,1.511200X1.511200*%
%ADD20C,1.511200*%
%ADD21C,0.959600*%
D10*
X594400Y291600D03*
X51000Y0D03*
X51200Y596000D03*
X584200Y596000D03*
X584400Y0D03*
D11*
X153300Y91550D03*
X153300Y116950D03*
X153300Y142350D03*
X153300Y167750D03*
X153300Y193150D03*
X153300Y218550D03*
X153300Y243950D03*
X153300Y269350D03*
X153300Y294750D03*
X153300Y320150D03*
D12*
X417450Y226750D03*
X417450Y175950D03*
D13*
X322650Y104950D03*
X373450Y104950D03*
D11*
X103000Y439800D03*
X103000Y414400D03*
X103000Y389000D03*
X103000Y363600D03*
X103000Y338200D03*
X103000Y285500D03*
X103000Y260100D03*
X103000Y234700D03*
X103000Y209300D03*
X103000Y183900D03*
X103000Y158500D03*
X103000Y133100D03*
X103000Y107700D03*
D14*
X511550Y294700D03*
X409950Y294700D03*
D15*
X214250Y320550D03*
X214250Y422150D03*
D14*
X511550Y269300D03*
X409950Y269300D03*
D16*
X184850Y285112D03*
X184850Y183512D03*
D15*
X187050Y320988D03*
X187050Y422588D03*
D16*
X213450Y284950D03*
X213450Y183350D03*
D11*
X418058Y139705D03*
X418058Y114305D03*
X188292Y614442D03*
X162892Y614442D03*
X137492Y614442D03*
X181300Y511600D03*
X206700Y511600D03*
X232100Y511600D03*
X257500Y511600D03*
X399550Y368800D03*
X399550Y394200D03*
X399550Y419600D03*
X399550Y445000D03*
X399550Y470400D03*
X399550Y495800D03*
X399550Y521200D03*
X399550Y546600D03*
X399550Y572000D03*
X39500Y535050D03*
X39500Y509650D03*
X39500Y484250D03*
X39500Y458850D03*
X39500Y433450D03*
X39500Y408050D03*
X39500Y382650D03*
X39500Y357250D03*
X39500Y331850D03*
X39500Y306450D03*
X39500Y281050D03*
X39500Y255650D03*
X39500Y230250D03*
X64900Y230250D03*
X64900Y255650D03*
X64900Y281050D03*
X64900Y306450D03*
X64900Y331850D03*
X64900Y357250D03*
X64900Y382650D03*
X64900Y408050D03*
X64900Y433450D03*
X64900Y458850D03*
X64900Y484250D03*
X64900Y509650D03*
X64900Y535050D03*
X39500Y204850D03*
X64900Y204850D03*
X39500Y179450D03*
X64900Y179450D03*
X39500Y154050D03*
X64900Y154050D03*
X39500Y128650D03*
X64900Y128650D03*
X39500Y103250D03*
X64900Y103250D03*
X39500Y77850D03*
X64900Y77850D03*
X39500Y52450D03*
X64900Y52450D03*
D12*
X439200Y548600D03*
X439200Y497800D03*
X102400Y81750D03*
X102400Y30950D03*
D13*
X104350Y536650D03*
X155150Y536650D03*
D17*
X350000Y171350D03*
D18*
X350000Y196350D03*
D17*
X142200Y489600D03*
D18*
X117200Y489600D03*
D17*
X319500Y517800D03*
D18*
X319500Y542800D03*
D11*
X513750Y50850D03*
X513750Y76250D03*
D19*
X467500Y197600D03*
D20*
X467500Y177600D03*
X467500Y157600D03*
X467500Y137600D03*
X467500Y117600D03*
X467500Y97600D03*
X467500Y77600D03*
X467500Y57600D03*
X467500Y37600D03*
X467500Y17600D03*
D11*
X241600Y587600D03*
X267000Y587600D03*
X292400Y587600D03*
X317800Y587600D03*
D17*
X266000Y153800D03*
X266000Y253800D03*
D11*
X427400Y52800D03*
X402000Y52800D03*
X376600Y52800D03*
X351200Y52800D03*
X325800Y52800D03*
D21*
X146050Y438150D03*
X103000Y312800D03*
X349400Y329800D03*
X438600Y253000D03*
X391172Y196628D03*
M02*
